SplineFontDB: 3.0
FontName: Nobile-Bold
FullName: Nobile Bold
FamilyName: Nobile
Weight: Bold
Copyright: Copyright (c) 2010 by vernon adams. All rights reserved.
Version: 001.000
ItalicAngle: 0
UnderlinePosition: -292
UnderlineWidth: 40
Ascent: 1638
Descent: 410
LayerCount: 2
Layer: 0 1 "Back"  1
Layer: 1 1 "Fore"  0
XUID: [1021 823 301787212 14210639]
FSType: 0
OS2Version: 2
OS2_WeightWidthSlopeOnly: 0
OS2_UseTypoMetrics: 1
CreationTime: 1291285203
ModificationTime: 1296004880
PfmFamily: 17
TTFWeight: 700
TTFWidth: 5
LineGap: 0
VLineGap: 0
Panose: 2 0 5 3 5 0 0 2 0 4
OS2TypoAscent: 2450
OS2TypoAOffset: 0
OS2TypoDescent: -696
OS2TypoDOffset: 0
OS2TypoLinegap: 0
OS2WinAscent: 2450
OS2WinAOffset: 0
OS2WinDescent: 696
OS2WinDOffset: 0
HheadAscent: 2450
HheadAOffset: 0
HheadDescent: -696
HheadDOffset: 0
OS2SubXSize: 1331
OS2SubYSize: 1433
OS2SubXOff: 0
OS2SubYOff: 286
OS2SupXSize: 1331
OS2SupYSize: 1433
OS2SupXOff: 0
OS2SupYOff: 983
OS2StrikeYSize: 102
OS2StrikeYPos: 512
OS2Vendor: 'SIL '
OS2CodePages: 00000097.00000000
OS2UnicodeRanges: a000026f.4000000a.00000000.00000000
Lookup: 4 0 1 "'liga' Standard Ligatures in Latin lookup 0"  {"'liga' Standard Ligatures in Latin lookup 0 subtable"  } ['liga' ('latn' <'dflt' > ) ]
Lookup: 258 0 0 "'kern' Horizontal Kerning in Latin lookup 0"  {"'kern' Horizontal Kerning in Latin lookup 0 per glyph data 0"  "'kern' Horizontal Kerning in Latin lookup 0 kerning class 1"  } ['kern' ('latn' <'dflt' > ) ]
DEI: 91125
KernClass2: 130+ 107 "'kern' Horizontal Kerning in Latin lookup 0 kerning class 1" 
 10 registered
 12 questiondown
 9 trademark
 9 ampersand
 73 A Agrave Aacute Acircumflex Atilde Adieresis Aring Aogonek Abreve Amacron
 9 B uni1E02
 47 C Ccedilla Cacute Ccaron Cdotaccent Ccircumflex
 27 D Eth Dcaron Dcroat uni1E0A
 77 E AE Egrave Eacute Ecircumflex Edieresis OE Eogonek Ecaron Emacron Edotaccent
 9 F uni1E1E
 44 G Gbreve Gdotaccent Gcircumflex Gcommaaccent

StartChar: .notdef
Encoding: 65536 -1 0
Width: 772
Flags: W
HStem: 0 70<140 562> 1340 70<140 562>
VStem: 70 70<70 1340> 562 70<70 1340>
LayerCount: 2
Fore
SplineSet
562 70 m 1,0,-1
 562 1340 l 1,1,-1
 140 1340 l 1,2,-1
 140 70 l 1,3,-1
 562 70 l 1,0,-1
70 1410 m 1,4,-1
 632 1410 l 1,5,-1
 632 0 l 1,6,-1
 70 0 l 1,7,-1
 70 1410 l 1,4,-1
EndSplineSet
Validated: 1
EndChar

StartChar: exclam
Encoding: 33 33 6
Width: 682
Flags: W
HStem: -13 418<229.938 478.353> 1610 20G<104 574>
VStem: 151 407<64.6641 324.228> 230 222<518 644.521>
LayerCount: 2
Fore
SplineSet
211 48 m 1,0,1
 151 105 151 105 151 194 c 0,2,3
 151 235 151 235 166 273 c 128,-1,4
 181 311 181 311 208 340.5 c 128,-1,5
 235 370 235 370 271.5 387.5 c 128,-1,6
 308 405 308 405 351 405 c 0,7,8
 395 405 395 405 433 388 c 128,-1,9
 471 371 471 371 498.5 342 c 128,-1,10
 526 313 526 313 542 274.5 c 128,-1,11
 558 236 558 236 558 194 c 0,12,13
 558 150 558 150 542 112.5 c 128,-1,14
 526 75 526 75 498 47 c 128,-1,15
 470 19 470 19 432 3 c 128,-1,16
 394 -13 394 -13 351 -13 c 0,17,18
 263 -13 263 -13 211 48 c 1,0,1
452 518 m 1,19,-1
 230 518 l 1,20,-1
 104 1630 l 1,21,-1
 574 1630 l 1,22,-1
 452 518 l 1,19,-1
EndSplineSet
Validated: 1
EndChar

StartChar: quotedbl
Encoding: 34 34 7
Width: 1174
Flags: W
HStem: 1610 20G<86 544 644 1102>
LayerCount: 2
Fore
SplineSet
1102 1630 m 1,0,-1
 972 805 l 1,1,-1
 734 805 l 1,2,-1
 644 1630 l 1,3,-1
 1102 1630 l 1,0,-1
544 1630 m 1,4,-1
 414 805 l 1,5,-1
 176 805 l 1,6,-1
 103 1490 l 1,7,-1
 86 1630 l 1,8,-1
 544 1630 l 1,4,-1
EndSplineSet
Validated: 1
EndChar

StartChar: numbersign
Encoding: 35 35 8
Width: 1302
Flags: W
HStem: 430 160<102 267 531 720 983 1199> 849 160<99 318 583 769 1039 1196>
LayerCount: 2
Fore
SplineSet
737 590 m 1,0,-1
 769 849 l 1,1,-1
 564 849 l 1,2,-1
 531 590 l 1,3,-1
 737 590 l 1,0,-1
511 430 m 1,4,-1
 442 -30 l 1,5,-1
 197 -30 l 1,6,-1
 267 430 l 1,7,-1
 102 430 l 1,8,-1
 102 590 l 1,9,-1
 284 590 l 1,10,-1
 318 849 l 1,11,-1
 99 849 l 1,12,-1
 99 1009 l 1,13,-1
 341 1009 l 1,14,-1
 404 1467 l 1,15,-1
 645 1467 l 1,16,-1
 583 1009 l 1,17,-1
 796 1009 l 1,18,-1
 854 1468 l 1,19,-1
 1099 1468 l 1,20,-1
 1039 1009 l 1,21,-1
 1196 1009 l 1,22,-1
 1196 849 l 1,23,-1
 1018 849 l 1,24,-1
 983 590 l 1,25,-1
 1199 590 l 1,26,-1
 1199 430 l 1,27,-1
 962 430 l 1,28,-1
 896 -30 l 1,29,-1
 652 -30 l 1,30,-1
 720 430 l 1,31,-1
 511 430 l 1,4,-1
EndSplineSet
Validated: 1
EndChar

StartChar: dollar
Encoding: 36 36 9
Width: 1383
Flags: W
HStem: -39 298<416.858 658> 1386 302<480.11 658 772 976.105>
VStem: 78 360<1149.99 1343.56> 658 114<-148 -39 271 668 1072 1381 1688 1800> 945 367<341.574 589.785>
LayerCount: 2
Fore
SplineSet
772 271 m 1,0,1
 850 291 850 291 897.5 337.5 c 128,-1,2
 945 384 945 384 945 462 c 0,3,4
 945 528 945 528 912.5 574.5 c 128,-1,5
 880 621 880 621 801 655 c 0,6,7
 793 659 793 659 786 661.5 c 128,-1,8
 779 664 779 664 772 668 c 1,9,-1
 772 271 l 1,0,1
658 1386 m 1,10,11
 613 1385 613 1385 573 1379 c 128,-1,12
 533 1373 533 1373 503 1357 c 128,-1,13
 473 1341 473 1341 455.5 1311.5 c 128,-1,14
 438 1282 438 1282 438 1233 c 0,15,16
 438 1218 438 1218 442 1202.5 c 128,-1,17
 446 1187 446 1187 460 1170.5 c 128,-1,18
 474 1154 474 1154 500.5 1137 c 128,-1,19
 527 1120 527 1120 573 1103 c 0,20,21
 596 1095 596 1095 617 1087.5 c 128,-1,22
 638 1080 638 1080 658 1072 c 1,23,-1
 658 1386 l 1,10,11
658 1800 m 1,24,-1
 772 1800 l 1,25,-1
 772 1681 l 1,26,27
 924 1667 924 1667 1040.5 1635.5 c 128,-1,28
 1157 1604 1157 1604 1239 1561 c 1,29,-1
 1147 1284 l 1,30,31
 1078 1311 1078 1311 1010 1332 c 0,32,33
 981 1341 981 1341 949.5 1350 c 128,-1,34
 918 1359 918 1359 887 1365.5 c 128,-1,35
 856 1372 856 1372 826.5 1376.5 c 128,-1,36
 797 1381 797 1381 772 1381 c 1,37,-1
 772 1029 l 1,38,39
 814 1014 814 1014 854.5 998.5 c 128,-1,40
 895 983 895 983 937 968 c 0,41,42
 1013 940 1013 940 1081.5 897.5 c 128,-1,43
 1150 855 1150 855 1201 798.5 c 128,-1,44
 1252 742 1252 742 1282 671 c 128,-1,45
 1312 600 1312 600 1312 516 c 0,46,47
 1312 387 1312 387 1276.5 288 c 128,-1,48
 1241 189 1241 189 1172 120 c 128,-1,49
 1103 51 1103 51 1002.5 12 c 128,-1,50
 902 -27 902 -27 772 -37 c 1,51,-1
 772 -148 l 1,52,-1
 658 -148 l 1,53,-1
 658 -39 l 1,54,55
 613 -39 613 -39 567 -33 c 128,-1,56
 521 -27 521 -27 475.5 -16.5 c 128,-1,57
 430 -6 430 -6 387 6.5 c 128,-1,58
 344 19 344 19 306 33 c 0,59,60
 216 65 216 65 132 105 c 1,61,-1
 201 391 l 1,62,63
 276 354 276 354 355 325 c 0,64,65
 388 313 388 313 426 301 c 128,-1,66
 464 289 464 289 503 279.5 c 128,-1,67
 542 270 542 270 581.5 264.5 c 128,-1,68
 621 259 621 259 658 259 c 1,69,-1
 658 715 l 1,70,71
 584 747 584 747 510 778.5 c 128,-1,72
 436 810 436 810 360 841 c 0,73,74
 220 898 220 898 149 993.5 c 128,-1,75
 78 1089 78 1089 78 1230 c 0,76,77
 78 1361 78 1361 125 1449 c 128,-1,78
 172 1537 172 1537 252 1590 c 128,-1,79
 332 1643 332 1643 437 1665.5 c 128,-1,80
 542 1688 542 1688 658 1688 c 1,81,-1
 658 1800 l 1,24,-1
EndSplineSet
Validated: 1
EndChar

StartChar: percent
Encoding: 37 37 10
Width: 1892
Flags: W
HStem: 12 194<1353.38 1554.07> 642 195<328.197 527.556> 721 207<1360.23 1546.86> 1352 207<334.739 520.935>
VStem: 70 218<875.238 1288.04> 568 228<875.875 1288.04> 1095 218<245.238 657.559> 1594 227<245.196 657.559>
LayerCount: 2
Fore
SplineSet
1454 206 m 256,0,1
 1488 206 1488 206 1514 217 c 128,-1,2
 1540 228 1540 228 1558 256.5 c 128,-1,3
 1576 285 1576 285 1585 334.5 c 128,-1,4
 1594 384 1594 384 1594 460 c 0,5,6
 1594 598 1594 598 1559 659.5 c 128,-1,7
 1524 721 1524 721 1454 721 c 0,8,9
 1383 721 1383 721 1348 659.5 c 128,-1,10
 1313 598 1313 598 1313 460 c 0,11,12
 1313 384 1313 384 1322 334.5 c 128,-1,13
 1331 285 1331 285 1349 256.5 c 128,-1,14
 1367 228 1367 228 1393.5 217 c 128,-1,15
 1420 206 1420 206 1454 206 c 256,0,1
1459 12 m 0,16,17
 1384 12 1384 12 1328.5 33 c 128,-1,18
 1273 54 1273 54 1232.5 89.5 c 128,-1,19
 1192 125 1192 125 1165.5 170.5 c 128,-1,20
 1139 216 1139 216 1123.5 265 c 128,-1,21
 1108 314 1108 314 1101.5 362 c 128,-1,22
 1095 410 1095 410 1095 451 c 0,23,24
 1095 575 1095 575 1120.5 665 c 128,-1,25
 1146 755 1146 755 1193.5 813.5 c 128,-1,26
 1241 872 1241 872 1308 900 c 128,-1,27
 1375 928 1375 928 1459 928 c 0,28,29
 1541 928 1541 928 1608 900 c 128,-1,30
 1675 872 1675 872 1722.5 813.5 c 128,-1,31
 1770 755 1770 755 1795.5 665 c 128,-1,32
 1821 575 1821 575 1821 451 c 0,33,34
 1821 412 1821 412 1815 364.5 c 128,-1,35
 1809 317 1809 317 1793.5 268 c 128,-1,36
 1778 219 1778 219 1752 173 c 128,-1,37
 1726 127 1726 127 1685.5 91 c 128,-1,38
 1645 55 1645 55 1589 33.5 c 128,-1,39
 1533 12 1533 12 1459 12 c 0,16,17
428 837 m 256,40,41
 462 837 462 837 488 848 c 128,-1,42
 514 859 514 859 532 887.5 c 128,-1,43
 550 916 550 916 559 965 c 128,-1,44
 568 1014 568 1014 568 1090 c 0,45,46
 568 1228 568 1228 533 1290 c 128,-1,47
 498 1352 498 1352 428 1352 c 0,48,49
 357 1352 357 1352 322.5 1290 c 128,-1,50
 288 1228 288 1228 288 1090 c 0,51,52
 288 1014 288 1014 297 965 c 128,-1,53
 306 916 306 916 324 887.5 c 128,-1,54
 342 859 342 859 368 848 c 128,-1,55
 394 837 394 837 428 837 c 256,40,41
433 642 m 0,56,57
 359 642 359 642 303 663 c 128,-1,58
 247 684 247 684 207 719.5 c 128,-1,59
 167 755 167 755 140.5 800.5 c 128,-1,60
 114 846 114 846 98.5 895 c 128,-1,61
 83 944 83 944 76.5 992 c 128,-1,62
 70 1040 70 1040 70 1081 c 0,63,64
 70 1205 70 1205 95.5 1295.5 c 128,-1,65
 121 1386 121 1386 168 1444.5 c 128,-1,66
 215 1503 215 1503 282.5 1531 c 128,-1,67
 350 1559 350 1559 433 1559 c 0,68,69
 515 1559 515 1559 582.5 1531 c 128,-1,70
 650 1503 650 1503 697 1444.5 c 128,-1,71
 744 1386 744 1386 770 1295.5 c 128,-1,72
 796 1205 796 1205 796 1081 c 0,73,74
 796 1042 796 1042 790 994.5 c 128,-1,75
 784 947 784 947 768.5 898.5 c 128,-1,76
 753 850 753 850 726.5 803.5 c 128,-1,77
 700 757 700 757 660 721.5 c 128,-1,78
 620 686 620 686 564 664 c 128,-1,79
 508 642 508 642 433 642 c 0,56,57
1192 1552 m 1,80,-1
 1400 1443 l 1,81,-1
 686 -42 l 1,82,-1
 477 59 l 1,83,-1
 1192 1552 l 1,80,-1
EndSplineSet
Validated: 1
EndChar

StartChar: ampersand
Encoding: 38 38 11
Width: 1749
Flags: W
HStem: -41 288<503.99 1011.65> 1441 240<576.527 866.762>
VStem: 60 336<342.952 608.877> 215 322<1171.45 1401.76> 912 281<1164.9 1400.03> 1221 304.5<583.547 941>
LayerCount: 2
Fore
SplineSet
396 478 m 0,0,1
 396 366 396 366 478.5 306.5 c 128,-1,2
 561 247 561 247 742 247 c 0,3,4
 833 247 833 247 902.5 261.5 c 128,-1,5
 972 276 972 276 1019 294 c 0,6,7
 1065 312 1065 312 1089 326 c 2,8,-1
 1113 340 l 1,9,-1
 666 729 l 1,10,11
 611 715 611 715 562 694.5 c 128,-1,12
 513 674 513 674 476 644.5 c 128,-1,13
 439 615 439 615 417.5 574 c 128,-1,14
 396 533 396 533 396 478 c 0,0,1
742 -41 m 0,15,16
 601 -41 601 -41 477 -13.5 c 128,-1,17
 353 14 353 14 260.5 73 c 128,-1,18
 168 132 168 132 114 226 c 128,-1,19
 60 320 60 320 60 453 c 0,20,21
 60 560 60 560 92.5 636 c 128,-1,22
 125 712 125 712 178 767.5 c 128,-1,23
 231 823 231 823 298.5 862 c 128,-1,24
 366 901 366 901 437 934 c 1,25,-1
 437 933 l 1,26,27
 374 984 374 984 326 1046 c 0,28,29
 305 1072 305 1072 285 1103.5 c 128,-1,30
 265 1135 265 1135 249.5 1170.5 c 128,-1,31
 234 1206 234 1206 224.5 1245 c 128,-1,32
 215 1284 215 1284 215 1325 c 0,33,34
 215 1411 215 1411 255 1477.5 c 128,-1,35
 295 1544 295 1544 363.5 1589 c 128,-1,36
 432 1634 432 1634 522.5 1657.5 c 128,-1,37
 613 1681 613 1681 715 1681 c 0,38,39
 820 1681 820 1681 908 1656 c 128,-1,40
 996 1631 996 1631 1059 1585 c 128,-1,41
 1122 1539 1122 1539 1157.5 1474.5 c 128,-1,42
 1193 1410 1193 1410 1193 1331 c 0,43,44
 1193 1256 1193 1256 1176.5 1183.5 c 128,-1,45
 1160 1111 1160 1111 1125 1048 c 128,-1,46
 1090 985 1090 985 1036 935.5 c 128,-1,47
 982 886 982 886 908 858 c 1,48,-1
 1223 582 l 1,49,50
 1222 628 1222 628 1221.5 670.5 c 128,-1,51
 1221 713 1221 713 1221 756 c 128,-1,52
 1221 799 1221 799 1221 844.5 c 128,-1,53
 1221 890 1221 890 1221 941 c 1,54,-1
 1530 941 l 1,55,56
 1530 869 1530 869 1525.5 794.5 c 128,-1,57
 1521 720 1521 720 1515 654 c 128,-1,58
 1509 588 1509 588 1502 534 c 128,-1,59
 1495 480 1495 480 1489 449 c 2,60,-1
 1475 377 l 1,61,-1
 1753 138 l 1,62,-1
 1595 -61 l 1,63,-1
 1345 150 l 1,64,65
 1266 64 1266 64 1116.5 11.5 c 128,-1,66
 967 -41 967 -41 742 -41 c 0,15,16
912 1287 m 0,67,68
 912 1367 912 1367 863.5 1404 c 128,-1,69
 815 1441 815 1441 726 1441 c 0,70,71
 537 1441 537 1441 537 1295 c 0,72,73
 537 1247 537 1247 556.5 1211.5 c 128,-1,74
 576 1176 576 1176 602 1146 c 1,75,76
 619 1129 619 1129 641 1106.5 c 128,-1,77
 663 1084 663 1084 689 1072 c 1,78,79
 735 1086 735 1086 775.5 1103 c 128,-1,80
 816 1120 816 1120 846.5 1144.5 c 128,-1,81
 877 1169 877 1169 894.5 1203.5 c 128,-1,82
 912 1238 912 1238 912 1287 c 0,67,68
EndSplineSet
Validated: 5
EndChar

StartChar: quotesingle
Encoding: 39 39 12
Width: 617
Flags: W
HStem: 1610 20G<78 535>
VStem: 78 457
LayerCount: 2
Fore
SplineSet
535 1630 m 1,0,-1
 406 805 l 1,1,-1
 167 805 l 1,2,-1
 78 1630 l 1,3,-1
 535 1630 l 1,0,-1
EndSplineSet
Validated: 1
EndChar

StartChar: parenleft
Encoding: 40 40 13
Width: 769
Flags: W
VStem: 78 342<364.01 1043.79>
LayerCount: 2
Fore
SplineSet
78 700 m 0,0,1
 78 869 78 869 112.5 1023 c 128,-1,2
 147 1177 147 1177 209.5 1310 c 128,-1,3
 272 1443 272 1443 360 1552 c 128,-1,4
 448 1661 448 1661 555 1742 c 1,5,-1
 724 1514 l 1,6,7
 654 1447 654 1447 598 1358 c 128,-1,8
 542 1269 542 1269 502.5 1164 c 128,-1,9
 463 1059 463 1059 441.5 941.5 c 128,-1,10
 420 824 420 824 420 701 c 256,11,12
 420 578 420 578 441.5 464 c 128,-1,13
 463 350 463 350 503 248.5 c 128,-1,14
 543 147 543 147 600.5 59.5 c 128,-1,15
 658 -28 658 -28 730 -97 c 1,16,-1
 558 -325 l 1,17,18
 450 -244 450 -244 361.5 -136 c 128,-1,19
 273 -28 273 -28 210 102.5 c 128,-1,20
 147 233 147 233 112.5 383.5 c 128,-1,21
 78 534 78 534 78 700 c 0,0,1
EndSplineSet
Validated: 1
EndChar

StartChar: parenright
Encoding: 41 41 14
Width: 771
Flags: W
VStem: 349 344<369.866 1052.31>
LayerCount: 2
Fore
SplineSet
693 715 m 0,0,1
 693 548 693 548 658 394.5 c 128,-1,2
 623 241 623 241 560 108 c 128,-1,3
 497 -25 497 -25 409.5 -135 c 128,-1,4
 322 -245 322 -245 216 -325 c 1,5,-1
 45 -97 l 1,6,7
 115 -30 115 -30 171.5 59.5 c 128,-1,8
 228 149 228 149 267.5 254 c 128,-1,9
 307 359 307 359 328 476.5 c 128,-1,10
 349 594 349 594 349 717 c 256,11,12
 349 840 349 840 327 954.5 c 128,-1,13
 305 1069 305 1069 264.5 1171 c 128,-1,14
 224 1273 224 1273 166.5 1359.5 c 128,-1,15
 109 1446 109 1446 39 1514 c 1,16,-1
 211 1742 l 1,17,18
 321 1659 321 1659 410 1550 c 128,-1,19
 499 1441 499 1441 562 1310 c 128,-1,20
 625 1179 625 1179 659 1029 c 128,-1,21
 693 879 693 879 693 715 c 0,0,1
EndSplineSet
Validated: 1
EndChar

StartChar: asterisk
Encoding: 42 42 15
Width: 1093
Flags: W
HStem: 1125 211<80 353 760 1011>
LayerCount: 2
Fore
SplineSet
685 1701 m 1,0,-1
 895 1576 l 1,1,-1
 757 1336 l 1,2,-1
 1011 1336 l 1,3,-1
 1011 1125 l 1,4,-1
 760 1125 l 1,5,-1
 896 892 l 1,6,-1
 682 763 l 1,7,-1
 555 985 l 1,8,-1
 429 765 l 1,9,-1
 217 892 l 1,10,-1
 353 1125 l 1,11,-1
 80 1125 l 1,12,-1
 80 1336 l 1,13,-1
 356 1336 l 1,14,-1
 217 1580 l 1,15,-1
 425 1699 l 1,16,-1
 552 1475 l 1,17,-1
 685 1701 l 1,0,-1
EndSplineSet
Validated: 1
EndChar

StartChar: plus
Encoding: 43 43 16
Width: 1058
Flags: W
HStem: 457 293<89 372 684 969>
VStem: 372 312<93 457 750 1112>
LayerCount: 2
Fore
SplineSet
684 457 m 1,0,-1
 684 93 l 1,1,-1
 372 93 l 1,2,-1
 372 457 l 1,3,-1
 89 457 l 1,4,-1
 89 750 l 1,5,-1
 372 750 l 1,6,-1
 372 1112 l 1,7,-1
 684 1112 l 1,8,-1
 684 750 l 1,9,-1
 969 750 l 1,10,-1
 969 457 l 1,11,-1
 684 457 l 1,0,-1
EndSplineSet
Validated: 1
EndChar

StartChar: comma
Encoding: 44 44 17
Width: 711
Flags: W
HStem: -322 119<192.808 231.992>
VStem: 132 447<1.82031 440> 321 258<-121.555 0>
LayerCount: 2
Fore
SplineSet
132 440 m 1,0,-1
 579 440 l 1,1,-1
 579 56 l 2,2,3
 579 -40 579 -40 544.5 -104 c 128,-1,4
 510 -168 510 -168 455.5 -209.5 c 128,-1,5
 401 -251 401 -251 334 -276.5 c 128,-1,6
 267 -302 267 -302 201 -322 c 1,7,-1
 133 -203 l 1,8,9
 183 -185 183 -185 219 -166 c 128,-1,10
 255 -147 255 -147 277.5 -123.5 c 128,-1,11
 300 -100 300 -100 310.5 -70 c 128,-1,12
 321 -40 321 -40 321 0 c 1,13,-1
 132 0 l 1,14,-1
 132 440 l 1,0,-1
EndSplineSet
Validated: 1
EndChar

StartChar: hyphen
Encoding: 45 45 18
Width: 1096
Flags: W
HStem: 599 282<132 964>
LayerCount: 2
Fore
SplineSet
132 599 m 1,0,-1
 132 881 l 1,1,-1
 964 881 l 1,2,-1
 964 599 l 1,3,-1
 132 599 l 1,0,-1
EndSplineSet
Validated: 1
EndChar

StartChar: period
Encoding: 46 46 19
Width: 712
Flags: W
HStem: 0 440<133 580>
VStem: 133 447<0 440>
LayerCount: 2
Fore
SplineSet
133 440 m 1,0,-1
 580 440 l 1,1,-1
 580 0 l 1,2,-1
 133 0 l 1,3,-1
 133 440 l 1,0,-1
EndSplineSet
Validated: 1
EndChar

StartChar: slash
Encoding: 47 47 20
Width: 994
Flags: W
LayerCount: 2
Fore
SplineSet
636 1716 m 1,0,-1
 937 1621 l 1,1,-1
 347 -148 l 1,2,-1
 51 -56 l 1,3,-1
 636 1716 l 1,0,-1
EndSplineSet
Validated: 1
EndChar

StartChar: zero
Encoding: 48 48 21
Width: 1431
Flags: W
HStem: -28 281<566.834 861.586> 964 281<571.391 863.882>
VStem: 109 355<368.454 841.791> 970 352<376.647 846.673>
LayerCount: 2
Fore
SplineSet
714 253 m 0,0,1
 789 253 789 253 838.5 282 c 128,-1,2
 888 311 888 311 917.5 361 c 128,-1,3
 947 411 947 411 958.5 478.5 c 128,-1,4
 970 546 970 546 970 623 c 0,5,6
 970 696 970 696 957 758.5 c 128,-1,7
 944 821 944 821 914 866.5 c 128,-1,8
 884 912 884 912 835 938 c 128,-1,9
 786 964 786 964 714 964 c 0,10,11
 640 964 640 964 592 934.5 c 128,-1,12
 544 905 544 905 515.5 855.5 c 128,-1,13
 487 806 487 806 475.5 742.5 c 128,-1,14
 464 679 464 679 464 612 c 0,15,16
 464 528 464 528 477 461 c 128,-1,17
 490 394 490 394 520 348 c 128,-1,18
 550 302 550 302 597.5 277.5 c 128,-1,19
 645 253 645 253 714 253 c 0,0,1
714 1245 m 0,20,21
 865 1245 865 1245 979 1201 c 128,-1,22
 1093 1157 1093 1157 1169.5 1073.5 c 128,-1,23
 1246 990 1246 990 1284 869 c 128,-1,24
 1322 748 1322 748 1322 595 c 0,25,26
 1322 449 1322 449 1281 333.5 c 128,-1,27
 1240 218 1240 218 1162 137.5 c 128,-1,28
 1084 57 1084 57 970.5 14.5 c 128,-1,29
 857 -28 857 -28 712 -28 c 0,30,31
 563 -28 563 -28 450.5 17.5 c 128,-1,32
 338 63 338 63 262 146 c 128,-1,33
 186 229 186 229 147.5 347 c 128,-1,34
 109 465 109 465 109 609 c 0,35,36
 109 760 109 760 148.5 878.5 c 128,-1,37
 188 997 188 997 265 1078.5 c 128,-1,38
 342 1160 342 1160 455 1202.5 c 128,-1,39
 568 1245 568 1245 714 1245 c 0,20,21
EndSplineSet
Validated: 1
EndChar

StartChar: one
Encoding: 49 49 22
Width: 861
Flags: W
HStem: 0 21G<308 684> 1190 20G<286 453>
VStem: 308 376<0 905>
LayerCount: 2
Fore
SplineSet
308 905 m 1,0,-1
 152 839 l 1,1,-1
 51 1096 l 1,2,-1
 336 1210 l 1,3,-1
 453 1206 l 1,4,-1
 684 1206 l 1,5,-1
 684 0 l 1,6,-1
 308 0 l 1,7,-1
 308 905 l 1,0,-1
EndSplineSet
Validated: 1
EndChar

StartChar: two
Encoding: 50 50 23
Width: 1171
Flags: W
HStem: 0 288<659 1021> 948 282<336.513 659.411>
VStem: 695 361<689.612 916.931>
LayerCount: 2
Fore
SplineSet
695 806 m 0,0,1
 695 878 695 878 660.5 913 c 128,-1,2
 626 948 626 948 548 948 c 0,3,4
 505 948 505 948 457 938 c 128,-1,5
 409 928 409 928 361.5 912 c 128,-1,6
 314 896 314 896 270 876 c 128,-1,7
 226 856 226 856 191 837 c 1,8,-1
 92 1095 l 1,9,10
 103 1100 103 1100 130.5 1112 c 128,-1,11
 158 1124 158 1124 195.5 1139 c 128,-1,12
 233 1154 233 1154 279.5 1170 c 128,-1,13
 326 1186 326 1186 375.5 1199.5 c 128,-1,14
 425 1213 425 1213 475 1221.5 c 128,-1,15
 525 1230 525 1230 571 1230 c 0,16,17
 625 1230 625 1230 681.5 1222.5 c 128,-1,18
 738 1215 738 1215 792 1198.5 c 128,-1,19
 846 1182 846 1182 894 1154 c 128,-1,20
 942 1126 942 1126 978 1085 c 128,-1,21
 1014 1044 1014 1044 1035 988 c 128,-1,22
 1056 932 1056 932 1056 860 c 0,23,24
 1056 798 1056 798 1042.5 745.5 c 128,-1,25
 1029 693 1029 693 998 640.5 c 128,-1,26
 967 588 967 588 917 532.5 c 128,-1,27
 867 477 867 477 794 411 c 2,28,-1
 659 288 l 1,29,-1
 1021 288 l 1,30,-1
 1021 0 l 1,31,-1
 130 0 l 1,32,-1
 130 232 l 1,33,-1
 570 604 l 2,34,35
 588 619 588 619 609.5 641 c 128,-1,36
 631 663 631 663 650 689.5 c 128,-1,37
 669 716 669 716 682 746 c 128,-1,38
 695 776 695 776 695 806 c 0,0,1
EndSplineSet
Validated: 1
EndChar

StartChar: three
Encoding: 51 51 24
Width: 1121
Flags: W
HStem: -179 277<227.025 613.909> 434 264<364 568.491> 959 282<267.403 598.619>
VStem: 644 334<760.989 933.253> 666 349<137.664 351.44>
LayerCount: 2
Fore
SplineSet
644 855 m 0,0,1
 644 908 644 908 600 933.5 c 128,-1,2
 556 959 556 959 486 959 c 0,3,4
 438 959 438 959 387.5 948 c 128,-1,5
 337 937 337 937 295 923.5 c 128,-1,6
 253 910 253 910 224.5 898.5 c 128,-1,7
 196 887 196 887 192 886 c 1,8,-1
 68 1132 l 1,9,10
 84 1140 84 1140 119 1158 c 128,-1,11
 154 1176 154 1176 204.5 1194.5 c 128,-1,12
 255 1213 255 1213 319 1227 c 128,-1,13
 383 1241 383 1241 457 1241 c 0,14,15
 575 1241 575 1241 671 1220 c 128,-1,16
 767 1199 767 1199 835 1151.5 c 128,-1,17
 903 1104 903 1104 940.5 1027.5 c 128,-1,18
 978 951 978 951 978 841 c 0,19,20
 978 797 978 797 965 753.5 c 128,-1,21
 952 710 952 710 927 672 c 128,-1,22
 902 634 902 634 865 605.5 c 128,-1,23
 828 577 828 577 780 565 c 1,24,25
 832 551 832 551 875.5 519 c 128,-1,26
 919 487 919 487 950 444.5 c 128,-1,27
 981 402 981 402 998 352.5 c 128,-1,28
 1015 303 1015 303 1015 254 c 0,29,30
 1015 140 1015 140 974.5 58 c 128,-1,31
 934 -24 934 -24 862 -76.5 c 128,-1,32
 790 -129 790 -129 691 -154 c 128,-1,33
 592 -179 592 -179 475 -179 c 0,34,35
 392 -179 392 -179 324.5 -169.5 c 128,-1,36
 257 -160 257 -160 208 -148 c 128,-1,37
 159 -136 159 -136 129 -125.5 c 128,-1,38
 99 -115 99 -115 92 -112 c 1,39,-1
 182 160 l 1,40,41
 190 157 190 157 216.5 146.5 c 128,-1,42
 243 136 243 136 281.5 125.5 c 128,-1,43
 320 115 320 115 367 106.5 c 128,-1,44
 414 98 414 98 463 98 c 0,45,46
 565 98 565 98 615.5 132 c 128,-1,47
 666 166 666 166 666 250 c 0,48,49
 666 298 666 298 639 332.5 c 128,-1,50
 612 367 612 367 568.5 389.5 c 128,-1,51
 525 412 525 412 471.5 423 c 128,-1,52
 418 434 418 434 364 434 c 1,53,-1
 364 698 l 1,54,55
 417 698 417 698 467.5 706.5 c 128,-1,56
 518 715 518 715 557 733.5 c 128,-1,57
 596 752 596 752 620 782 c 128,-1,58
 644 812 644 812 644 855 c 0,0,1
EndSplineSet
Validated: 1
EndChar

StartChar: four
Encoding: 52 52 25
Width: 1248
Flags: W
HStem: 60 276<411 678 988 1173>
VStem: 678 310<-220 60 339 737>
LayerCount: 2
Fore
SplineSet
678 336 m 1,0,-1
 678 737 l 1,1,-1
 411 336 l 1,2,-1
 678 336 l 1,0,-1
988 1188 m 1,3,-1
 988 339 l 1,4,-1
 1173 339 l 1,5,-1
 1173 60 l 1,6,-1
 988 60 l 1,7,-1
 988 -220 l 1,8,-1
 678 -220 l 1,9,-1
 678 60 l 1,10,-1
 95 60 l 1,11,-1
 52 274 l 1,12,-1
 718 1259 l 1,13,-1
 988 1188 l 1,3,-1
EndSplineSet
Validated: 1
EndChar

StartChar: five
Encoding: 53 53 26
Width: 1161
Flags: W
HStem: -186 290<256.274 685.523> 518 251<448.796 682.555> 945 262<447 981>
VStem: 144 303<730 945> 746 322<160.994 451.967>
LayerCount: 2
Fore
SplineSet
154 180 m 1,0,1
 181 169 181 169 222.5 156 c 128,-1,2
 264 143 264 143 313.5 131.5 c 128,-1,3
 363 120 363 120 417 112 c 128,-1,4
 471 104 471 104 524 104 c 0,5,6
 631 104 631 104 688.5 149 c 128,-1,7
 746 194 746 194 746 292 c 0,8,9
 746 398 746 398 697 458 c 128,-1,10
 648 518 648 518 549 518 c 0,11,12
 449 518 449 518 292 436 c 1,13,-1
 144 568 l 1,14,-1
 144 1207 l 1,15,-1
 981 1207 l 1,16,-1
 981 945 l 1,17,-1
 447 945 l 1,18,-1
 447 730 l 2,19,20
 447 731 447 731 458.5 737.5 c 128,-1,21
 470 744 470 744 489.5 751 c 128,-1,22
 509 758 509 758 534 763.5 c 128,-1,23
 559 769 559 769 586 769 c 0,24,25
 698 769 698 769 787.5 735.5 c 128,-1,26
 877 702 877 702 939 639.5 c 128,-1,27
 1001 577 1001 577 1034.5 488.5 c 128,-1,28
 1068 400 1068 400 1068 290 c 0,29,30
 1068 183 1068 183 1029 95.5 c 128,-1,31
 990 8 990 8 920.5 -54.5 c 128,-1,32
 851 -117 851 -117 756 -151.5 c 128,-1,33
 661 -186 661 -186 549 -186 c 0,34,35
 497 -186 497 -186 439.5 -178.5 c 128,-1,36
 382 -171 382 -171 325 -158.5 c 128,-1,37
 268 -146 268 -146 213 -128.5 c 128,-1,38
 158 -111 158 -111 112 -91 c 1,39,-1
 154 180 l 1,0,1
EndSplineSet
Validated: 1
EndChar

StartChar: six
Encoding: 54 54 27
Width: 1257
Flags: W
HStem: -98 281<522.288 775.808> 638 273<552.062 795.676>
VStem: 86 352<274.917 580.569> 839 339<248.557 593.782>
LayerCount: 2
Fore
SplineSet
1178 404 m 0,0,1
 1178 293 1178 293 1142.5 201 c 128,-1,2
 1107 109 1107 109 1040.5 42.5 c 128,-1,3
 974 -24 974 -24 877.5 -61 c 128,-1,4
 781 -98 781 -98 660 -98 c 0,5,6
 524 -98 524 -98 417.5 -53 c 128,-1,7
 311 -8 311 -8 237.5 70 c 128,-1,8
 164 148 164 148 125 252 c 128,-1,9
 86 356 86 356 86 474 c 0,10,11
 86 671 86 671 149.5 825 c 128,-1,12
 213 979 213 979 322.5 1094 c 128,-1,13
 432 1209 432 1209 578.5 1286 c 128,-1,14
 725 1363 725 1363 891 1407 c 1,15,-1
 978 1122 l 1,16,17
 826 1092 826 1092 723 1037 c 128,-1,18
 620 982 620 982 551 907 c 1,19,20
 585 909 585 909 615.5 910 c 128,-1,21
 646 911 646 911 671 911 c 0,22,23
 786 911 786 911 879.5 869.5 c 128,-1,24
 973 828 973 828 1039.5 758 c 128,-1,25
 1106 688 1106 688 1142 596 c 128,-1,26
 1178 504 1178 504 1178 404 c 0,0,1
438 478 m 0,27,28
 440 408 440 408 452.5 353.5 c 128,-1,29
 465 299 465 299 491 261 c 128,-1,30
 517 223 517 223 558 203 c 128,-1,31
 599 183 599 183 658 183 c 0,32,33
 713 183 713 183 748 204.5 c 128,-1,34
 783 226 783 226 803.5 263.5 c 128,-1,35
 824 301 824 301 831.5 351 c 128,-1,36
 839 401 839 401 839 457 c 0,37,38
 839 548 839 548 797 593 c 128,-1,39
 755 638 755 638 664 638 c 0,40,41
 601 638 601 638 546.5 616.5 c 128,-1,42
 492 595 492 595 437 544 c 1,43,44
 438 526 438 526 438 510 c 128,-1,45
 438 494 438 494 438 478 c 0,27,28
EndSplineSet
Validated: 1
EndChar

StartChar: seven
Encoding: 55 55 28
Width: 1125
Flags: W
HStem: 924 277<87 657>
LayerCount: 2
Fore
SplineSet
1085 1010 m 1,0,-1
 476 -250 l 1,1,-1
 156 -108 l 1,2,-1
 657 924 l 1,3,-1
 87 924 l 1,4,-1
 87 1201 l 1,5,-1
 998 1201 l 1,6,-1
 1085 1010 l 1,0,-1
EndSplineSet
Validated: 1
EndChar

StartChar: eight
Encoding: 56 56 29
Width: 1317
Flags: W
HStem: -129 285<513.016 804.853> 520 266<531.746 785.738> 1091 275<527.761 790.428>
VStem: 123 348<193.324 453.299> 154 337<821.775 1055.18> 827 336<821.789 1054.8> 846 348<192.726 453.272>
LayerCount: 2
Fore
SplineSet
827 949 m 0,0,1
 827 1018 827 1018 787 1054.5 c 128,-1,2
 747 1091 747 1091 659 1091 c 0,3,4
 570 1091 570 1091 530.5 1054.5 c 128,-1,5
 491 1018 491 1018 491 948 c 0,6,7
 491 860 491 860 530.5 823 c 128,-1,8
 570 786 570 786 659 786 c 0,9,10
 747 786 747 786 787 823 c 128,-1,11
 827 860 827 860 827 949 c 0,0,1
846 311 m 0,12,13
 846 407 846 407 799 463.5 c 128,-1,14
 752 520 752 520 659 520 c 0,15,16
 565 520 565 520 518 464 c 128,-1,17
 471 408 471 408 471 311 c 0,18,19
 471 224 471 224 518.5 190 c 128,-1,20
 566 156 566 156 659 156 c 0,21,22
 753 156 753 156 799.5 190 c 128,-1,23
 846 224 846 224 846 311 c 0,12,13
1163 964 m 0,24,25
 1163 901 1163 901 1143 845 c 128,-1,26
 1123 789 1123 789 1087 745 c 128,-1,27
 1051 701 1051 701 1001 670.5 c 128,-1,28
 951 640 951 640 891 630 c 1,29,30
 948 623 948 623 1002 594.5 c 128,-1,31
 1056 566 1056 566 1099 521 c 128,-1,32
 1142 476 1142 476 1168 416.5 c 128,-1,33
 1194 357 1194 357 1194 288 c 0,34,35
 1194 176 1194 176 1148.5 97 c 128,-1,36
 1103 18 1103 18 1028 -32.5 c 128,-1,37
 953 -83 953 -83 857 -106 c 128,-1,38
 761 -129 761 -129 659 -129 c 256,39,40
 557 -129 557 -129 460.5 -105.5 c 128,-1,41
 364 -82 364 -82 289 -32 c 128,-1,42
 214 18 214 18 168.5 97.5 c 128,-1,43
 123 177 123 177 123 290 c 0,44,45
 123 359 123 359 149.5 418 c 128,-1,46
 176 477 176 477 218.5 521.5 c 128,-1,47
 261 566 261 566 315.5 594 c 128,-1,48
 370 622 370 622 426 629 c 1,49,50
 367 640 367 640 317 670 c 128,-1,51
 267 700 267 700 231 744.5 c 128,-1,52
 195 789 195 789 174.5 845 c 128,-1,53
 154 901 154 901 154 964 c 0,54,55
 154 1063 154 1063 193.5 1138 c 128,-1,56
 233 1213 233 1213 301.5 1263.5 c 128,-1,57
 370 1314 370 1314 462 1340 c 128,-1,58
 554 1366 554 1366 659 1366 c 0,59,60
 765 1366 765 1366 857 1340 c 128,-1,61
 949 1314 949 1314 1017 1263 c 128,-1,62
 1085 1212 1085 1212 1124 1137 c 128,-1,63
 1163 1062 1163 1062 1163 964 c 0,24,25
EndSplineSet
Validated: 1
EndChar

StartChar: nine
Encoding: 57 57 30
Width: 1253
Flags: W
HStem: 241 268<465.959 708.969> 934 281<463 741.278>
VStem: 75 340<559.653 885.099> 823 346<515.565 845.206>
LayerCount: 2
Fore
SplineSet
583 241 m 0,0,1
 467 241 467 241 373 273.5 c 128,-1,2
 279 306 279 306 213 367.5 c 128,-1,3
 147 429 147 429 111 517 c 128,-1,4
 75 605 75 605 75 717 c 0,5,6
 75 828 75 828 112.5 919.5 c 128,-1,7
 150 1011 150 1011 217 1077 c 128,-1,8
 284 1143 284 1143 376 1179 c 128,-1,9
 468 1215 468 1215 578 1215 c 0,10,11
 717 1215 717 1215 826.5 1176.5 c 128,-1,12
 936 1138 936 1138 1012 1064.5 c 128,-1,13
 1088 991 1088 991 1128.5 885 c 128,-1,14
 1169 779 1169 779 1169 644 c 0,15,16
 1169 507 1169 507 1133 390 c 128,-1,17
 1097 273 1097 273 1035.5 175 c 128,-1,18
 974 77 974 77 893 -1 c 128,-1,19
 812 -79 812 -79 722.5 -137 c 128,-1,20
 633 -195 633 -195 540 -233.5 c 128,-1,21
 447 -272 447 -272 362 -290 c 1,22,-1
 277 -3 l 1,23,24
 358 13 358 13 423.5 38.5 c 128,-1,25
 489 64 489 64 542 97 c 128,-1,26
 595 130 595 130 636.5 169 c 128,-1,27
 678 208 678 208 710 250 c 1,28,29
 677 245 677 245 645.5 243 c 128,-1,30
 614 241 614 241 583 241 c 0,0,1
415 693 m 0,31,32
 415 653 415 653 426.5 619 c 128,-1,33
 438 585 438 585 459 560.5 c 128,-1,34
 480 536 480 536 510.5 522.5 c 128,-1,35
 541 509 541 509 579 509 c 0,36,37
 597 509 597 509 627 510 c 128,-1,38
 657 511 657 511 688.5 511.5 c 128,-1,39
 720 512 720 512 748.5 513 c 128,-1,40
 777 514 777 514 794 514 c 2,41,-1
 807 514 l 1,42,43
 811 551 811 551 814.5 587 c 128,-1,44
 818 623 818 623 823 658 c 1,45,46
 822 721 822 721 809 772 c 128,-1,47
 796 823 796 823 770 859 c 128,-1,48
 744 895 744 895 703 914.5 c 128,-1,49
 662 934 662 934 604 934 c 0,50,51
 547 934 547 934 510.5 920 c 128,-1,52
 474 906 474 906 453 877 c 128,-1,53
 432 848 432 848 424 802.5 c 128,-1,54
 416 757 416 757 415 693 c 0,31,32
EndSplineSet
Validated: 1
EndChar

StartChar: colon
Encoding: 58 58 31
Width: 762
Flags: W
HStem: 0 461<158 604> 775 462<158 604>
VStem: 158 446<0 461 775 1237>
LayerCount: 2
Fore
SplineSet
158 461 m 1,0,-1
 604 461 l 1,1,-1
 604 0 l 1,2,-1
 158 0 l 1,3,-1
 158 461 l 1,0,-1
158 1237 m 1,4,-1
 604 1237 l 1,5,-1
 604 775 l 1,6,-1
 158 775 l 1,7,-1
 158 1237 l 1,4,-1
EndSplineSet
Validated: 1
EndChar

StartChar: semicolon
Encoding: 59 59 32
Width: 747
Flags: W
HStem: -322 119<210.928 249.992> 775 462<149 595>
VStem: 149 446<1.82031 440 775 1237> 339 259<-121.555 0>
LayerCount: 2
Fore
SplineSet
149 1237 m 1,0,-1
 595 1237 l 1,1,-1
 595 775 l 1,2,-1
 149 775 l 1,3,-1
 149 1237 l 1,0,-1
151 440 m 1,4,-1
 598 440 l 1,5,-1
 598 56 l 2,6,7
 598 -40 598 -40 563.5 -104 c 128,-1,8
 529 -168 529 -168 474 -209.5 c 128,-1,9
 419 -251 419 -251 352 -276.5 c 128,-1,10
 285 -302 285 -302 219 -322 c 1,11,-1
 152 -203 l 1,12,13
 202 -185 202 -185 237.5 -166 c 128,-1,14
 273 -147 273 -147 295.5 -123.5 c 128,-1,15
 318 -100 318 -100 328.5 -70 c 128,-1,16
 339 -40 339 -40 339 0 c 1,17,-1
 151 0 l 1,18,-1
 151 440 l 1,4,-1
EndSplineSet
Validated: 1
EndChar

StartChar: less
Encoding: 60 60 33
Width: 1086
Flags: W
LayerCount: 2
Fore
SplineSet
66 731 m 1,0,-1
 951 1262 l 1,1,-1
 951 897 l 1,2,-1
 389 607 l 1,3,-1
 962 316 l 1,4,-1
 962 -48 l 1,5,-1
 66 473 l 1,6,-1
 66 731 l 1,0,-1
EndSplineSet
Validated: 1
EndChar

StartChar: equal
Encoding: 61 61 34
Width: 1246
Flags: W
HStem: 277 251<145 1102> 678 251<145 1102>
LayerCount: 2
Fore
SplineSet
145 277 m 1,0,-1
 145 528 l 1,1,-1
 1102 528 l 1,2,-1
 1102 277 l 1,3,-1
 145 277 l 1,0,-1
145 678 m 1,4,-1
 145 929 l 1,5,-1
 1102 929 l 1,6,-1
 1102 678 l 1,7,-1
 145 678 l 1,4,-1
EndSplineSet
Validated: 1
EndChar

StartChar: greater
Encoding: 62 62 35
Width: 1081
Flags: W
LayerCount: 2
Fore
SplineSet
139 -48 m 1,0,-1
 139 327 l 1,1,-1
 693 607 l 1,2,-1
 128 886 l 1,3,-1
 128 1262 l 1,4,-1
 1015 730 l 1,5,-1
 1015 473 l 1,6,-1
 139 -48 l 1,0,-1
EndSplineSet
Validated: 1
EndChar

StartChar: question
Encoding: 63 63 36
Width: 1186
Flags: W
HStem: -78 418<342.237 605.766> 1237 21G<145.626 152> 1310 294<248.108 712.25>
VStem: 269 410<-4.90283 266.999> 283 345<447 708.709> 752 365<1054.56 1268.49>
LayerCount: 2
Fore
SplineSet
270 120 m 0,0,1
 270 124 270 124 269.5 127 c 128,-1,2
 269 130 269 130 269 134 c 0,3,4
 269 181 269 181 285 219 c 128,-1,5
 301 257 301 257 329 284 c 128,-1,6
 357 311 357 311 395 325.5 c 128,-1,7
 433 340 433 340 477 340 c 0,8,9
 524 340 524 340 561.5 323.5 c 128,-1,10
 599 307 599 307 625 278.5 c 128,-1,11
 651 250 651 250 665 211.5 c 128,-1,12
 679 173 679 173 679 130 c 0,13,14
 679 83 679 83 663 44.5 c 128,-1,15
 647 6 647 6 619.5 -21 c 128,-1,16
 592 -48 592 -48 554 -63 c 128,-1,17
 516 -78 516 -78 471 -78 c 0,18,19
 427 -78 427 -78 390 -62.5 c 128,-1,20
 353 -47 353 -47 326.5 -20 c 128,-1,21
 300 7 300 7 285 43 c 128,-1,22
 270 79 270 79 270 120 c 0,0,1
752 1163 m 0,23,24
 752 1216 752 1216 730.5 1245.5 c 128,-1,25
 709 1275 709 1275 674 1289.5 c 128,-1,26
 639 1304 639 1304 593.5 1307 c 128,-1,27
 548 1310 548 1310 499 1310 c 0,28,29
 474 1310 474 1310 439 1305 c 128,-1,30
 404 1300 404 1300 365 1292 c 128,-1,31
 326 1284 326 1284 288 1275 c 128,-1,32
 250 1266 250 1266 220 1258 c 128,-1,33
 190 1250 190 1250 171 1244 c 128,-1,34
 152 1238 152 1238 152 1237 c 2,35,-1
 65 1510 l 1,36,37
 121 1538 121 1538 175.5 1556.5 c 128,-1,38
 230 1575 230 1575 287 1585.5 c 128,-1,39
 344 1596 344 1596 404.5 1600 c 128,-1,40
 465 1604 465 1604 533 1604 c 0,41,42
 660 1604 660 1604 767 1581.5 c 128,-1,43
 874 1559 874 1559 952 1508 c 128,-1,44
 1030 1457 1030 1457 1073.5 1376 c 128,-1,45
 1117 1295 1117 1295 1117 1178 c 0,46,47
 1117 1155 1117 1155 1113.5 1119.5 c 128,-1,48
 1110 1084 1110 1084 1094.5 1041.5 c 128,-1,49
 1079 999 1079 999 1048.5 952.5 c 128,-1,50
 1018 906 1018 906 963.5 860 c 128,-1,51
 909 814 909 814 827 771.5 c 128,-1,52
 745 729 745 729 628 696 c 1,53,-1
 628 447 l 1,54,-1
 283 447 l 1,55,-1
 283 862 l 1,56,57
 334 879 334 879 389 896 c 128,-1,58
 444 913 444 913 496 932.5 c 128,-1,59
 548 952 548 952 594.5 974.5 c 128,-1,60
 641 997 641 997 676 1025 c 128,-1,61
 711 1053 711 1053 731.5 1087 c 128,-1,62
 752 1121 752 1121 752 1163 c 0,23,24
EndSplineSet
Validated: 1
EndChar

StartChar: at
Encoding: 64 64 37
Width: 1951
Flags: W
HStem: -135 241<725.329 1230.34> 272 209<807.033 1025.28> 1018 189<874.672 1190.8> 1332 258<766.241 1291.19>
VStem: 77 302<417.083 931.201> 501 262<524.503 892.547> 1594 287<615.043 1036.22>
LayerCount: 2
Fore
SplineSet
949 -135 m 0,0,1
 755 -135 755 -135 595 -78.5 c 128,-1,2
 435 -22 435 -22 319.5 82.5 c 128,-1,3
 204 187 204 187 140.5 335.5 c 128,-1,4
 77 484 77 484 77 669 c 0,5,6
 77 781 77 781 102.5 893 c 128,-1,7
 128 1005 128 1005 179.5 1107.5 c 128,-1,8
 231 1210 231 1210 310.5 1298 c 128,-1,9
 390 1386 390 1386 497.5 1451 c 128,-1,10
 605 1516 605 1516 741.5 1553 c 128,-1,11
 878 1590 878 1590 1045 1590 c 0,12,13
 1154 1590 1154 1590 1258.5 1567 c 128,-1,14
 1363 1544 1363 1544 1456 1499.5 c 128,-1,15
 1549 1455 1549 1455 1627 1389.5 c 128,-1,16
 1705 1324 1705 1324 1761.5 1239.5 c 128,-1,17
 1818 1155 1818 1155 1849.5 1052.5 c 128,-1,18
 1881 950 1881 950 1881 831 c 0,19,20
 1881 749 1881 749 1861.5 670 c 128,-1,21
 1842 591 1842 591 1808 523.5 c 128,-1,22
 1774 456 1774 456 1727.5 402.5 c 128,-1,23
 1681 349 1681 349 1627 318 c 0,24,25
 1599 301 1599 301 1538.5 294 c 128,-1,26
 1478 287 1478 287 1382 287 c 0,27,28
 1291 287 1291 287 1244 343.5 c 128,-1,29
 1197 400 1197 400 1197 506 c 0,30,31
 1197 515 1197 515 1197.5 523.5 c 128,-1,32
 1198 532 1198 532 1202 542 c 1,33,34
 1175 470 1175 470 1147 418.5 c 128,-1,35
 1119 367 1119 367 1082.5 334.5 c 128,-1,36
 1046 302 1046 302 998.5 287 c 128,-1,37
 951 272 951 272 886 272 c 0,38,39
 839 272 839 272 790.5 282 c 128,-1,40
 742 292 742 292 696.5 319 c 128,-1,41
 651 346 651 346 609.5 393.5 c 128,-1,42
 568 441 568 441 535 515 c 0,43,44
 501 589 501 589 501 688 c 0,45,46
 501 752 501 752 514.5 809 c 128,-1,47
 528 866 528 866 551 914 c 128,-1,48
 574 962 574 962 604.5 1002 c 128,-1,49
 635 1042 635 1042 668 1073 c 0,50,51
 740 1140 740 1140 831 1173.5 c 128,-1,52
 922 1207 922 1207 1029 1207 c 0,53,54
 1101 1207 1101 1207 1172.5 1193.5 c 128,-1,55
 1244 1180 1244 1180 1302 1153 c 128,-1,56
 1360 1126 1360 1126 1396 1085.5 c 128,-1,57
 1432 1045 1432 1045 1432 991 c 0,58,59
 1432 977 1432 977 1430 973 c 1,60,-1
 1337 496 l 1,61,62
 1474 521 1474 521 1534 594 c 128,-1,63
 1594 667 1594 667 1594 783 c 0,64,65
 1594 1048 1594 1048 1446.5 1190 c 128,-1,66
 1299 1332 1299 1332 1016 1332 c 0,67,68
 872 1332 872 1332 754 1282.5 c 128,-1,69
 636 1233 636 1233 553 1145 c 128,-1,70
 470 1057 470 1057 424.5 935 c 128,-1,71
 379 813 379 813 379 669 c 0,72,73
 379 517 379 517 426 410.5 c 128,-1,74
 473 304 473 304 560 236 c 128,-1,75
 647 168 647 168 770.5 137 c 128,-1,76
 894 106 894 106 1048 106 c 0,77,78
 1093 106 1093 106 1144.5 121 c 128,-1,79
 1196 136 1196 136 1244 156 c 1,80,-1
 1297 -70 l 1,81,82
 1232 -102 1232 -102 1140.5 -118.5 c 128,-1,83
 1049 -135 1049 -135 949 -135 c 0,0,1
1034 1018 m 0,84,85
 969 1018 969 1018 918.5 997.5 c 128,-1,86
 868 977 868 977 833.5 933.5 c 128,-1,87
 799 890 799 890 781 822.5 c 128,-1,88
 763 755 763 755 763 662 c 0,89,90
 763 628 763 628 772 595.5 c 128,-1,91
 781 563 781 563 798 537.5 c 128,-1,92
 815 512 815 512 839 496.5 c 128,-1,93
 863 481 863 481 893 481 c 0,94,95
 948 481 948 481 990 503 c 128,-1,96
 1032 525 1032 525 1064 563 c 128,-1,97
 1096 601 1096 601 1119 652 c 128,-1,98
 1142 703 1142 703 1160 760.5 c 128,-1,99
 1178 818 1178 818 1191 879 c 128,-1,100
 1204 940 1204 940 1216 998 c 1,101,102
 1171 1005 1171 1005 1127 1011.5 c 128,-1,103
 1083 1018 1083 1018 1034 1018 c 0,84,85
EndSplineSet
Validated: 5
EndChar

StartChar: A
Encoding: 65 65 38
Width: 1501
Flags: W
HStem: 0 21G<0 404.313 1099.69 1504> 358 183<562 959> 1610 20G<530.411 965.687>
LayerCount: 2
Fore
SplineSet
959 1630 m 1,0,-1
 1504 0 l 1,1,-1
 1106 0 l 1,2,-1
 993 358 l 1,3,-1
 511 358 l 1,4,-1
 398 0 l 1,5,-1
 0 0 l 1,6,-1
 537 1630 l 1,7,-1
 959 1630 l 1,0,-1
562 541 m 1,8,-1
 959 541 l 1,9,-1
 759 1142 l 1,10,-1
 562 541 l 1,8,-1
EndSplineSet
Validated: 1
EndChar

StartChar: B
Encoding: 66 66 39
Width: 1510
Flags: W
HStem: 0 251<560 968.612> 718 242<560 924.818> 1380 250<560 942.467>
VStem: 161 399<251 718 960 1380> 1023 354<1044.35 1306.78> 1038 394<317.601 637.564>
LayerCount: 2
Fore
SplineSet
598 1630 m 2,0,1
 749 1630 749 1630 855.5 1619 c 128,-1,2
 962 1608 962 1608 1036 1590 c 128,-1,3
 1110 1572 1110 1572 1157 1548.5 c 128,-1,4
 1204 1525 1204 1525 1237 1501 c 0,5,6
 1309 1447 1309 1447 1343 1370 c 128,-1,7
 1377 1293 1377 1293 1377 1192 c 0,8,9
 1377 1128 1377 1128 1350 1070.5 c 128,-1,10
 1323 1013 1323 1013 1275 968 c 128,-1,11
 1227 923 1227 923 1162 893.5 c 128,-1,12
 1097 864 1097 864 1021 856 c 1,13,14
 1133 839 1133 839 1211.5 807.5 c 128,-1,15
 1290 776 1290 776 1339 729 c 128,-1,16
 1388 682 1388 682 1410 620 c 128,-1,17
 1432 558 1432 558 1432 480 c 0,18,19
 1432 352 1432 352 1385 261 c 128,-1,20
 1338 170 1338 170 1248 112 c 128,-1,21
 1158 54 1158 54 1027.5 27 c 128,-1,22
 897 0 897 0 729 0 c 2,23,-1
 525 0 l 1,24,-1
 161 0 l 1,25,-1
 161 1630 l 1,26,-1
 598 1630 l 2,0,1
672 251 m 2,27,28
 763 251 763 251 831.5 255 c 128,-1,29
 900 259 900 259 946 281 c 128,-1,30
 992 303 992 303 1015 349.5 c 128,-1,31
 1038 396 1038 396 1038 481 c 0,32,33
 1038 552 1038 552 1018 598 c 128,-1,34
 998 644 998 644 956 670.5 c 128,-1,35
 914 697 914 697 848 707.5 c 128,-1,36
 782 718 782 718 689 718 c 2,37,-1
 560 718 l 1,38,-1
 560 251 l 1,39,-1
 672 251 l 2,27,28
560 960 m 1,40,-1
 691 960 l 2,41,42
 854 960 854 960 938.5 1011.5 c 128,-1,43
 1023 1063 1023 1063 1023 1165 c 0,44,45
 1023 1220 1023 1220 1007.5 1261 c 128,-1,46
 992 1302 992 1302 954.5 1328 c 128,-1,47
 917 1354 917 1354 855.5 1367 c 128,-1,48
 794 1380 794 1380 702 1380 c 2,49,-1
 560 1380 l 1,50,-1
 560 960 l 1,40,-1
EndSplineSet
Validated: 1
EndChar

StartChar: C
Encoding: 67 67 40
Width: 1351
Flags: W
HStem: -28 287<676.482 1075.65> 1371 286<661.908 1061.97>
VStem: 93 396<488.147 1154.61>
LayerCount: 2
Fore
SplineSet
489 809 m 0,0,1
 489 531 489 531 579.5 395 c 128,-1,2
 670 259 670 259 850 259 c 0,3,4
 938 259 938 259 1023 284.5 c 128,-1,5
 1108 310 1108 310 1197 372 c 1,6,-1
 1304 92 l 1,7,8
 1274 66 1274 66 1224.5 44 c 128,-1,9
 1175 22 1175 22 1111.5 6 c 128,-1,10
 1048 -10 1048 -10 972 -19 c 128,-1,11
 896 -28 896 -28 812 -28 c 0,12,13
 645 -28 645 -28 512 28 c 128,-1,14
 379 84 379 84 286 192 c 128,-1,15
 193 300 193 300 143 458 c 128,-1,16
 93 616 93 616 93 820 c 0,17,18
 93 1028 93 1028 142.5 1185 c 128,-1,19
 192 1342 192 1342 285 1447 c 128,-1,20
 378 1552 378 1552 511 1604.5 c 128,-1,21
 644 1657 644 1657 811 1657 c 0,22,23
 869 1657 869 1657 934 1651.5 c 128,-1,24
 999 1646 999 1646 1064 1631.5 c 128,-1,25
 1129 1617 1129 1617 1191.5 1593 c 128,-1,26
 1254 1569 1254 1569 1307 1532 c 1,27,-1
 1198 1252 l 1,28,29
 1145 1286 1145 1286 1099 1309 c 128,-1,30
 1053 1332 1053 1332 1009.5 1345.5 c 128,-1,31
 966 1359 966 1359 924.5 1365 c 128,-1,32
 883 1371 883 1371 840 1371 c 0,33,34
 750 1371 750 1371 684 1339.5 c 128,-1,35
 618 1308 618 1308 574.5 1240 c 128,-1,36
 531 1172 531 1172 510 1065.5 c 128,-1,37
 489 959 489 959 489 809 c 0,0,1
EndSplineSet
Validated: 1
EndChar

StartChar: D
Encoding: 68 68 41
Width: 1597
Flags: W
HStem: 0 251<560 863> 1379 251<560 872.831>
VStem: 161 399<251 1379> 1110 400<506.85 1137.84>
LayerCount: 2
Fore
SplineSet
1110 811 m 0,0,1
 1110 897 1110 897 1103 972.5 c 128,-1,2
 1096 1048 1096 1048 1077 1111 c 128,-1,3
 1058 1174 1058 1174 1023.5 1223.5 c 128,-1,4
 989 1273 989 1273 934 1307.5 c 128,-1,5
 879 1342 879 1342 800.5 1360.5 c 128,-1,6
 722 1379 722 1379 614 1379 c 2,7,-1
 560 1379 l 1,8,-1
 560 251 l 1,9,-1
 616 251 l 2,10,11
 763 251 763 251 858.5 292 c 128,-1,12
 954 333 954 333 1010 406.5 c 128,-1,13
 1066 480 1066 480 1088 583 c 128,-1,14
 1110 686 1110 686 1110 811 c 0,0,1
1510 806 m 0,15,16
 1510 609 1510 609 1458.5 458.5 c 128,-1,17
 1407 308 1407 308 1302 206 c 128,-1,18
 1197 104 1197 104 1037 52 c 128,-1,19
 877 0 877 0 661 0 c 2,20,-1
 161 0 l 1,21,-1
 161 1630 l 1,22,-1
 663 1630 l 2,23,24
 1086 1630 1086 1630 1298 1423 c 128,-1,25
 1510 1216 1510 1216 1510 806 c 0,15,16
EndSplineSet
Validated: 1
EndChar

StartChar: E
Encoding: 69 69 42
Width: 1382
Flags: W
HStem: 0 245<559 1286> 719 245<559 1184> 1379 251<559 1277>
VStem: 161 398<245 719 964 1379>
LayerCount: 2
Fore
SplineSet
161 0 m 1,0,-1
 161 1630 l 1,1,-1
 1277 1630 l 1,2,-1
 1277 1379 l 1,3,-1
 559 1379 l 1,4,-1
 559 964 l 1,5,-1
 1184 964 l 1,6,-1
 1184 719 l 1,7,-1
 559 719 l 1,8,-1
 559 245 l 1,9,-1
 1286 245 l 1,10,-1
 1286 0 l 1,11,-1
 161 0 l 1,0,-1
EndSplineSet
Validated: 1
EndChar

StartChar: F
Encoding: 70 70 43
Width: 1349
Flags: W
HStem: 0 21G<161 559> 719 245<559 1201> 1379 251<559 1293>
VStem: 161 398<0 719 964 1379>
LayerCount: 2
Fore
SplineSet
559 0 m 1,0,-1
 161 0 l 1,1,-1
 161 1630 l 1,2,-1
 1293 1630 l 1,3,-1
 1293 1379 l 1,4,-1
 559 1379 l 1,5,-1
 559 964 l 1,6,-1
 1201 964 l 1,7,-1
 1201 719 l 1,8,-1
 559 719 l 1,9,-1
 559 0 l 1,0,-1
EndSplineSet
Validated: 1
EndChar

StartChar: G
Encoding: 71 71 44
Width: 1578
Flags: W
HStem: -28 286<670.75 1032.24> 0 21G<1199.97 1468> 674 240<754 1119> 1371 286<716.386 1118.47>
VStem: 89 398<493.687 1095.24> 1119 349<292.184 674>
LayerCount: 2
Fore
SplineSet
1119 674 m 1,0,-1
 754 674 l 1,1,-1
 754 914 l 1,2,-1
 1468 914 l 1,3,-1
 1468 0 l 1,4,-1
 1208 0 l 1,5,-1
 1159 122 l 1,6,7
 1138 83 1138 83 1100 55 c 128,-1,8
 1062 27 1062 27 1012.5 8.5 c 128,-1,9
 963 -10 963 -10 905.5 -19 c 128,-1,10
 848 -28 848 -28 787 -28 c 0,11,12
 626 -28 626 -28 497 23 c 128,-1,13
 368 74 368 74 277.5 176.5 c 128,-1,14
 187 279 187 279 138 433.5 c 128,-1,15
 89 588 89 588 89 794 c 0,16,17
 89 992 89 992 142 1151.5 c 128,-1,18
 195 1311 195 1311 297.5 1423.5 c 128,-1,19
 400 1536 400 1536 550 1596.5 c 128,-1,20
 700 1657 700 1657 894 1657 c 0,21,22
 1000 1657 1000 1657 1081.5 1643 c 128,-1,23
 1163 1629 1163 1629 1223 1608.5 c 128,-1,24
 1283 1588 1283 1588 1322.5 1566 c 128,-1,25
 1362 1544 1362 1544 1385 1528 c 1,26,-1
 1271 1263 l 1,27,28
 1226 1283 1226 1283 1179.5 1302.5 c 128,-1,29
 1133 1322 1133 1322 1086.5 1337 c 128,-1,30
 1040 1352 1040 1352 994.5 1361.5 c 128,-1,31
 949 1371 949 1371 904 1371 c 0,32,33
 805 1371 805 1371 727.5 1333 c 128,-1,34
 650 1295 650 1295 596.5 1221.5 c 128,-1,35
 543 1148 543 1148 515 1040 c 128,-1,36
 487 932 487 932 487 791 c 0,37,38
 487 682 487 682 506.5 585 c 128,-1,39
 526 488 526 488 567 415.5 c 128,-1,40
 608 343 608 343 671 300.5 c 128,-1,41
 734 258 734 258 820 258 c 256,42,43
 906 258 906 258 978.5 271 c 128,-1,44
 1051 284 1051 284 1119 304 c 1,45,-1
 1119 674 l 1,0,-1
EndSplineSet
Validated: 1
EndChar

StartChar: H
Encoding: 72 72 45
Width: 1668
Flags: W
HStem: 0 21G<161 560 1108 1507> 721 245<560 1108> 1610 20G<161 560 1108 1507>
VStem: 161 399<0 721 966 1630> 1108 399<0 721 966 1630>
LayerCount: 2
Fore
SplineSet
1108 721 m 1,0,-1
 560 721 l 1,1,-1
 560 0 l 1,2,-1
 161 0 l 1,3,-1
 161 1630 l 1,4,-1
 560 1630 l 1,5,-1
 560 966 l 1,6,-1
 1108 966 l 1,7,-1
 1108 1630 l 1,8,-1
 1507 1630 l 1,9,-1
 1507 0 l 1,10,-1
 1108 0 l 1,11,-1
 1108 721 l 1,0,-1
EndSplineSet
Validated: 1
EndChar

StartChar: I
Encoding: 73 73 46
Width: 917
Flags: W
HStem: 0 181<86 258 658 832> 1448 182<86 258 658 832>
VStem: 258 400<181 1448>
LayerCount: 2
Fore
SplineSet
258 181 m 1,0,-1
 258 1448 l 1,1,-1
 86 1448 l 1,2,-1
 86 1630 l 1,3,-1
 832 1630 l 1,4,-1
 832 1448 l 1,5,-1
 658 1448 l 1,6,-1
 658 181 l 1,7,-1
 832 181 l 1,8,-1
 832 0 l 1,9,-1
 86 0 l 1,10,-1
 86 181 l 1,11,-1
 258 181 l 1,0,-1
EndSplineSet
Validated: 1
EndChar

StartChar: J
Encoding: 74 74 47
Width: 879
Flags: W
HStem: 1610 20G<328 728>
VStem: 328 400<294.975 1630>
LayerCount: 2
Fore
SplineSet
2 171 m 1,0,1
 95 183 95 183 157.5 202.5 c 128,-1,2
 220 222 220 222 258 261 c 128,-1,3
 296 300 296 300 312 363 c 128,-1,4
 328 426 328 426 328 525 c 2,5,-1
 328 1630 l 1,6,-1
 728 1630 l 1,7,-1
 728 523 l 2,8,9
 728 361 728 361 690.5 246.5 c 128,-1,10
 653 132 653 132 575.5 58.5 c 128,-1,11
 498 -15 498 -15 380.5 -50 c 128,-1,12
 263 -85 263 -85 104 -89 c 1,13,-1
 2 171 l 1,0,1
EndSplineSet
Validated: 1
EndChar

StartChar: K
Encoding: 75 75 48
Width: 1516
Flags: W
HStem: 0 21G<161 560 1087.01 1549> 1610 20G<161 560 1063.26 1494>
VStem: 161 399<0 685 930 1630>
LayerCount: 2
Fore
SplineSet
560 0 m 1,0,-1
 161 0 l 1,1,-1
 161 1630 l 1,2,-1
 560 1630 l 1,3,-1
 560 930 l 1,4,-1
 630 930 l 1,5,-1
 1076 1630 l 1,6,-1
 1494 1630 l 1,7,-1
 945 818 l 1,8,-1
 1549 0 l 1,9,-1
 1101 0 l 1,10,-1
 622 685 l 1,11,-1
 560 685 l 1,12,-1
 560 0 l 1,0,-1
EndSplineSet
Validated: 1
EndChar

StartChar: L
Encoding: 76 76 49
Width: 1278
Flags: W
HStem: 0 251<559 1258> 1610 20G<161 559>
VStem: 161 398<251 1630>
LayerCount: 2
Fore
SplineSet
161 0 m 1,0,-1
 161 1630 l 1,1,-1
 559 1630 l 1,2,-1
 559 251 l 1,3,-1
 1258 251 l 1,4,-1
 1258 0 l 1,5,-1
 161 0 l 1,0,-1
EndSplineSet
Validated: 1
EndChar

StartChar: M
Encoding: 77 77 50
Width: 2052
Flags: W
HStem: 0 21G<161 489 836.469 1219.46 1563 1891> 1610 20G<161 627.661 1423.05 1891>
VStem: 161 328<0 1084> 1563 328<0 1084>
LayerCount: 2
Fore
SplineSet
489 1084 m 1,0,-1
 489 0 l 1,1,-1
 161 0 l 1,2,-1
 161 1630 l 1,3,-1
 621 1630 l 1,4,-1
 1017 441 l 1,5,-1
 1430 1630 l 1,6,-1
 1891 1630 l 1,7,-1
 1891 0 l 1,8,-1
 1563 0 l 1,9,-1
 1563 1084 l 1,10,-1
 1213 0 l 1,11,-1
 843 0 l 1,12,-1
 489 1084 l 1,0,-1
EndSplineSet
Validated: 1
EndChar

StartChar: N
Encoding: 78 78 51
Width: 1704
Flags: W
HStem: 0 21G<161 514 1122.48 1542> 1610 20G<161 592.491 1190 1542>
VStem: 161 353<0 1076> 1190 352<570 1630>
LayerCount: 2
Fore
SplineSet
1134 0 m 1,0,-1
 514 1076 l 1,1,-1
 514 0 l 1,2,-1
 161 0 l 1,3,-1
 161 1630 l 1,4,-1
 581 1630 l 1,5,-1
 1190 570 l 1,6,-1
 1190 1630 l 1,7,-1
 1542 1630 l 1,8,-1
 1542 0 l 1,9,-1
 1134 0 l 1,0,-1
EndSplineSet
Validated: 1
EndChar

StartChar: O
Encoding: 79 79 52
Width: 1664
Flags: W
HStem: -28 286<661.251 1001.7> 1371 286<661.426 1001.69>
VStem: 93 398<474.461 1153.52> 1174 397<476.151 1153.11>
LayerCount: 2
Fore
SplineSet
1571 814 m 256,0,1
 1571 617 1571 617 1526 461 c 128,-1,2
 1481 305 1481 305 1389.5 196.5 c 128,-1,3
 1298 88 1298 88 1159 30 c 128,-1,4
 1020 -28 1020 -28 832 -28 c 256,5,6
 644 -28 644 -28 505.5 29.5 c 128,-1,7
 367 87 367 87 275 195.5 c 128,-1,8
 183 304 183 304 138 459.5 c 128,-1,9
 93 615 93 615 93 811 c 0,10,11
 93 1010 93 1010 138.5 1167.5 c 128,-1,12
 184 1325 184 1325 276 1433.5 c 128,-1,13
 368 1542 368 1542 507 1599.5 c 128,-1,14
 646 1657 646 1657 832 1657 c 0,15,16
 1019 1657 1019 1657 1158 1599 c 128,-1,17
 1297 1541 1297 1541 1388.5 1432.5 c 128,-1,18
 1480 1324 1480 1324 1525.5 1167.5 c 128,-1,19
 1571 1011 1571 1011 1571 814 c 256,0,1
491 817 m 0,20,21
 491 704 491 704 505 602.5 c 128,-1,22
 519 501 519 501 557 424.5 c 128,-1,23
 595 348 595 348 661 303 c 128,-1,24
 727 258 727 258 832 258 c 0,25,26
 938 258 938 258 1005 304.5 c 128,-1,27
 1072 351 1072 351 1109.5 428.5 c 128,-1,28
 1147 506 1147 506 1160.5 607 c 128,-1,29
 1174 708 1174 708 1174 817 c 0,30,31
 1174 929 1174 929 1159.5 1029.5 c 128,-1,32
 1145 1130 1145 1130 1106.5 1206 c 128,-1,33
 1068 1282 1068 1282 1001.5 1326.5 c 128,-1,34
 935 1371 935 1371 831 1371 c 0,35,36
 726 1371 726 1371 660 1326 c 128,-1,37
 594 1281 594 1281 556.5 1204.5 c 128,-1,38
 519 1128 519 1128 505 1028 c 128,-1,39
 491 928 491 928 491 817 c 0,20,21
EndSplineSet
Validated: 1
EndChar

StartChar: P
Encoding: 80 80 53
Width: 1457
Flags: W
HStem: 0 21G<161 560> 562 234<560 872.204> 1380 250<560 889.358>
VStem: 161 399<0 562 796 1380> 1016 396<921.378 1260.39>
LayerCount: 2
Fore
SplineSet
1412 1081 m 1,0,1
 1412 925 1412 925 1354 824 c 128,-1,2
 1296 723 1296 723 1190.5 665 c 128,-1,3
 1085 607 1085 607 938 584.5 c 128,-1,4
 791 562 791 562 613 562 c 2,5,-1
 560 562 l 1,6,-1
 560 0 l 1,7,-1
 161 0 l 1,8,-1
 161 1630 l 1,9,-1
 641 1630 l 2,10,11
 821 1630 821 1630 963 1604.5 c 128,-1,12
 1105 1579 1105 1579 1203.5 1516 c 128,-1,13
 1302 1453 1302 1453 1355.5 1347 c 128,-1,14
 1409 1241 1409 1241 1412 1081 c 1,0,1
612 796 m 2,15,16
 695 796 695 796 768.5 808.5 c 128,-1,17
 842 821 842 821 897 853 c 128,-1,18
 952 885 952 885 984 939.5 c 128,-1,19
 1016 994 1016 994 1016 1078 c 0,20,21
 1016 1165 1016 1165 991.5 1223.5 c 128,-1,22
 967 1282 967 1282 919.5 1316.5 c 128,-1,23
 872 1351 872 1351 802.5 1365.5 c 128,-1,24
 733 1380 733 1380 642 1380 c 2,25,-1
 560 1380 l 1,26,-1
 560 796 l 1,27,-1
 612 796 l 2,15,16
EndSplineSet
Validated: 1
EndChar

StartChar: Q
Encoding: 81 81 54
Width: 1667
Flags: W
HStem: 1371 286<666.075 996.38>
VStem: 95 398<478.973 1150.72> 1174 398<476.275 1143.8>
LayerCount: 2
Fore
SplineSet
1572 817 m 0,0,1
 1572 650 1572 650 1539.5 510.5 c 128,-1,2
 1507 371 1507 371 1440 265.5 c 128,-1,3
 1373 160 1373 160 1272 90 c 128,-1,4
 1171 20 1171 20 1033 -8 c 1,5,-1
 1322 -236 l 1,6,-1
 1136 -434 l 1,7,-1
 669 -14 l 1,8,9
 525 9 525 9 417 75.5 c 128,-1,10
 309 142 309 142 237.5 248 c 128,-1,11
 166 354 166 354 130.5 496.5 c 128,-1,12
 95 639 95 639 95 815 c 0,13,14
 95 1017 95 1017 141.5 1173.5 c 128,-1,15
 188 1330 188 1330 280.5 1437.5 c 128,-1,16
 373 1545 373 1545 511.5 1601 c 128,-1,17
 650 1657 650 1657 835 1657 c 0,18,19
 1022 1657 1022 1657 1160.5 1599 c 128,-1,20
 1299 1541 1299 1541 1390.5 1432 c 128,-1,21
 1482 1323 1482 1323 1527 1167.5 c 128,-1,22
 1572 1012 1572 1012 1572 817 c 0,0,1
833 1371 m 0,23,24
 733 1371 733 1371 667.5 1328 c 128,-1,25
 602 1285 602 1285 563 1210 c 128,-1,26
 524 1135 524 1135 508.5 1033.5 c 128,-1,27
 493 932 493 932 493 816 c 0,28,29
 493 705 493 705 507.5 604 c 128,-1,30
 522 503 522 503 560 426 c 128,-1,31
 598 349 598 349 664 303.5 c 128,-1,32
 730 258 730 258 833 258 c 0,33,34
 934 258 934 258 1000 301 c 128,-1,35
 1066 344 1066 344 1104.5 419 c 128,-1,36
 1143 494 1143 494 1158.5 596 c 128,-1,37
 1174 698 1174 698 1174 816 c 0,38,39
 1174 877 1174 877 1169 942 c 128,-1,40
 1164 1007 1164 1007 1150.5 1068.5 c 128,-1,41
 1137 1130 1137 1130 1113.5 1185 c 128,-1,42
 1090 1240 1090 1240 1052 1281.5 c 128,-1,43
 1014 1323 1014 1323 960 1347 c 128,-1,44
 906 1371 906 1371 833 1371 c 0,23,24
EndSplineSet
Validated: 1
EndChar

StartChar: R
Encoding: 82 82 55
Width: 1556
Flags: W
HStem: 0 21G<161 560 1045 1439> 692 240<560 921.822> 1380 250<560 945.85>
VStem: 161 399<0 692 932 1380> 1029 397<1023.62 1306.4> 1045 394<0 584.972>
LayerCount: 2
Fore
SplineSet
578 932 m 2,0,1
 689 932 689 932 773.5 940 c 128,-1,2
 858 948 858 948 914.5 973 c 128,-1,3
 971 998 971 998 1000 1043.5 c 128,-1,4
 1029 1089 1029 1089 1029 1163 c 0,5,6
 1029 1229 1029 1229 1009 1271 c 128,-1,7
 989 1313 989 1313 943 1337 c 128,-1,8
 897 1361 897 1361 821.5 1370.5 c 128,-1,9
 746 1380 746 1380 635 1380 c 2,10,-1
 560 1380 l 1,11,-1
 560 932 l 1,12,-1
 578 932 l 2,0,1
938 811 m 1,13,14
 1046 800 1046 800 1138 774.5 c 128,-1,15
 1230 749 1230 749 1296.5 701 c 128,-1,16
 1363 653 1363 653 1401 578 c 128,-1,17
 1439 503 1439 503 1439 393 c 2,18,-1
 1439 0 l 1,19,-1
 1045 0 l 1,20,-1
 1045 420 l 2,21,22
 1045 498 1045 498 1021 550.5 c 128,-1,23
 997 603 997 603 950 634.5 c 128,-1,24
 903 666 903 666 834 679 c 128,-1,25
 765 692 765 692 675 692 c 2,26,-1
 560 692 l 1,27,-1
 560 0 l 1,28,-1
 161 0 l 1,29,-1
 161 1630 l 1,30,-1
 589 1630 l 2,31,32
 757 1630 757 1630 884.5 1618 c 128,-1,33
 1012 1606 1012 1606 1105 1582 c 128,-1,34
 1198 1558 1198 1558 1259.5 1522.5 c 128,-1,35
 1321 1487 1321 1487 1358 1440.5 c 128,-1,36
 1395 1394 1395 1394 1410.5 1336 c 128,-1,37
 1426 1278 1426 1278 1426 1210 c 0,38,39
 1426 1102 1426 1102 1390 1028.5 c 128,-1,40
 1354 955 1354 955 1289 909 c 128,-1,41
 1224 863 1224 863 1134.5 840.5 c 128,-1,42
 1045 818 1045 818 938 811 c 1,13,14
EndSplineSet
Validated: 1
EndChar

StartChar: S
Encoding: 83 83 56
Width: 1375
Flags: W
HStem: -28 285<484.692 891.928> 1371 286<504.686 1001.46>
VStem: 90 360<1136.73 1318.94> 940 368<294.062 522.089>
LayerCount: 2
Fore
SplineSet
1308 464 m 0,0,1
 1308 226 1308 226 1154.5 99 c 128,-1,2
 1001 -28 1001 -28 703 -28 c 0,3,4
 575 -28 575 -28 467.5 -3.5 c 128,-1,5
 360 21 360 21 280 51 c 0,6,7
 187 85 187 85 110 130 c 1,8,-1
 194 407 l 1,9,10
 194 407 194 407 221 396 c 0,11,12
 248 384 248 384 291.5 367.5 c 128,-1,13
 335 351 335 351 391.5 331.5 c 128,-1,14
 448 312 448 312 507 295.5 c 128,-1,15
 566 279 566 279 622.5 268 c 128,-1,16
 679 257 679 257 725 257 c 0,17,18
 834 257 834 257 887 288 c 128,-1,19
 940 319 940 319 940 396 c 0,20,21
 940 426 940 426 933.5 452 c 128,-1,22
 927 478 927 478 912 501 c 128,-1,23
 897 524 897 524 871.5 543 c 128,-1,24
 846 562 846 562 807 579 c 2,25,-1
 393 754 l 2,26,27
 242 817 242 817 166 927.5 c 128,-1,28
 90 1038 90 1038 90 1194 c 0,29,30
 90 1274 90 1274 115 1339.5 c 128,-1,31
 140 1405 140 1405 183.5 1456.5 c 128,-1,32
 227 1508 227 1508 285.5 1545.5 c 128,-1,33
 344 1583 344 1583 411.5 1608 c 128,-1,34
 479 1633 479 1633 552 1645 c 128,-1,35
 625 1657 625 1657 697 1657 c 0,36,37
 779 1657 779 1657 853 1647 c 128,-1,38
 927 1637 927 1637 990 1621.5 c 128,-1,39
 1053 1606 1053 1606 1103.5 1588 c 128,-1,40
 1154 1570 1154 1570 1189.5 1554.5 c 128,-1,41
 1225 1539 1225 1539 1244 1529 c 2,42,-1
 1262 1519 l 1,43,-1
 1170 1260 l 1,44,-1
 1152 1268 l 2,45,46
 1135 1276 1135 1276 1105 1288.5 c 128,-1,47
 1075 1301 1075 1301 1033.5 1315.5 c 128,-1,48
 992 1330 992 1330 944 1342.5 c 128,-1,49
 896 1355 896 1355 843 1363 c 128,-1,50
 790 1371 790 1371 737 1371 c 0,51,52
 692 1371 692 1371 641.5 1367 c 128,-1,53
 591 1363 591 1363 548.5 1348 c 128,-1,54
 506 1333 506 1333 478 1304 c 128,-1,55
 450 1275 450 1275 450 1225 c 0,56,57
 450 1213 450 1213 451.5 1198.5 c 128,-1,58
 453 1184 453 1184 464 1167.5 c 128,-1,59
 475 1151 475 1151 499 1133 c 128,-1,60
 523 1115 523 1115 568 1097 c 2,61,-1
 940 947 l 2,62,63
 1027 912 1027 912 1095.5 866 c 128,-1,64
 1164 820 1164 820 1211.5 761 c 128,-1,65
 1259 702 1259 702 1283.5 628.5 c 128,-1,66
 1308 555 1308 555 1308 464 c 0,0,1
EndSplineSet
Validated: 1
EndChar

StartChar: T
Encoding: 84 84 57
Width: 1278
Flags: W
HStem: 0 21G<443 842> 1379 251<26 443 842 1252>
VStem: 443 399<0 1379>
LayerCount: 2
Fore
SplineSet
842 1379 m 1,0,-1
 842 0 l 1,1,-1
 443 0 l 1,2,-1
 443 1379 l 1,3,-1
 26 1379 l 1,4,-1
 26 1630 l 1,5,-1
 1252 1630 l 1,6,-1
 1252 1379 l 1,7,-1
 842 1379 l 1,0,-1
EndSplineSet
Validated: 1
EndChar

StartChar: U
Encoding: 85 85 58
Width: 1645
Flags: W
HStem: -28 286<648.366 996.083> 1610 20G<149 548 1098 1496>
VStem: 149 399<385.065 1630> 1098 398<380.931 1630>
LayerCount: 2
Fore
SplineSet
823 258 m 0,0,1
 893 258 893 258 941 274.5 c 128,-1,2
 989 291 989 291 1019.5 321.5 c 128,-1,3
 1050 352 1050 352 1066 395.5 c 128,-1,4
 1082 439 1082 439 1089 493 c 128,-1,5
 1096 547 1096 547 1097 610.5 c 128,-1,6
 1098 674 1098 674 1098 744 c 2,7,-1
 1098 1630 l 1,8,-1
 1496 1630 l 1,9,-1
 1496 748 l 2,10,11
 1496 553 1496 553 1458.5 407.5 c 128,-1,12
 1421 262 1421 262 1340 165.5 c 128,-1,13
 1259 69 1259 69 1131 20.5 c 128,-1,14
 1003 -28 1003 -28 822 -28 c 0,15,16
 642 -28 642 -28 514.5 20.5 c 128,-1,17
 387 69 387 69 306 165.5 c 128,-1,18
 225 262 225 262 187 407.5 c 128,-1,19
 149 553 149 553 149 748 c 2,20,-1
 149 1630 l 1,21,-1
 548 1630 l 1,22,-1
 548 744 l 2,23,24
 548 674 548 674 548.5 611 c 128,-1,25
 549 548 549 548 555.5 494 c 128,-1,26
 562 440 562 440 578 396 c 128,-1,27
 594 352 594 352 624.5 321.5 c 128,-1,28
 655 291 655 291 703 274.5 c 128,-1,29
 751 258 751 258 823 258 c 0,0,1
EndSplineSet
Validated: 1
EndChar

StartChar: V
Encoding: 86 86 59
Width: 1404
Flags: W
HStem: 0 21G<500.791 903.221> 1610 20G<1 378.215 1022.04 1404>
LayerCount: 2
Fore
SplineSet
707 552 m 1,0,-1
 1028 1630 l 1,1,-1
 1404 1630 l 1,2,-1
 897 0 l 1,3,-1
 507 0 l 1,4,-1
 1 1630 l 1,5,-1
 372 1630 l 1,6,-1
 707 552 l 1,0,-1
EndSplineSet
Validated: 1
EndChar

StartChar: W
Encoding: 87 87 60
Width: 2138
Flags: W
HStem: 0 22G<397.73 836.809 1303.12 1738.3> 1610 20G<54 443.785 856.391 1281.61 1695.2 2084>
LayerCount: 2
Fore
SplineSet
1278 1630 m 1,0,-1
 1483 494 l 1,1,-1
 1699 1630 l 1,2,-1
 2084 1630 l 1,3,-1
 1734 1 l 1,4,-1
 1307 1 l 1,5,-1
 1068 1234 l 1,6,-1
 833 0 l 1,7,-1
 402 0 l 1,8,-1
 54 1630 l 1,9,-1
 440 1630 l 1,10,-1
 655 494 l 1,11,-1
 860 1630 l 1,12,-1
 1278 1630 l 1,0,-1
EndSplineSet
Validated: 1
EndChar

StartChar: X
Encoding: 88 88 61
Width: 1456
Flags: W
HStem: 0 21G<8 441.032 1014.01 1448> 1610 20G<8 433.93 1022.07 1448>
LayerCount: 2
Fore
SplineSet
1034 1630 m 1,0,-1
 1448 1630 l 1,1,-1
 951 825 l 1,2,-1
 1448 0 l 1,3,-1
 1026 0 l 1,4,-1
 728 497 l 1,5,-1
 429 0 l 1,6,-1
 8 0 l 1,7,-1
 505 825 l 1,8,-1
 8 1630 l 1,9,-1
 422 1630 l 1,10,-1
 728 1117 l 1,11,-1
 1034 1630 l 1,0,-1
EndSplineSet
Validated: 1
EndChar

StartChar: Y
Encoding: 89 89 62
Width: 1384
Flags: W
HStem: 0 21G<502 878> 1610 20G<-17 389.183 990.758 1404>
VStem: 502 376<0 539>
LayerCount: 2
Fore
SplineSet
1000 1630 m 1,0,-1
 1404 1630 l 1,1,-1
 878 539 l 1,2,-1
 878 0 l 1,3,-1
 502 0 l 1,4,-1
 502 539 l 1,5,-1
 -17 1630 l 1,6,-1
 380 1630 l 1,7,-1
 689 957 l 1,8,-1
 1000 1630 l 1,0,-1
EndSplineSet
Validated: 1
EndChar

StartChar: Z
Encoding: 90 90 63
Width: 1333
Flags: W
HStem: 0 251<539 1245> 1379 251<91 804>
LayerCount: 2
Fore
SplineSet
1243 1393 m 1,0,-1
 539 251 l 1,1,-1
 1245 251 l 1,2,-1
 1245 0 l 1,3,-1
 91 0 l 1,4,-1
 91 243 l 1,5,-1
 804 1379 l 1,6,-1
 91 1379 l 1,7,-1
 91 1630 l 1,8,-1
 1243 1630 l 1,9,-1
 1243 1393 l 1,0,-1
EndSplineSet
Validated: 1
EndChar

StartChar: bracketleft
Encoding: 91 91 64
Width: 1031
Flags: W
HStem: 0 251<515 941> 1380 250<515 941>
VStem: 158 357<251 1380>
LayerCount: 2
Fore
SplineSet
941 1630 m 1,0,-1
 941 1380 l 1,1,-1
 515 1380 l 1,2,-1
 515 251 l 1,3,-1
 941 251 l 1,4,-1
 941 0 l 1,5,-1
 158 0 l 1,6,-1
 158 1630 l 1,7,-1
 941 1630 l 1,0,-1
EndSplineSet
Validated: 1
EndChar

StartChar: backslash
Encoding: 92 92 65
Width: 1042
Flags: W
LayerCount: 2
Fore
SplineSet
989 -33 m 1,0,-1
 642 -149 l 1,1,-1
 56 1620 l 1,2,-1
 405 1735 l 1,3,-1
 989 -33 l 1,0,-1
EndSplineSet
Validated: 1
EndChar

StartChar: bracketright
Encoding: 93 93 66
Width: 1033
Flags: W
HStem: 0 251<91 515> 1379 251<91 515>
VStem: 515 359<251 1379>
LayerCount: 2
Fore
SplineSet
874 1630 m 1,0,-1
 874 0 l 1,1,-1
 91 0 l 1,2,-1
 91 251 l 1,3,-1
 515 251 l 1,4,-1
 515 1379 l 1,5,-1
 91 1379 l 1,6,-1
 91 1630 l 1,7,-1
 874 1630 l 1,0,-1
EndSplineSet
Validated: 1
EndChar

StartChar: asciicircum
Encoding: 94 94 67
Width: 1250
Flags: W
HStem: 587 651
LayerCount: 2
Fore
SplineSet
763 1238 m 1,0,-1
 1026 595 l 1,1,-1
 729 595 l 1,2,-1
 623 992 l 1,3,-1
 517 587 l 1,4,-1
 222 587 l 1,5,-1
 486 1238 l 1,6,-1
 763 1238 l 1,0,-1
EndSplineSet
Validated: 1
EndChar

StartChar: underscore
Encoding: 95 95 68
Width: 1300
Flags: W
HStem: -100 283<133 1168>
LayerCount: 2
Fore
SplineSet
133 -100 m 1,0,-1
 133 183 l 1,1,-1
 1168 183 l 1,2,-1
 1168 -100 l 1,3,-1
 133 -100 l 1,0,-1
EndSplineSet
Validated: 1
EndChar

StartChar: grave
Encoding: 96 96 69
Width: 899
Flags: W
VStem: 90 544
LayerCount: 2
Fore
SplineSet
90 675 m 1,0,-1
 419 830 l 1,1,-1
 634 198 l 1,2,-1
 463 116 l 1,3,-1
 90 675 l 1,0,-1
EndSplineSet
Validated: 1
EndChar

StartChar: a
Encoding: 97 97 70
Width: 1261
Flags: W
HStem: -27 254<478.453 667.422> 0 21G<834.289 1134> 560 195<478.504 759> 985 251<336.106 715.671>
VStem: 60 378<271.879 517.997> 759 375<277.11 557 746 940.305>
LayerCount: 2
Fore
SplineSet
610 985 m 0,0,1
 501 985 501 985 409.5 962 c 128,-1,2
 318 939 318 939 225 896 c 1,3,-1
 137 1119 l 1,4,5
 230 1177 230 1177 352.5 1206.5 c 128,-1,6
 475 1236 475 1236 623 1236 c 0,7,8
 758 1236 758 1236 854.5 1201.5 c 128,-1,9
 951 1167 951 1167 1013 1099 c 128,-1,10
 1075 1031 1075 1031 1104.5 931 c 128,-1,11
 1134 831 1134 831 1134 701 c 2,12,-1
 1134 0 l 1,13,-1
 841 0 l 1,14,-1
 790 152 l 1,15,16
 762 104 762 104 731 70.5 c 128,-1,17
 700 37 700 37 663 15 c 128,-1,18
 626 -7 626 -7 581.5 -17 c 128,-1,19
 537 -27 537 -27 482 -27 c 0,20,21
 383 -27 383 -27 305 -1 c 128,-1,22
 227 25 227 25 172.5 76 c 128,-1,23
 118 127 118 127 89 202 c 128,-1,24
 60 277 60 277 60 375 c 0,25,26
 60 474 60 474 98.5 545.5 c 128,-1,27
 137 617 137 617 211 663.5 c 128,-1,28
 285 710 285 710 393 732.5 c 128,-1,29
 501 755 501 755 641 755 c 0,30,31
 670 755 670 755 699.5 753 c 128,-1,32
 729 751 729 751 759 746 c 1,33,34
 759 786 759 786 755.5 828 c 128,-1,35
 752 870 752 870 737.5 905 c 128,-1,36
 723 940 723 940 693 962.5 c 128,-1,37
 663 985 663 985 610 985 c 0,0,1
581 227 m 0,38,39
 687 227 687 227 759 324 c 1,40,-1
 759 554 l 1,41,42
 726 556 726 556 702 558 c 128,-1,43
 678 560 678 560 674 560 c 0,44,45
 602 560 602 560 556 549.5 c 128,-1,46
 510 539 510 539 484 519.5 c 128,-1,47
 458 500 458 500 448 471.5 c 128,-1,48
 438 443 438 443 438 407 c 0,49,50
 438 324 438 324 474.5 275.5 c 128,-1,51
 511 227 511 227 581 227 c 0,38,39
EndSplineSet
Validated: 1
EndChar

StartChar: b
Encoding: 98 98 71
Width: 1371
Flags: W
HStem: -27 254<597.911 821.241> 0 21G<136 408.765> 985 251<631.38 848.641> 1773 20G<362.8 514>
VStem: 136 378<267.875 918.648 1098 1743> 907 380<329.238 915.394>
LayerCount: 2
Fore
SplineSet
707 227 m 0,0,1
 756 227 756 227 793.5 249 c 128,-1,2
 831 271 831 271 856.5 317 c 128,-1,3
 882 363 882 363 894.5 434 c 128,-1,4
 907 505 907 505 907 603 c 0,5,6
 907 717 907 717 897.5 791 c 128,-1,7
 888 865 888 865 868 908 c 128,-1,8
 848 951 848 951 817 968 c 128,-1,9
 786 985 786 985 742 985 c 0,10,11
 685 985 685 985 629.5 961.5 c 128,-1,12
 574 938 574 938 514 880 c 1,13,-1
 514 308 l 1,14,15
 557 260 557 260 604 243.5 c 128,-1,16
 651 227 651 227 707 227 c 0,0,1
800 -27 m 0,17,18
 537 -27 537 -27 482 170 c 1,19,-1
 399 0 l 1,20,-1
 136 0 l 1,21,-1
 136 1743 l 1,22,-1
 514 1793 l 1,23,-1
 514 1098 l 1,24,25
 574 1167 574 1167 653.5 1201.5 c 128,-1,26
 733 1236 733 1236 839 1236 c 256,27,28
 945 1236 945 1236 1028.5 1190 c 128,-1,29
 1112 1144 1112 1144 1169.5 1062 c 128,-1,30
 1227 980 1227 980 1257 867 c 128,-1,31
 1287 754 1287 754 1287 620 c 0,32,33
 1287 465 1287 465 1258 344.5 c 128,-1,34
 1229 224 1229 224 1169 141.5 c 128,-1,35
 1109 59 1109 59 1017.5 16 c 128,-1,36
 926 -27 926 -27 800 -27 c 0,17,18
EndSplineSet
Validated: 1
EndChar

StartChar: c
Encoding: 99 99 72
Width: 1132
Flags: W
HStem: -27 254<584.283 937.214> 985 251<575.33 926.073>
VStem: 72 381<370.875 847.554>
LayerCount: 2
Fore
SplineSet
690 -27 m 0,0,1
 564 -27 564 -27 469 2 c 128,-1,2
 374 31 374 31 305.5 79.5 c 128,-1,3
 237 128 237 128 192 191.5 c 128,-1,4
 147 255 147 255 120 323.5 c 128,-1,5
 93 392 93 392 82.5 461 c 128,-1,6
 72 530 72 530 72 590 c 0,7,8
 72 728 72 728 114.5 846 c 128,-1,9
 157 964 157 964 237 1051 c 128,-1,10
 317 1138 317 1138 432 1187 c 128,-1,11
 547 1236 547 1236 693 1236 c 0,12,13
 773 1236 773 1236 834.5 1226.5 c 128,-1,14
 896 1217 896 1217 942.5 1202 c 128,-1,15
 989 1187 989 1187 1021.5 1169 c 128,-1,16
 1054 1151 1054 1151 1076 1135 c 1,17,-1
 1008 893 l 1,18,19
 986 908 986 908 958 924 c 128,-1,20
 930 940 930 940 895.5 953.5 c 128,-1,21
 861 967 861 967 818.5 976 c 128,-1,22
 776 985 776 985 726 985 c 0,23,24
 665 985 665 985 614.5 964 c 128,-1,25
 564 943 564 943 528 897.5 c 128,-1,26
 492 852 492 852 472.5 780.5 c 128,-1,27
 453 709 453 709 453 607 c 0,28,29
 453 416 453 416 528 321.5 c 128,-1,30
 603 227 603 227 760 227 c 0,31,32
 832 227 832 227 897 253.5 c 128,-1,33
 962 280 962 280 1007 315 c 1,34,-1
 1075 74 l 1,35,36
 1051 56 1051 56 1016 38 c 128,-1,37
 981 20 981 20 934 5.5 c 128,-1,38
 887 -9 887 -9 826.5 -18 c 128,-1,39
 766 -27 766 -27 690 -27 c 0,0,1
EndSplineSet
Validated: 1
EndChar

StartChar: d
Encoding: 100 100 73
Width: 1371
Flags: W
HStem: -27 254<546.537 745.589> 0 21G<959.235 1235> 985 251<524.285 733.388> 1774 20G<1086.76 1235>
VStem: 82 379<329.205 911.53> 857 378<264.087 916.492 1082 1743>
LayerCount: 2
Fore
SplineSet
461 606 m 0,0,1
 461 419 461 419 509 323 c 128,-1,2
 557 227 557 227 660 227 c 0,3,4
 733 227 733 227 781 247 c 128,-1,5
 829 267 829 267 857 308 c 1,6,-1
 857 880 l 1,7,8
 797 934 797 934 739.5 959.5 c 128,-1,9
 682 985 682 985 626 985 c 0,10,11
 579 985 579 985 547 962 c 128,-1,12
 515 939 515 939 496 891.5 c 128,-1,13
 477 844 477 844 469 773 c 128,-1,14
 461 702 461 702 461 606 c 0,0,1
545 1236 m 0,15,16
 745 1236 745 1236 857 1082 c 1,17,-1
 857 1743 l 1,18,-1
 1235 1794 l 1,19,-1
 1235 0 l 1,20,-1
 969 0 l 1,21,-1
 886 170 l 1,22,23
 873 126 873 126 841 90 c 128,-1,24
 809 54 809 54 764.5 28 c 128,-1,25
 720 2 720 2 668.5 -12.5 c 128,-1,26
 617 -27 617 -27 565 -27 c 0,27,28
 466 -27 466 -27 391.5 1.5 c 128,-1,29
 317 30 317 30 263.5 79 c 128,-1,30
 210 128 210 128 175 193.5 c 128,-1,31
 140 259 140 259 119.5 334 c 128,-1,32
 99 409 99 409 90.5 489 c 128,-1,33
 82 569 82 569 82 646 c 0,34,35
 82 767 82 767 113.5 874.5 c 128,-1,36
 145 982 145 982 204 1062 c 128,-1,37
 263 1142 263 1142 349 1189 c 128,-1,38
 435 1236 435 1236 545 1236 c 0,15,16
EndSplineSet
Validated: 1
EndChar

StartChar: e
Encoding: 101 101 74
Width: 1249
Flags: W
HStem: -27 254<583.051 961.664> 985 251<552.83 795.46>
VStem: 76 389<349.042 512 697 865.152>
LayerCount: 2
Fore
SplineSet
1115 69 m 1,0,1
 1016 20 1016 20 918 -3.5 c 128,-1,2
 820 -27 820 -27 711 -27 c 0,3,4
 568 -27 568 -27 451 12 c 128,-1,5
 334 51 334 51 251 126 c 128,-1,6
 168 201 168 201 122 310.5 c 128,-1,7
 76 420 76 420 76 560 c 0,8,9
 76 723 76 723 115.5 849.5 c 128,-1,10
 155 976 155 976 231.5 1061.5 c 128,-1,11
 308 1147 308 1147 420 1191.5 c 128,-1,12
 532 1236 532 1236 678 1236 c 0,13,14
 799 1236 799 1236 891.5 1195 c 128,-1,15
 984 1154 984 1154 1047 1081 c 128,-1,16
 1110 1008 1110 1008 1142.5 907 c 128,-1,17
 1175 806 1175 806 1175 686 c 0,18,19
 1175 643 1175 643 1175 599.5 c 128,-1,20
 1175 556 1175 556 1176 512 c 1,21,-1
 465 512 l 1,22,23
 467 449 467 449 486.5 396.5 c 128,-1,24
 506 344 506 344 541.5 306.5 c 128,-1,25
 577 269 577 269 627.5 248 c 128,-1,26
 678 227 678 227 741 227 c 0,27,28
 831 227 831 227 905.5 250 c 128,-1,29
 980 273 980 273 1046 321 c 1,30,-1
 1115 69 l 1,0,1
870 694 m 2,31,32
 870 843 870 843 821.5 912 c 128,-1,33
 773 981 773 981 669 985 c 1,34,35
 615 981 615 981 576 957 c 128,-1,36
 537 933 537 933 512 894.5 c 128,-1,37
 487 856 487 856 475.5 805 c 128,-1,38
 464 754 464 754 464 697 c 1,39,-1
 870 697 l 1,40,-1
 870 694 l 2,31,32
EndSplineSet
Validated: 5
EndChar

StartChar: f
Encoding: 102 102 75
Width: 907
Flags: W
HStem: 0 21G<224 602> 1044 155<28 224 603 885> 1475 280<647.091 885.87>
VStem: 224 378<0 1044 1199 1429.47>
LayerCount: 2
Fore
SplineSet
743 1475 m 0,0,1
 710 1475 710 1475 684 1462.5 c 128,-1,2
 658 1450 658 1450 640 1419 c 128,-1,3
 622 1388 622 1388 612.5 1334.5 c 128,-1,4
 603 1281 603 1281 603 1199 c 1,5,-1
 885 1199 l 1,6,-1
 885 1044 l 1,7,-1
 602 1044 l 1,8,-1
 602 0 l 1,9,-1
 224 0 l 1,10,-1
 224 1044 l 1,11,-1
 28 1044 l 1,12,-1
 28 1199 l 1,13,-1
 224 1199 l 1,14,15
 224 1332 224 1332 249.5 1436 c 128,-1,16
 275 1540 275 1540 327.5 1610.5 c 128,-1,17
 380 1681 380 1681 461.5 1718 c 128,-1,18
 543 1755 543 1755 654 1755 c 0,19,20
 739 1755 739 1755 795 1746 c 128,-1,21
 851 1737 851 1737 887 1730 c 1,22,-1
 893 1453 l 1,23,24
 857 1459 857 1459 818 1467 c 128,-1,25
 779 1475 779 1475 743 1475 c 0,0,1
EndSplineSet
Validated: 1
EndChar

StartChar: g
Encoding: 103 103 76
Width: 1354
Flags: W
HStem: -591 274<406.083 877.988> 984 252<510.372 795.461 1084.24 1340>
VStem: 76 298<-283.219 -85.9594> 137 337<670.445 946.558> 838 311<704.57 944.398> 943 331<-262.38 -65.0189>
LayerCount: 2
Fore
SplineSet
598 -317 m 0,0,1
 715 -317 715 -317 784 -304.5 c 128,-1,2
 853 -292 853 -292 888 -269.5 c 128,-1,3
 923 -247 923 -247 933 -216 c 128,-1,4
 943 -185 943 -185 943 -147 c 0,5,6
 943 -104 943 -104 928 -78 c 128,-1,7
 913 -52 913 -52 869.5 -35 c 128,-1,8
 826 -18 826 -18 748 -6 c 128,-1,9
 670 6 670 6 544 20 c 1,10,11
 519 12 519 12 489 -12 c 128,-1,12
 459 -36 459 -36 433.5 -66.5 c 128,-1,13
 408 -97 408 -97 391 -130 c 128,-1,14
 374 -163 374 -163 374 -189 c 0,15,16
 374 -237 374 -237 396 -263 c 128,-1,17
 418 -289 418 -289 451.5 -301 c 128,-1,18
 485 -313 485 -313 524.5 -315 c 128,-1,19
 564 -317 564 -317 598 -317 c 0,0,1
700 637 m 2,20,21
 721 639 721 639 745 656.5 c 128,-1,22
 769 674 769 674 790 700.5 c 128,-1,23
 811 727 811 727 824.5 760 c 128,-1,24
 838 793 838 793 838 825 c 0,25,26
 838 907 838 907 794 945.5 c 128,-1,27
 750 984 750 984 660 984 c 0,28,29
 612 984 612 984 576.5 975.5 c 128,-1,30
 541 967 541 967 518.5 947.5 c 128,-1,31
 496 928 496 928 485 895.5 c 128,-1,32
 474 863 474 863 474 814 c 0,33,34
 474 754 474 754 496 705.5 c 128,-1,35
 518 657 518 657 572 628 c 1,36,-1
 700 637 l 2,20,21
1084 994 m 1,37,38
 1149 895 1149 895 1149 840 c 0,39,40
 1149 799 1149 799 1141.5 755 c 128,-1,41
 1134 711 1134 711 1115 668 c 128,-1,42
 1096 625 1096 625 1064.5 585.5 c 128,-1,43
 1033 546 1033 546 985.5 514 c 128,-1,44
 938 482 938 482 873 460 c 128,-1,45
 808 438 808 438 722 430 c 2,46,-1
 413 404 l 1,47,-1
 431 282 l 1,48,-1
 706 260 l 1,49,50
 848 247 848 247 954.5 217.5 c 128,-1,51
 1061 188 1061 188 1132 138 c 128,-1,52
 1203 88 1203 88 1238.5 15 c 128,-1,53
 1274 -58 1274 -58 1274 -157 c 0,54,55
 1274 -369 1274 -369 1109.5 -480 c 128,-1,56
 945 -591 945 -591 608 -591 c 0,57,58
 461 -591 461 -591 359.5 -570 c 128,-1,59
 258 -549 258 -549 195 -504 c 128,-1,60
 132 -459 132 -459 104 -389 c 128,-1,61
 76 -319 76 -319 76 -222 c 0,62,63
 76 -178 76 -178 91.5 -136 c 128,-1,64
 107 -94 107 -94 135.5 -55.5 c 128,-1,65
 164 -17 164 -17 203.5 16.5 c 128,-1,66
 243 50 243 50 291 76 c 1,67,68
 197 84 197 84 150.5 146 c 128,-1,69
 104 208 104 208 104 319 c 0,70,71
 104 373 104 373 118.5 411 c 128,-1,72
 133 449 133 449 165 477.5 c 128,-1,73
 197 506 197 506 249.5 527.5 c 128,-1,74
 302 549 302 549 379 568 c 1,75,76
 325 569 325 569 280.5 584.5 c 128,-1,77
 236 600 236 600 204 631 c 128,-1,78
 172 662 172 662 154.5 707 c 128,-1,79
 137 752 137 752 137 811 c 0,80,81
 137 910 137 910 171.5 989 c 128,-1,82
 206 1068 206 1068 269.5 1123 c 128,-1,83
 333 1178 333 1178 422.5 1207 c 128,-1,84
 512 1236 512 1236 622 1236 c 0,85,86
 734 1236 734 1236 813.5 1220.5 c 128,-1,87
 893 1205 893 1205 942 1176 c 1,88,89
 1020 1211 1020 1211 1105.5 1223.5 c 128,-1,90
 1191 1236 1191 1236 1286 1236 c 2,91,-1
 1340 1236 l 1,92,-1
 1340 994 l 1,93,-1
 1084 994 l 1,37,38
EndSplineSet
Validated: 1
EndChar

StartChar: h
Encoding: 104 104 77
Width: 1385
Flags: W
HStem: 0 21G<136 513 880 1258> 985 251<626.336 829>
VStem: 136 377<0 951.687 1099 1732> 880 378<0 923.13>
LayerCount: 2
Fore
SplineSet
513 1099 m 1,0,1
 535 1130 535 1130 568.5 1155.5 c 128,-1,2
 602 1181 602 1181 642.5 1199 c 128,-1,3
 683 1217 683 1217 730.5 1226.5 c 128,-1,4
 778 1236 778 1236 829 1236 c 0,5,6
 931 1236 931 1236 1011 1204 c 128,-1,7
 1091 1172 1091 1172 1145.5 1111 c 128,-1,8
 1200 1050 1200 1050 1229 960.5 c 128,-1,9
 1258 871 1258 871 1258 757 c 2,10,-1
 1258 0 l 1,11,-1
 880 0 l 1,12,-1
 880 784 l 2,13,14
 880 830 880 830 866 867.5 c 128,-1,15
 852 905 852 905 829.5 931 c 128,-1,16
 807 957 807 957 777.5 971 c 128,-1,17
 748 985 748 985 718 985 c 0,18,19
 665 985 665 985 633.5 980 c 128,-1,20
 602 975 602 975 581.5 965.5 c 128,-1,21
 561 956 561 956 546.5 942.5 c 128,-1,22
 532 929 532 929 513 913 c 1,23,-1
 513 0 l 1,24,-1
 136 0 l 1,25,-1
 136 1732 l 1,26,-1
 513 1796 l 1,27,-1
 513 1099 l 1,0,1
EndSplineSet
Validated: 1
EndChar

StartChar: i
Encoding: 105 105 78
Width: 649
Flags: W
HStem: 0 21G<136 513> 1178 20G<136 513> 1466 417<194.706 453.988>
VStem: 116 419<1545.45 1802.51> 136 377<0 1198 1522.4 1826.01>
LayerCount: 2
Fore
SplineSet
136 0 m 1,0,-1
 136 1198 l 1,1,-1
 513 1198 l 1,2,-1
 513 0 l 1,3,-1
 136 0 l 1,0,-1
116 1674 m 256,4,5
 116 1718 116 1718 132 1756 c 128,-1,6
 148 1794 148 1794 176.5 1822.5 c 128,-1,7
 205 1851 205 1851 242.5 1867 c 128,-1,8
 280 1883 280 1883 324 1883 c 0,9,10
 367 1883 367 1883 405 1867 c 128,-1,11
 443 1851 443 1851 472 1823 c 128,-1,12
 501 1795 501 1795 518 1756.5 c 128,-1,13
 535 1718 535 1718 535 1674 c 0,14,15
 535 1629 535 1629 518 1591 c 128,-1,16
 501 1553 501 1553 471.5 1525 c 128,-1,17
 442 1497 442 1497 404 1481.5 c 128,-1,18
 366 1466 366 1466 324 1466 c 0,19,20
 279 1466 279 1466 240.5 1482 c 128,-1,21
 202 1498 202 1498 174.5 1526 c 128,-1,22
 147 1554 147 1554 131.5 1592 c 128,-1,23
 116 1630 116 1630 116 1674 c 256,4,5
EndSplineSet
Validated: 1
EndChar

StartChar: j
Encoding: 106 106 79
Width: 656
Flags: W
HStem: 1178 20G<143 522> 1462 418<201.049 457.335>
VStem: 128 406<1536.8 1803.46> 143 379<41.4718 1198 1522.98 1817.35>
LayerCount: 2
Fore
SplineSet
128 1671 m 0,0,1
 128 1717 128 1717 143.5 1755 c 128,-1,2
 159 1793 159 1793 186 1821 c 128,-1,3
 213 1849 213 1849 250 1864.5 c 128,-1,4
 287 1880 287 1880 330 1880 c 256,5,6
 373 1880 373 1880 410 1864 c 128,-1,7
 447 1848 447 1848 474.5 1820 c 128,-1,8
 502 1792 502 1792 518 1754 c 128,-1,9
 534 1716 534 1716 534 1671 c 0,10,11
 534 1624 534 1624 518 1585.5 c 128,-1,12
 502 1547 502 1547 474 1519.5 c 128,-1,13
 446 1492 446 1492 409 1477 c 128,-1,14
 372 1462 372 1462 330 1462 c 0,15,16
 283 1462 283 1462 246 1479 c 128,-1,17
 209 1496 209 1496 182.5 1524.5 c 128,-1,18
 156 1553 156 1553 142 1591 c 128,-1,19
 128 1629 128 1629 128 1671 c 0,0,1
-75 -102 m 1,20,21
 -27 -74 -27 -74 13 -46 c 128,-1,22
 53 -18 53 -18 82 18 c 128,-1,23
 111 54 111 54 127 102.5 c 128,-1,24
 143 151 143 151 143 219 c 2,25,-1
 143 1198 l 1,26,-1
 522 1198 l 1,27,-1
 522 214 l 2,28,29
 522 103 522 103 483.5 8.5 c 128,-1,30
 445 -86 445 -86 379.5 -160 c 128,-1,31
 314 -234 314 -234 228 -284.5 c 128,-1,32
 142 -335 142 -335 46 -357 c 1,33,-1
 -75 -102 l 1,20,21
EndSplineSet
Validated: 1
EndChar

StartChar: k
Encoding: 107 107 80
Width: 1361
Flags: W
HStem: 0 21G<136 514 934.548 1374> 1179 20G<935.346 1366> 1775 20G<368.615 514>
VStem: 136 378<0 417 771 1743>
LayerCount: 2
Fore
SplineSet
514 0 m 1,0,-1
 136 0 l 1,1,-1
 136 1743 l 1,2,-1
 514 1795 l 1,3,-1
 514 771 l 1,4,-1
 956 1199 l 1,5,-1
 1366 1199 l 1,6,-1
 840 670 l 1,7,-1
 1374 0 l 1,8,-1
 948 0 l 1,9,-1
 607 507 l 1,10,-1
 514 417 l 1,11,-1
 514 0 l 1,0,-1
EndSplineSet
Validated: 1
EndChar

StartChar: l
Encoding: 108 108 81
Width: 651
Flags: W
HStem: 0 21G<136 515> 1774 20G<366.373 515>
VStem: 136 379<0 1743>
LayerCount: 2
Fore
SplineSet
515 0 m 1,0,-1
 136 0 l 1,1,-1
 136 1743 l 1,2,-1
 515 1794 l 1,3,-1
 515 0 l 1,0,-1
EndSplineSet
Validated: 1
EndChar

StartChar: m
Encoding: 109 109 82
Width: 1991
Flags: W
HStem: 0 21G<136 514 816 1194 1484 1863> 988 248<618.934 833.5 1267.22 1489> 1178 20G<136 411.341>
VStem: 136 378<0 920.125> 816 378<0 932.376> 1484 379<0 959.572>
LayerCount: 2
Fore
SplineSet
514 0 m 1,0,-1
 136 0 l 1,1,-1
 136 1198 l 1,2,-1
 402 1198 l 1,3,-1
 487 1016 l 1,4,5
 530 1136 530 1136 609.5 1186 c 128,-1,6
 689 1236 689 1236 805 1236 c 0,7,8
 862 1236 862 1236 910.5 1227 c 128,-1,9
 959 1218 959 1218 999.5 1197.5 c 128,-1,10
 1040 1177 1040 1177 1072.5 1144 c 128,-1,11
 1105 1111 1105 1111 1129 1062 c 1,12,13
 1160 1107 1160 1107 1195 1140 c 128,-1,14
 1230 1173 1230 1173 1272.5 1194 c 128,-1,15
 1315 1215 1315 1215 1368 1225.5 c 128,-1,16
 1421 1236 1421 1236 1489 1236 c 0,17,18
 1582 1236 1582 1236 1652 1205.5 c 128,-1,19
 1722 1175 1722 1175 1769 1116.5 c 128,-1,20
 1816 1058 1816 1058 1839.5 973 c 128,-1,21
 1863 888 1863 888 1863 779 c 2,22,-1
 1863 0 l 1,23,-1
 1484 0 l 1,24,-1
 1484 809 l 2,25,26
 1484 987 1484 987 1365 987 c 0,27,28
 1340 987 1340 987 1318.5 980.5 c 128,-1,29
 1297 974 1297 974 1277 961.5 c 128,-1,30
 1257 949 1257 949 1236.5 931 c 128,-1,31
 1216 913 1216 913 1194 891 c 1,32,-1
 1194 0 l 1,33,-1
 816 0 l 1,34,-1
 816 821 l 2,35,36
 816 912 816 912 789 950 c 128,-1,37
 762 988 762 988 702 988 c 0,38,39
 670 988 670 988 639.5 975 c 128,-1,40
 609 962 609 962 584 942.5 c 128,-1,41
 559 923 559 923 540.5 900 c 128,-1,42
 522 877 522 877 514 856 c 1,43,-1
 514 0 l 1,0,-1
EndSplineSet
Validated: 1
EndChar

StartChar: n
Encoding: 110 110 83
Width: 1353
Flags: W
HStem: 0 21G<136 514 848 1226> 985 251<616.171 807.523> 1178 20G<136 432.669>
VStem: 136 378<0 939.188> 848 378<0 944.375>
LayerCount: 2
Fore
SplineSet
496 1047 m 1,0,1
 541 1145 541 1145 614 1190.5 c 128,-1,2
 687 1236 687 1236 798 1236 c 0,3,4
 1021 1236 1021 1236 1123.5 1115 c 128,-1,5
 1226 994 1226 994 1226 745 c 2,6,-1
 1226 0 l 1,7,-1
 848 0 l 1,8,-1
 848 773 l 2,9,10
 848 835 848 835 838.5 876 c 128,-1,11
 829 917 829 917 809.5 941 c 128,-1,12
 790 965 790 965 760.5 975 c 128,-1,13
 731 985 731 985 692 985 c 0,14,15
 621 985 621 985 578.5 955 c 128,-1,16
 536 925 536 925 514 882 c 1,17,-1
 514 0 l 1,18,-1
 136 0 l 1,19,-1
 136 1198 l 1,20,-1
 423 1198 l 1,21,-1
 496 1047 l 1,0,1
EndSplineSet
Validated: 1
EndChar

StartChar: o
Encoding: 111 111 84
Width: 1341
Flags: W
HStem: -25 254<545.751 796.923> 986 251<546.181 794.812>
VStem: 79 379<329.353 878.194> 886 376<335.52 877.706>
LayerCount: 2
Fore
SplineSet
671 229 m 1,0,1
 724 229 724 229 764 249.5 c 128,-1,2
 804 270 804 270 831 315 c 128,-1,3
 858 360 858 360 872 431.5 c 128,-1,4
 886 503 886 503 886 605 c 0,5,6
 886 706 886 706 872 778.5 c 128,-1,7
 858 851 858 851 831 897 c 128,-1,8
 804 943 804 943 764 964.5 c 128,-1,9
 724 986 724 986 671 986 c 256,10,11
 618 986 618 986 578 964.5 c 128,-1,12
 538 943 538 943 511.5 897 c 128,-1,13
 485 851 485 851 471.5 779 c 128,-1,14
 458 707 458 707 458 605 c 0,15,16
 458 563 458 563 460 519 c 128,-1,17
 462 475 462 475 469.5 433.5 c 128,-1,18
 477 392 477 392 491 355.5 c 128,-1,19
 505 319 505 319 528.5 291 c 128,-1,20
 552 263 552 263 587 246.5 c 128,-1,21
 622 230 622 230 671 229 c 1,0,1
1262 602 m 0,22,23
 1262 450 1262 450 1222.5 333 c 128,-1,24
 1183 216 1183 216 1107 136.5 c 128,-1,25
 1031 57 1031 57 921.5 16 c 128,-1,26
 812 -25 812 -25 671 -25 c 0,27,28
 531 -25 531 -25 421 16 c 128,-1,29
 311 57 311 57 235 136.5 c 128,-1,30
 159 216 159 216 119 333 c 128,-1,31
 79 450 79 450 79 602 c 0,32,33
 79 756 79 756 119.5 874.5 c 128,-1,34
 160 993 160 993 236 1073.5 c 128,-1,35
 312 1154 312 1154 422 1195.5 c 128,-1,36
 532 1237 532 1237 670 1237 c 256,37,38
 808 1237 808 1237 917.5 1195.5 c 128,-1,39
 1027 1154 1027 1154 1103.5 1073.5 c 128,-1,40
 1180 993 1180 993 1221 874.5 c 128,-1,41
 1262 756 1262 756 1262 602 c 0,22,23
EndSplineSet
Validated: 1
EndChar

StartChar: p
Encoding: 112 112 85
Width: 1375
Flags: W
HStem: -411 21G<136 514> -27 254<620.567 838.007> 985 251<604.691 839.77> 1178 20G<136 433.342>
VStem: 136 378<-411 120 306.372 921.735> 910 381<315.023 916.932>
LayerCount: 2
Fore
SplineSet
740 985 m 0,0,1
 676 985 676 985 620.5 960 c 128,-1,2
 565 935 565 935 514 882 c 1,3,-1
 514 339 l 1,4,5
 590 279 590 279 645.5 253 c 128,-1,6
 701 227 701 227 746 227 c 0,7,8
 782 227 782 227 808.5 245 c 128,-1,9
 835 263 835 263 853.5 293 c 128,-1,10
 872 323 872 323 883 361 c 128,-1,11
 894 399 894 399 900 439.5 c 128,-1,12
 906 480 906 480 908 519.5 c 128,-1,13
 910 559 910 559 910 591 c 0,14,15
 910 673 910 673 906 745 c 128,-1,16
 902 817 902 817 885.5 870.5 c 128,-1,17
 869 924 869 924 834.5 954.5 c 128,-1,18
 800 985 800 985 740 985 c 0,0,1
788 -27 m 0,19,20
 703 -27 703 -27 635.5 9 c 128,-1,21
 568 45 568 45 514 120 c 1,22,-1
 514 -411 l 1,23,-1
 136 -411 l 1,24,-1
 136 1198 l 1,25,-1
 424 1198 l 1,26,-1
 495 1046 l 1,27,28
 522 1140 522 1140 599.5 1188 c 128,-1,29
 677 1236 677 1236 814 1236 c 0,30,31
 945 1236 945 1236 1036 1188.5 c 128,-1,32
 1127 1141 1127 1141 1183.5 1055 c 128,-1,33
 1240 969 1240 969 1265.5 849 c 128,-1,34
 1291 729 1291 729 1291 585 c 0,35,36
 1291 430 1291 430 1253.5 315 c 128,-1,37
 1216 200 1216 200 1149 124 c 128,-1,38
 1082 48 1082 48 989.5 10.5 c 128,-1,39
 897 -27 897 -27 788 -27 c 0,19,20
EndSplineSet
Validated: 1
EndChar

StartChar: q
Encoding: 113 113 86
Width: 1372
Flags: W
HStem: -410 21G<858 1236> -27 254<523.254 738.472> 985 251<552.119 747.241> 1178 20G<903.418 1236>
VStem: 83 378<296.362 876.932> 858 378<-410 121 302.547 917.084>
LayerCount: 2
Fore
SplineSet
623 227 m 0,0,1
 682 227 682 227 738.5 254 c 128,-1,2
 795 281 795 281 858 342 c 1,3,-1
 858 852 l 1,4,5
 834 890 834 890 814.5 915.5 c 128,-1,6
 795 941 795 941 774 956.5 c 128,-1,7
 753 972 753 972 728 978.5 c 128,-1,8
 703 985 703 985 669 985 c 0,9,10
 605 985 605 985 564.5 953 c 128,-1,11
 524 921 524 921 501 867 c 128,-1,12
 478 813 478 813 469.5 741.5 c 128,-1,13
 461 670 461 670 461 591 c 0,14,15
 461 560 461 560 461.5 521 c 128,-1,16
 462 482 462 482 466 441.5 c 128,-1,17
 470 401 470 401 479.5 362.5 c 128,-1,18
 489 324 489 324 507 294 c 128,-1,19
 525 264 525 264 553 245.5 c 128,-1,20
 581 227 581 227 623 227 c 0,0,1
583 1236 m 0,21,22
 625 1236 625 1236 663 1228.5 c 128,-1,23
 701 1221 701 1221 735.5 1199.5 c 128,-1,24
 770 1178 770 1178 800.5 1139.5 c 128,-1,25
 831 1101 831 1101 858 1040 c 1,26,-1
 910 1198 l 1,27,-1
 1236 1198 l 1,28,-1
 1236 -410 l 1,29,-1
 858 -410 l 1,30,-1
 858 121 l 1,31,32
 792 46 792 46 723.5 9.5 c 128,-1,33
 655 -27 655 -27 576 -27 c 0,34,35
 442 -27 442 -27 348.5 23.5 c 128,-1,36
 255 74 255 74 196 158.5 c 128,-1,37
 137 243 137 243 110 353 c 128,-1,38
 83 463 83 463 83 581 c 0,39,40
 83 901 83 901 207.5 1068.5 c 128,-1,41
 332 1236 332 1236 583 1236 c 0,21,22
EndSplineSet
Validated: 1
EndChar

StartChar: r
Encoding: 114 114 87
Width: 903
Flags: W
HStem: 0 21G<136 514> 875 322<628.826 739.219 741.999 859> 895 302<629.266 858.094>
VStem: 136 378<0 844.855>
LayerCount: 2
Fore
SplineSet
504 1008 m 1,0,1
 526 1066 526 1066 562 1102.5 c 128,-1,2
 598 1139 598 1139 644.5 1159.5 c 128,-1,3
 691 1180 691 1180 745.5 1188 c 128,-1,4
 800 1196 800 1196 859 1197 c 1,5,-1
 859 875 l 1,6,7
 830 885 830 885 801.5 890 c 128,-1,8
 773 895 773 895 741 895 c 0,9,10
 684 895 684 895 627.5 876.5 c 128,-1,11
 571 858 571 858 514 815 c 1,12,-1
 514 0 l 1,13,-1
 136 0 l 1,14,-1
 136 1198 l 1,15,-1
 462 1198 l 1,16,-1
 504 1008 l 1,0,1
EndSplineSet
Validated: 1
EndChar

StartChar: s
Encoding: 115 115 88
Width: 1111
Flags: W
HStem: -27 254<300.141 671.574> 52.5 269.5<151 281.379> 985 251<436.766 827.875>
VStem: 81 342<813.569 966.113> 687 352<245.128 410.751>
LayerCount: 2
Fore
SplineSet
342 540 m 2,0,1
 290 561 290 561 243 586 c 128,-1,2
 196 611 196 611 160 650 c 128,-1,3
 124 689 124 689 102.5 746.5 c 128,-1,4
 81 804 81 804 81 891 c 0,5,6
 81 969 81 969 114.5 1033 c 128,-1,7
 148 1097 148 1097 211 1142 c 128,-1,8
 274 1187 274 1187 365 1211.5 c 128,-1,9
 456 1236 456 1236 572 1236 c 0,10,11
 628 1236 628 1236 683 1229 c 128,-1,12
 738 1222 738 1222 788.5 1211.5 c 128,-1,13
 839 1201 839 1201 881.5 1188.5 c 128,-1,14
 924 1176 924 1176 955 1166 c 128,-1,15
 986 1156 986 1156 1003 1149.5 c 128,-1,16
 1020 1143 1020 1143 1019 1144 c 1,17,-1
 951 905 l 1,18,-1
 951 904 l 1,19,20
 948 904 948 904 929.5 910 c 128,-1,21
 911 916 911 916 881 925 c 128,-1,22
 851 934 851 934 813 944.5 c 128,-1,23
 775 955 775 955 735 964 c 128,-1,24
 695 973 695 973 655 979 c 128,-1,25
 615 985 615 985 581 985 c 0,26,27
 534 985 534 985 503.5 978.5 c 128,-1,28
 473 972 473 972 455 959.5 c 128,-1,29
 437 947 437 947 430 927.5 c 128,-1,30
 423 908 423 908 423 882 c 0,31,32
 423 865 423 865 427 853 c 128,-1,33
 431 841 431 841 440.5 831.5 c 128,-1,34
 450 822 450 822 466.5 814 c 128,-1,35
 483 806 483 806 508 796 c 2,36,-1
 719 715 l 2,37,38
 798 685 798 685 857.5 649 c 128,-1,39
 917 613 917 613 957.5 570 c 128,-1,40
 998 527 998 527 1018.5 475.5 c 128,-1,41
 1039 424 1039 424 1039 361 c 0,42,43
 1039 248 1039 248 995.5 173.5 c 128,-1,44
 952 99 952 99 882 54.5 c 128,-1,45
 812 10 812 10 724 -8.5 c 128,-1,46
 636 -27 636 -27 546 -27 c 0,47,48
 483 -27 483 -27 424 -19 c 128,-1,49
 365 -11 365 -11 313 1 c 128,-1,50
 261 13 261 13 218 27 c 128,-1,51
 175 41 175 41 144.5 52.5 c 128,-1,52
 114 64 114 64 97.5 71.5 c 128,-1,53
 81 79 81 79 83 78 c 1,54,-1
 151 322 l 1,55,56
 153 322 153 322 171.5 315.5 c 128,-1,57
 190 309 190 309 220 298 c 128,-1,58
 250 287 250 287 289 275 c 128,-1,59
 328 263 328 263 370.5 252 c 128,-1,60
 413 241 413 241 455.5 234 c 128,-1,61
 498 227 498 227 535 227 c 0,62,63
 584 227 584 227 614 234 c 128,-1,64
 644 241 644 241 660 256.5 c 128,-1,65
 676 272 676 272 681.5 296 c 128,-1,66
 687 320 687 320 687 353 c 0,67,68
 687 374 687 374 662 396.5 c 128,-1,69
 637 419 637 419 584 441 c 2,70,-1
 342 540 l 2,0,1
EndSplineSet
Validated: 5
EndChar

StartChar: t
Encoding: 116 116 89
Width: 1000
Flags: W
HStem: -27 254<632 871.817> 1044 154<24 243 619 956>
VStem: 243 376<262.684 1044 1198 1652>
LayerCount: 2
Fore
SplineSet
632 -27 m 0,0,1
 542 -27 542 -27 470 0.5 c 128,-1,2
 398 28 398 28 347.5 87.5 c 128,-1,3
 297 147 297 147 270 241.5 c 128,-1,4
 243 336 243 336 243 470 c 2,5,-1
 243 1044 l 1,6,-1
 24 1044 l 1,7,-1
 24 1198 l 1,8,-1
 250 1198 l 1,9,-1
 250 1652 l 1,10,-1
 619 1742 l 1,11,-1
 619 1198 l 1,12,-1
 956 1198 l 1,13,-1
 956 1044 l 1,14,-1
 619 1044 l 1,15,-1
 619 445 l 2,16,17
 619 399 619 399 625.5 359.5 c 128,-1,18
 632 320 632 320 646 290.5 c 128,-1,19
 660 261 660 261 683.5 244 c 128,-1,20
 707 227 707 227 741 227 c 0,21,22
 762 227 762 227 784 233 c 128,-1,23
 806 239 806 239 827.5 248.5 c 128,-1,24
 849 258 849 258 868 269.5 c 128,-1,25
 887 281 887 281 901 291 c 1,26,-1
 987 65 l 1,27,28
 984 63 984 63 958 48.5 c 128,-1,29
 932 34 932 34 886.5 17 c 128,-1,30
 841 0 841 0 776.5 -13.5 c 128,-1,31
 712 -27 712 -27 632 -27 c 0,0,1
EndSplineSet
Validated: 1
EndChar

StartChar: u
Encoding: 117 117 90
Width: 1337
Flags: W
HStem: -27 251<540.984 741.324> 0 21G<924.82 1201> 1178 20G<127 500 822 1201>
VStem: 127 373<267.616 1198> 822 379<270.281 1198>
LayerCount: 2
Fore
SplineSet
500 435 m 2,0,1
 500 389 500 389 506.5 350 c 128,-1,2
 513 311 513 311 530 283 c 128,-1,3
 547 255 547 255 576 239.5 c 128,-1,4
 605 224 605 224 650 224 c 0,5,6
 707 224 707 224 747.5 249 c 128,-1,7
 788 274 788 274 822 317 c 1,8,-1
 822 1198 l 1,9,-1
 1201 1198 l 1,10,-1
 1201 0 l 1,11,-1
 934 0 l 1,12,-1
 850 183 l 1,13,14
 837 127 837 127 811 87.5 c 128,-1,15
 785 48 785 48 748.5 22.5 c 128,-1,16
 712 -3 712 -3 666.5 -15 c 128,-1,17
 621 -27 621 -27 570 -27 c 0,18,19
 343 -27 343 -27 235 96.5 c 128,-1,20
 127 220 127 220 127 464 c 2,21,-1
 127 1198 l 1,22,-1
 500 1198 l 1,23,-1
 500 435 l 2,0,1
EndSplineSet
Validated: 1
EndChar

StartChar: v
Encoding: 118 118 91
Width: 1234
Flags: W
HStem: 0 21G<378.706 853.344> 1178 20G<8 410.812 819.279 1227>
LayerCount: 2
Fore
SplineSet
385 0 m 1,0,-1
 8 1198 l 1,1,-1
 406 1198 l 1,2,-1
 617 321 l 1,3,-1
 824 1198 l 1,4,-1
 1227 1198 l 1,5,-1
 847 0 l 1,6,-1
 385 0 l 1,0,-1
EndSplineSet
Validated: 1
EndChar

StartChar: w
Encoding: 119 119 92
Width: 1705
Flags: W
HStem: 0 21G<338.875 700.3 998.615 1365.14> 1178 20G<37 390.705 685.145 1019.84 1322.06 1668>
LayerCount: 2
Fore
SplineSet
848 707 m 1,0,-1
 696 0 l 1,1,-1
 344 0 l 1,2,-1
 37 1198 l 1,3,-1
 387 1198 l 1,4,-1
 535 399 l 1,5,-1
 689 1198 l 1,6,-1
 1016 1198 l 1,7,-1
 1169 401 l 1,8,-1
 1326 1198 l 1,9,-1
 1668 1198 l 1,10,-1
 1360 0 l 1,11,-1
 1003 0 l 1,12,-1
 848 707 l 1,0,-1
EndSplineSet
Validated: 1
EndChar

StartChar: x
Encoding: 120 120 93
Width: 1240
Flags: W
HStem: 0 21G<20 447.64 795.186 1219> 1178 20G<11 448.605 794.827 1225>
LayerCount: 2
Fore
SplineSet
437 0 m 1,0,-1
 20 0 l 1,1,-1
 427 604 l 1,2,-1
 11 1198 l 1,3,-1
 437 1198 l 1,4,-1
 625 874 l 1,5,-1
 806 1198 l 1,6,-1
 1225 1198 l 1,7,-1
 818 604 l 1,8,-1
 1219 0 l 1,9,-1
 806 0 l 1,10,-1
 620 344 l 1,11,-1
 437 0 l 1,0,-1
EndSplineSet
Validated: 1
EndChar

StartChar: y
Encoding: 121 121 94
Width: 1227
Flags: W
HStem: -484 256<196 307.094> 1178 20G<-6 388.482 840.824 1228>
LayerCount: 2
Fore
SplineSet
-6 1198 m 1,0,-1
 382 1198 l 1,1,-1
 640 402 l 1,2,-1
 846 1198 l 1,3,-1
 1228 1198 l 1,4,-1
 783 -33 l 1,5,6
 747 -143 747 -143 698 -226.5 c 128,-1,7
 649 -310 649 -310 579.5 -367 c 128,-1,8
 510 -424 510 -424 416 -453.5 c 128,-1,9
 322 -483 322 -483 196 -484 c 1,10,-1
 90 -228 l 1,11,12
 190 -221 190 -221 252.5 -203.5 c 128,-1,13
 315 -186 315 -186 354 -153.5 c 128,-1,14
 393 -121 393 -121 415 -72 c 128,-1,15
 437 -23 437 -23 455 46 c 1,16,-1
 -6 1198 l 1,0,-1
EndSplineSet
Validated: 1
EndChar

StartChar: z
Encoding: 122 122 95
Width: 1087
Flags: W
HStem: 0 251<504 999> 946 253<99 589>
LayerCount: 2
Fore
SplineSet
99 946 m 1,0,-1
 99 1199 l 1,1,-1
 987 1199 l 1,2,-1
 987 954 l 1,3,-1
 504 251 l 1,4,-1
 999 251 l 1,5,-1
 999 0 l 1,6,-1
 89 0 l 1,7,-1
 89 247 l 1,8,-1
 589 946 l 1,9,-1
 99 946 l 1,0,-1
EndSplineSet
Validated: 1
EndChar

StartChar: braceleft
Encoding: 123 123 96
Width: 741
Flags: W
HStem: 565 196<81 153.812>
VStem: 182 355<3.22412 543.483 782.969 1325.42>
LayerCount: 2
Fore
SplineSet
537 1002 m 0,0,1
 537 905 537 905 518 844 c 128,-1,2
 499 783 499 783 471 746 c 128,-1,3
 443 709 443 709 411.5 691.5 c 128,-1,4
 380 674 380 674 355 664 c 1,5,6
 446 629 446 629 492.5 543.5 c 128,-1,7
 539 458 539 458 539 324 c 0,8,9
 539 210 539 210 542.5 142 c 128,-1,10
 546 74 546 74 556.5 38 c 128,-1,11
 567 2 567 2 586 -9 c 128,-1,12
 605 -20 605 -20 637 -20 c 1,13,-1
 637 -217 l 1,14,15
 589 -217 589 -217 537 -211 c 128,-1,16
 485 -205 485 -205 434.5 -187.5 c 128,-1,17
 384 -170 384 -170 338.5 -138.5 c 128,-1,18
 293 -107 293 -107 259 -56.5 c 128,-1,19
 225 -6 225 -6 204.5 66 c 128,-1,20
 184 138 184 138 184 238 c 2,21,-1
 184 290 l 2,22,23
 184 371 184 371 178.5 424 c 128,-1,24
 173 477 173 477 160.5 508.5 c 128,-1,25
 148 540 148 540 128.5 552.5 c 128,-1,26
 109 565 109 565 81 565 c 1,27,-1
 81 761 l 1,28,29
 108 761 108 761 127.5 774 c 128,-1,30
 147 787 147 787 159 817.5 c 128,-1,31
 171 848 171 848 176.5 899.5 c 128,-1,32
 182 951 182 951 182 1028 c 2,33,-1
 182 1086 l 2,34,35
 182 1184 182 1184 202 1256.5 c 128,-1,36
 222 1329 222 1329 256.5 1379.5 c 128,-1,37
 291 1430 291 1430 336.5 1462 c 128,-1,38
 382 1494 382 1494 432.5 1512.5 c 128,-1,39
 483 1531 483 1531 535.5 1537.5 c 128,-1,40
 588 1544 588 1544 637 1544 c 1,41,-1
 637 1347 l 1,42,43
 607 1347 607 1347 588 1337.5 c 128,-1,44
 569 1328 569 1328 557.5 1292.5 c 128,-1,45
 546 1257 546 1257 541.5 1188.5 c 128,-1,46
 537 1120 537 1120 537 1002 c 0,0,1
EndSplineSet
Validated: 1
EndChar

StartChar: bar
Encoding: 124 124 97
Width: 640
Flags: W
VStem: 155 330<-155 1719>
LayerCount: 2
Fore
SplineSet
155 1719 m 1,0,-1
 485 1719 l 1,1,-1
 485 -155 l 1,2,-1
 155 -155 l 1,3,-1
 155 1719 l 1,0,-1
EndSplineSet
Validated: 1
EndChar

StartChar: braceright
Encoding: 125 125 98
Width: 740
Flags: W
HStem: 568 194<585.609 659>
VStem: 202 355<2.21594 540.739 782.93 1331.35>
LayerCount: 2
Fore
SplineSet
203 1004 m 0,0,1
 203 1125 203 1125 198 1194 c 128,-1,2
 193 1263 193 1263 181.5 1297 c 128,-1,3
 170 1331 170 1331 151 1339.5 c 128,-1,4
 132 1348 132 1348 104 1348 c 1,5,-1
 104 1546 l 1,6,7
 152 1546 152 1546 204.5 1540 c 128,-1,8
 257 1534 257 1534 307.5 1516 c 128,-1,9
 358 1498 358 1498 403.5 1466.5 c 128,-1,10
 449 1435 449 1435 483.5 1384 c 128,-1,11
 518 1333 518 1333 538.5 1260 c 128,-1,12
 559 1187 559 1187 559 1087 c 0,13,14
 559 1071 559 1071 558.5 1055 c 128,-1,15
 558 1039 558 1039 558 1025 c 0,16,17
 558 949 558 949 563 898.5 c 128,-1,18
 568 848 568 848 580 817.5 c 128,-1,19
 592 787 592 787 611.5 774.5 c 128,-1,20
 631 762 631 762 659 762 c 1,21,-1
 659 568 l 1,22,23
 631 568 631 568 611.5 555 c 128,-1,24
 592 542 592 542 580 510.5 c 128,-1,25
 568 479 568 479 562.5 426 c 128,-1,26
 557 373 557 373 557 293 c 2,27,-1
 557 240 l 2,28,29
 557 142 557 142 537 70.5 c 128,-1,30
 517 -1 517 -1 483 -52 c 128,-1,31
 449 -103 449 -103 404 -135 c 128,-1,32
 359 -167 359 -167 308.5 -185 c 128,-1,33
 258 -203 258 -203 205.5 -209.5 c 128,-1,34
 153 -216 153 -216 104 -216 c 1,35,-1
 104 -19 l 1,36,37
 131 -19 131 -19 149.5 -11 c 128,-1,38
 168 -3 168 -3 180 29.5 c 128,-1,39
 192 62 192 62 197 127.5 c 128,-1,40
 202 193 202 193 202 307 c 0,41,42
 202 449 202 449 245.5 538 c 128,-1,43
 289 627 289 627 386 665 c 1,44,45
 356 675 356 675 324 694.5 c 128,-1,46
 292 714 292 714 265 751.5 c 128,-1,47
 238 789 238 789 220.5 850 c 128,-1,48
 203 911 203 911 203 1004 c 0,0,1
EndSplineSet
Validated: 1
EndChar

StartChar: asciitilde
Encoding: 126 126 99
Width: 1152
Flags: W
HStem: 200 237<624.273 799.367> 359 227<345.227 505.217>
VStem: 111 221<229 329.083> 803 234<439.287 543>
LayerCount: 2
Fore
SplineSet
794 200 m 0,0,1
 743 200 743 200 692.5 216.5 c 128,-1,2
 642 233 642 233 600 258 c 0,3,4
 575 273 575 273 546 290.5 c 128,-1,5
 517 308 517 308 488.5 323.5 c 128,-1,6
 460 339 460 339 435 349 c 128,-1,7
 410 359 410 359 392 359 c 0,8,9
 361 359 361 359 346.5 330 c 128,-1,10
 332 301 332 301 332 229 c 1,11,-1
 111 229 l 1,12,13
 111 406 111 406 170.5 496 c 128,-1,14
 230 586 230 586 351 586 c 0,15,16
 397 586 397 586 435 575 c 128,-1,17
 473 564 473 564 506 547.5 c 128,-1,18
 539 531 539 531 568.5 511.5 c 128,-1,19
 598 492 598 492 626 475.5 c 128,-1,20
 654 459 654 459 682.5 448 c 128,-1,21
 711 437 711 437 743 437 c 0,22,23
 761 437 761 437 772.5 441 c 128,-1,24
 784 445 784 445 791 456.5 c 128,-1,25
 798 468 798 468 800.5 488.5 c 128,-1,26
 803 509 803 509 803 543 c 1,27,-1
 1037 543 l 1,28,29
 1037 466 1037 466 1020 402.5 c 128,-1,30
 1003 339 1003 339 971.5 294 c 128,-1,31
 940 249 940 249 895 224.5 c 128,-1,32
 850 200 850 200 794 200 c 0,0,1
EndSplineSet
Validated: 1
EndChar

StartChar: exclamdown
Encoding: 161 161 101
Width: 690
Flags: W
HStem: -1 21G<108 579> 1169 419<226.698 476.353>
VStem: 148 408<1249.08 1508.52> 235 222<965.959 1089>
LayerCount: 2
Fore
SplineSet
579 -1 m 1,0,-1
 108 -1 l 1,1,-1
 235 1089 l 1,2,-1
 457 1089 l 1,3,-1
 579 -1 l 1,0,-1
148 1380 m 0,4,5
 148 1420 148 1420 163.5 1458 c 128,-1,6
 179 1496 179 1496 206 1524.5 c 128,-1,7
 233 1553 233 1553 270 1570.5 c 128,-1,8
 307 1588 307 1588 349 1588 c 256,9,10
 391 1588 391 1588 429 1571.5 c 128,-1,11
 467 1555 467 1555 495 1527 c 128,-1,12
 523 1499 523 1499 539.5 1461 c 128,-1,13
 556 1423 556 1423 556 1380 c 256,14,15
 556 1337 556 1337 540 1299 c 128,-1,16
 524 1261 524 1261 496.5 1232 c 128,-1,17
 469 1203 469 1203 431 1186 c 128,-1,18
 393 1169 393 1169 349 1169 c 256,19,20
 305 1169 305 1169 268.5 1186.5 c 128,-1,21
 232 1204 232 1204 205 1233 c 128,-1,22
 178 1262 178 1262 163 1300.5 c 128,-1,23
 148 1339 148 1339 148 1380 c 0,4,5
EndSplineSet
Validated: 1
EndChar

StartChar: cent
Encoding: 162 162 102
Width: 1164
Flags: W
HStem: -4 248<813 941.146>
VStem: 72 380<380.179 858.025> 639 174<-150 -13 256 961 1224 1427>
LayerCount: 2
Fore
SplineSet
452 606 m 0,0,1
 452 319 452 319 639 256 c 1,2,-1
 639 963 l 1,3,4
 573 949 573 949 536 911 c 128,-1,5
 499 873 499 873 480.5 823 c 128,-1,6
 462 773 462 773 457 715.5 c 128,-1,7
 452 658 452 658 452 606 c 0,0,1
639 -13 m 1,8,9
 522 -9 522 -9 418.5 33 c 128,-1,10
 315 75 315 75 238 152.5 c 128,-1,11
 161 230 161 230 116.5 343.5 c 128,-1,12
 72 457 72 457 72 606 c 0,13,14
 72 754 72 754 120.5 868 c 128,-1,15
 169 982 169 982 249 1060.5 c 128,-1,16
 329 1139 329 1139 430.5 1180 c 128,-1,17
 532 1221 532 1221 639 1224 c 1,18,-1
 639 1427 l 1,19,-1
 813 1427 l 1,20,-1
 813 1215 l 1,21,22
 853 1207 853 1207 886.5 1198.5 c 128,-1,23
 920 1190 920 1190 950.5 1179 c 128,-1,24
 981 1168 981 1168 1011 1154.5 c 128,-1,25
 1041 1141 1041 1141 1075 1123 c 1,26,-1
 1007 881 l 1,27,28
 1000 890 1000 890 981 901 c 128,-1,29
 962 912 962 912 935.5 923 c 128,-1,30
 909 934 909 934 877.5 944.5 c 128,-1,31
 846 955 846 955 813 961 c 1,32,-1
 813 244 l 1,33,34
 841 244 841 244 874.5 257.5 c 128,-1,35
 908 271 908 271 937.5 287 c 128,-1,36
 967 303 967 303 986 316 c 2,37,-1
 1005 330 l 1,38,-1
 1075 91 l 1,39,40
 1075 91 1075 91 1050 76 c 0,41,42
 1026 61 1026 61 988 43 c 128,-1,43
 950 25 950 25 903.5 10.5 c 128,-1,44
 857 -4 857 -4 813 -4 c 1,45,-1
 813 -150 l 1,46,-1
 639 -150 l 1,47,-1
 639 -13 l 1,8,9
EndSplineSet
Validated: 1
EndChar

StartChar: sterling
Encoding: 163 163 103
Width: 1179
Flags: W
HStem: 0 246<439 1046> 588 158<592 987> 1084 282<526.656 865.935>
VStem: 145 347<824.446 1048.12> 285 307<412.985 588>
LayerCount: 2
Fore
SplineSet
139 239 m 1,0,1
 152 255 152 255 176.5 293 c 128,-1,2
 201 331 201 331 225 380 c 128,-1,3
 249 429 249 429 267 484 c 128,-1,4
 285 539 285 539 285 589 c 1,5,-1
 161 589 l 1,6,-1
 161 739 l 1,7,-1
 261 739 l 1,8,9
 261 737 261 737 242.5 754 c 128,-1,10
 224 771 224 771 202.5 803.5 c 128,-1,11
 181 836 181 836 163 882 c 128,-1,12
 145 928 145 928 145 984 c 0,13,14
 145 1064 145 1064 175.5 1133.5 c 128,-1,15
 206 1203 206 1203 266 1255 c 128,-1,16
 326 1307 326 1307 415 1336.5 c 128,-1,17
 504 1366 504 1366 622 1366 c 0,18,19
 724 1366 724 1366 803 1348.5 c 128,-1,20
 882 1331 882 1331 938.5 1308 c 128,-1,21
 995 1285 995 1285 1028.5 1263.5 c 128,-1,22
 1062 1242 1062 1242 1072 1233 c 1,23,-1
 936 991 l 1,24,25
 923 1003 923 1003 899.5 1019.5 c 128,-1,26
 876 1036 876 1036 842.5 1050 c 128,-1,27
 809 1064 809 1064 766 1074 c 128,-1,28
 723 1084 723 1084 671 1084 c 0,29,30
 608 1084 608 1084 572 1069 c 128,-1,31
 536 1054 536 1054 518.5 1031 c 128,-1,32
 501 1008 501 1008 496.5 981.5 c 128,-1,33
 492 955 492 955 492 932 c 0,34,35
 492 895 492 895 508 851 c 128,-1,36
 524 807 524 807 571 746 c 1,37,-1
 987 746 l 1,38,-1
 987 588 l 1,39,-1
 592 588 l 1,40,41
 592 532 592 532 580.5 485 c 128,-1,42
 569 438 569 438 552 399.5 c 128,-1,43
 535 361 535 361 515.5 332 c 128,-1,44
 496 303 496 303 479 283.5 c 128,-1,45
 462 264 462 264 450.5 254 c 128,-1,46
 439 244 439 244 439 245 c 2,47,-1
 439 246 l 1,48,-1
 1046 246 l 1,49,-1
 1046 0 l 1,50,-1
 139 0 l 1,51,-1
 139 239 l 1,0,1
EndSplineSet
Validated: 5
EndChar

StartChar: currency
Encoding: 164 164 104
Width: 1385
Flags: W
HStem: 557 184<540.357 827.599> 1288 187<554.273 840.672>
VStem: 231 185<863.601 1150.56> 963 186<877.512 1166.78>
LayerCount: 2
Fore
SplineSet
304 755 m 1,0,1
 231 865 231 865 231 999 c 0,2,3
 231 1137 231 1137 312 1259 c 1,4,-1
 102 1468 l 1,5,-1
 236 1602 l 1,6,-1
 446 1392 l 1,7,8
 565 1475 565 1475 709 1475 c 0,9,10
 841 1475 841 1475 951 1403 c 1,11,-1
 1151 1602 l 1,12,-1
 1284 1468 l 1,13,-1
 1083 1266 l 1,14,15
 1149 1161 1149 1161 1149 1035 c 0,16,17
 1149 892 1149 892 1067 771 c 1,18,-1
 1284 554 l 1,19,-1
 1151 419 l 1,20,-1
 932 638 l 1,21,22
 812 557 812 557 672 557 c 0,23,24
 547 557 547 557 441 622 c 1,25,-1
 236 419 l 1,26,-1
 102 554 l 1,27,-1
 304 755 l 1,0,1
701 1288 m 0,28,29
 645 1288 645 1288 593.5 1265 c 128,-1,30
 542 1242 542 1242 502.5 1203.5 c 128,-1,31
 463 1165 463 1165 439.5 1114 c 128,-1,32
 416 1063 416 1063 416 1007 c 256,33,34
 416 951 416 951 438.5 902.5 c 128,-1,35
 461 854 461 854 499 818 c 128,-1,36
 537 782 537 782 586 761.5 c 128,-1,37
 635 741 635 741 689 741 c 256,38,39
 743 741 743 741 792.5 765 c 128,-1,40
 842 789 842 789 880 828.5 c 128,-1,41
 918 868 918 868 940.5 919 c 128,-1,42
 963 970 963 970 963 1024 c 256,43,44
 963 1078 963 1078 941 1126 c 128,-1,45
 919 1174 919 1174 882.5 1210 c 128,-1,46
 846 1246 846 1246 799 1267 c 128,-1,47
 752 1288 752 1288 701 1288 c 0,28,29
EndSplineSet
Validated: 1
EndChar

StartChar: yen
Encoding: 165 165 105
Width: 1531
Flags: W
HStem: 0 21G<574 949> 416 127<237 572 951 1287> 680 125<237 442 1084 1287>
VStem: 574 375<0 416>
LayerCount: 2
Fore
SplineSet
1060 1628 m 1,0,-1
 1476 1628 l 1,1,-1
 1084 805 l 1,2,-1
 1287 805 l 1,3,-1
 1287 680 l 1,4,-1
 1021 680 l 1,5,-1
 951 543 l 1,6,-1
 1287 543 l 1,7,-1
 1287 416 l 1,8,-1
 949 416 l 1,9,-1
 949 0 l 1,10,-1
 574 0 l 1,11,-1
 574 416 l 1,12,-1
 237 416 l 1,13,-1
 237 543 l 1,14,-1
 572 543 l 1,15,-1
 503 680 l 1,16,-1
 237 680 l 1,17,-1
 237 805 l 1,18,-1
 442 805 l 1,19,-1
 56 1628 l 1,20,-1
 464 1628 l 1,21,-1
 762 840 l 1,22,-1
 1060 1628 l 1,0,-1
EndSplineSet
Validated: 1
EndChar

StartChar: brokenbar
Encoding: 166 166 106
Width: 649
Flags: W
VStem: 159 331<-166 610 955 1731>
LayerCount: 2
Fore
SplineSet
159 1731 m 1,0,-1
 490 1731 l 1,1,-1
 490 955 l 1,2,-1
 159 955 l 1,3,-1
 159 1731 l 1,0,-1
159 610 m 1,4,-1
 490 610 l 1,5,-1
 490 -166 l 1,6,-1
 159 -166 l 1,7,-1
 159 610 l 1,4,-1
EndSplineSet
Validated: 1
EndChar

StartChar: section
Encoding: 167 167 107
Width: 1164
Flags: W
HStem: -114 254<378.577 728.25> 1374 257<402.956 761.594>
VStem: 120 273<699.272 852.456 1232.14 1355.41> 761 289<176.206 347.372 697.862 853.813>
LayerCount: 2
Fore
SplineSet
578 674 m 0,0,1
 677 674 677 674 722.5 699 c 128,-1,2
 768 724 768 724 768 772 c 0,3,4
 768 792 768 792 761.5 810.5 c 128,-1,5
 755 829 755 829 735 843.5 c 128,-1,6
 715 858 715 858 678 866.5 c 128,-1,7
 641 875 641 875 579 875 c 0,8,9
 513 875 513 875 475.5 865.5 c 128,-1,10
 438 856 438 856 420 841.5 c 128,-1,11
 402 827 402 827 397.5 809 c 128,-1,12
 393 791 393 791 393 774 c 0,13,14
 393 723 393 723 435 698.5 c 128,-1,15
 477 674 477 674 578 674 c 0,0,1
912 1251 m 2,16,17
 911 1251 911 1251 896.5 1260 c 128,-1,18
 882 1269 882 1269 857.5 1283 c 128,-1,19
 833 1297 833 1297 800 1312.5 c 128,-1,20
 767 1328 767 1328 730 1342 c 128,-1,21
 693 1356 693 1356 653.5 1365 c 128,-1,22
 614 1374 614 1374 577 1374 c 0,23,24
 511 1374 511 1374 474 1366 c 128,-1,25
 437 1358 437 1358 419.5 1346.5 c 128,-1,26
 402 1335 402 1335 398.5 1321.5 c 128,-1,27
 395 1308 395 1308 395 1297 c 0,28,29
 395 1289 395 1289 396.5 1278.5 c 128,-1,30
 398 1268 398 1268 410 1254.5 c 128,-1,31
 422 1241 422 1241 449 1225 c 128,-1,32
 476 1209 476 1209 526 1191 c 0,33,34
 646 1150 646 1150 732 1115 c 128,-1,35
 818 1080 818 1080 876 1047.5 c 128,-1,36
 934 1015 934 1015 968 983.5 c 128,-1,37
 1002 952 1002 952 1020 918.5 c 128,-1,38
 1038 885 1038 885 1043 847.5 c 128,-1,39
 1048 810 1048 810 1048 766 c 0,40,41
 1048 728 1048 728 1036.5 690 c 128,-1,42
 1025 652 1025 652 1002.5 619 c 128,-1,43
 980 586 980 586 945 560.5 c 128,-1,44
 910 535 910 535 864 521 c 1,45,46
 918 497 918 497 954 464 c 128,-1,47
 990 431 990 431 1011.5 393 c 128,-1,48
 1033 355 1033 355 1041.5 315 c 128,-1,49
 1050 275 1050 275 1050 237 c 0,50,51
 1050 161 1050 161 1029 105.5 c 128,-1,52
 1008 50 1008 50 971.5 11 c 128,-1,53
 935 -28 935 -28 886.5 -52.5 c 128,-1,54
 838 -77 838 -77 783.5 -90.5 c 128,-1,55
 729 -104 729 -104 671.5 -109 c 128,-1,56
 614 -114 614 -114 560 -114 c 0,57,58
 505 -114 505 -114 450 -102 c 128,-1,59
 395 -90 395 -90 345.5 -72 c 128,-1,60
 296 -54 296 -54 253.5 -32.5 c 128,-1,61
 211 -11 211 -11 180 6.5 c 128,-1,62
 149 24 149 24 132 35.5 c 128,-1,63
 115 47 115 47 116 46 c 1,64,-1
 218 277 l 2,65,66
 219 277 219 277 233.5 267 c 128,-1,67
 248 257 248 257 272.5 241.5 c 128,-1,68
 297 226 297 226 329.5 208.5 c 128,-1,69
 362 191 362 191 399 175.5 c 128,-1,70
 436 160 436 160 475 150 c 128,-1,71
 514 140 514 140 551 140 c 0,72,73
 761 140 761 140 761 260 c 0,74,75
 761 286 761 286 753.5 304.5 c 128,-1,76
 746 323 746 323 729 338 c 128,-1,77
 712 353 712 353 683 365.5 c 128,-1,78
 654 378 654 378 612 393 c 2,79,-1
 448 449 l 2,80,81
 343 485 343 485 278.5 519.5 c 128,-1,82
 214 554 214 554 179 594 c 128,-1,83
 144 634 144 634 132 682.5 c 128,-1,84
 120 731 120 731 120 795 c 0,85,86
 120 823 120 823 129.5 859 c 128,-1,87
 139 895 139 895 161 929.5 c 128,-1,88
 183 964 183 964 219 993.5 c 128,-1,89
 255 1023 255 1023 309 1039 c 1,90,91
 216 1071 216 1071 168 1140.5 c 128,-1,92
 120 1210 120 1210 120 1314 c 0,93,94
 120 1366 120 1366 141.5 1422 c 128,-1,95
 163 1478 163 1478 214.5 1524.5 c 128,-1,96
 266 1571 266 1571 351.5 1601 c 128,-1,97
 437 1631 437 1631 565 1631 c 0,98,99
 624 1631 624 1631 680.5 1618.5 c 128,-1,100
 737 1606 737 1606 787 1587.5 c 128,-1,101
 837 1569 837 1569 878.5 1547.5 c 128,-1,102
 920 1526 920 1526 950 1508 c 128,-1,103
 980 1490 980 1490 995.5 1478 c 128,-1,104
 1011 1466 1011 1466 1010 1467 c 1,105,-1
 912 1251 l 2,16,17
EndSplineSet
Validated: 5
EndChar

StartChar: dieresis
Encoding: 168 168 108
Width: 1316
Flags: W
HStem: 155 417<176.506 437.697 887.215 1147.7>
VStem: 99 419<235.452 492.548> 809 419<235.452 492.548>
LayerCount: 2
Fore
SplineSet
99 364 m 256,0,1
 99 408 99 408 115 446 c 128,-1,2
 131 484 131 484 159 512 c 128,-1,3
 187 540 187 540 225 556 c 128,-1,4
 263 572 263 572 307 572 c 0,5,6
 350 572 350 572 388.5 556 c 128,-1,7
 427 540 427 540 455.5 512 c 128,-1,8
 484 484 484 484 501 446 c 128,-1,9
 518 408 518 408 518 364 c 256,10,11
 518 320 518 320 501 282 c 128,-1,12
 484 244 484 244 455.5 215.5 c 128,-1,13
 427 187 427 187 388.5 171 c 128,-1,14
 350 155 350 155 307 155 c 0,15,16
 262 155 262 155 223.5 171.5 c 128,-1,17
 185 188 185 188 157.5 216 c 128,-1,18
 130 244 130 244 114.5 282 c 128,-1,19
 99 320 99 320 99 364 c 256,0,1
809 364 m 256,20,21
 809 408 809 408 825 446 c 128,-1,22
 841 484 841 484 869.5 512 c 128,-1,23
 898 540 898 540 935.5 556 c 128,-1,24
 973 572 973 572 1017 572 c 0,25,26
 1060 572 1060 572 1098.5 556 c 128,-1,27
 1137 540 1137 540 1165.5 512 c 128,-1,28
 1194 484 1194 484 1211 446 c 128,-1,29
 1228 408 1228 408 1228 364 c 256,30,31
 1228 320 1228 320 1211 282 c 128,-1,32
 1194 244 1194 244 1165.5 215.5 c 128,-1,33
 1137 187 1137 187 1098.5 171 c 128,-1,34
 1060 155 1060 155 1017 155 c 0,35,36
 972 155 972 155 933.5 171.5 c 128,-1,37
 895 188 895 188 867.5 216 c 128,-1,38
 840 244 840 244 824.5 282 c 128,-1,39
 809 320 809 320 809 364 c 256,20,21
EndSplineSet
Validated: 1
EndChar

StartChar: copyright
Encoding: 169 169 109
Width: 2055
Flags: W
HStem: -148 252<750.92 1267.27> 272 224<909.256 1243.9> 1114 224<909.195 1259.04> 1507 254<792.733 1263.3>
VStem: 73 276<527.105 1058.99> 570 251<592.184 1016.75> 1708 275<546.966 1058.86>
LayerCount: 2
Fore
SplineSet
1007 104 m 0,0,1
 1164 104 1164 104 1293 158.5 c 128,-1,2
 1422 213 1422 213 1514.5 308 c 128,-1,3
 1607 403 1607 403 1657.5 530.5 c 128,-1,4
 1708 658 1708 658 1708 804 c 0,5,6
 1708 913 1708 913 1680.5 1008 c 128,-1,7
 1653 1103 1653 1103 1605 1181 c 128,-1,8
 1557 1259 1557 1259 1491.5 1319.5 c 128,-1,9
 1426 1380 1426 1380 1350.5 1422 c 128,-1,10
 1275 1464 1275 1464 1193 1485.5 c 128,-1,11
 1111 1507 1111 1507 1029 1507 c 256,12,13
 947 1507 947 1507 864.5 1485.5 c 128,-1,14
 782 1464 782 1464 706.5 1422.5 c 128,-1,15
 631 1381 631 1381 565.5 1320 c 128,-1,16
 500 1259 500 1259 452 1181 c 128,-1,17
 404 1103 404 1103 376.5 1008.5 c 128,-1,18
 349 914 349 914 349 804 c 0,19,20
 349 658 349 658 392.5 530.5 c 128,-1,21
 436 403 436 403 520 308 c 128,-1,22
 604 213 604 213 726.5 158.5 c 128,-1,23
 849 104 849 104 1007 104 c 0,0,1
821 806 m 0,24,25
 821 717 821 717 838.5 657.5 c 128,-1,26
 856 598 856 598 886.5 562 c 128,-1,27
 917 526 917 526 960 511 c 128,-1,28
 1003 496 1003 496 1054 496 c 0,29,30
 1081 496 1081 496 1110 500 c 128,-1,31
 1139 504 1139 504 1174.5 515 c 128,-1,32
 1210 526 1210 526 1255 545.5 c 128,-1,33
 1300 565 1300 565 1360 595 c 1,34,-1
 1360 360 l 1,35,36
 1313 336 1313 336 1272.5 319 c 128,-1,37
 1232 302 1232 302 1196 291.5 c 128,-1,38
 1160 281 1160 281 1128.5 276.5 c 128,-1,39
 1097 272 1097 272 1067 272 c 0,40,41
 970 272 970 272 895 294.5 c 128,-1,42
 820 317 820 317 765 356.5 c 128,-1,43
 710 396 710 396 672.5 448.5 c 128,-1,44
 635 501 635 501 612.5 561.5 c 128,-1,45
 590 622 590 622 580 687.5 c 128,-1,46
 570 753 570 753 570 817 c 0,47,48
 570 935 570 935 604.5 1031 c 128,-1,49
 639 1127 639 1127 702 1195.5 c 128,-1,50
 765 1264 765 1264 853 1301 c 128,-1,51
 941 1338 941 1338 1048 1338 c 0,52,53
 1082 1338 1082 1338 1124.5 1331 c 128,-1,54
 1167 1324 1167 1324 1208.5 1312.5 c 128,-1,55
 1250 1301 1250 1301 1287.5 1286 c 128,-1,56
 1325 1271 1325 1271 1351 1255 c 1,57,-1
 1351 1028 l 1,58,59
 1263 1073 1263 1073 1186 1093.5 c 128,-1,60
 1109 1114 1109 1114 1045 1114 c 0,61,62
 975 1114 975 1114 931.5 1086 c 128,-1,63
 888 1058 888 1058 863.5 1013.5 c 128,-1,64
 839 969 839 969 830 914 c 128,-1,65
 821 859 821 859 821 806 c 0,24,25
1016 -148 m 0,66,67
 887 -148 887 -148 767 -116.5 c 128,-1,68
 647 -85 647 -85 542 -26.5 c 128,-1,69
 437 32 437 32 351 116.5 c 128,-1,70
 265 201 265 201 203 307 c 128,-1,71
 141 413 141 413 107 539.5 c 128,-1,72
 73 666 73 666 73 808 c 0,73,74
 73 951 73 951 108.5 1077.5 c 128,-1,75
 144 1204 144 1204 207.5 1310 c 128,-1,76
 271 1416 271 1416 359.5 1499.5 c 128,-1,77
 448 1583 448 1583 554 1641 c 128,-1,78
 660 1699 660 1699 780.5 1730 c 128,-1,79
 901 1761 901 1761 1029 1761 c 0,80,81
 1152 1761 1152 1761 1270.5 1730 c 128,-1,82
 1389 1699 1389 1699 1495 1641 c 128,-1,83
 1601 1583 1601 1583 1690.5 1499.5 c 128,-1,84
 1780 1416 1780 1416 1845 1310 c 128,-1,85
 1910 1204 1910 1204 1946.5 1077.5 c 128,-1,86
 1983 951 1983 951 1983 808 c 0,87,88
 1983 666 1983 666 1947 539.5 c 128,-1,89
 1911 413 1911 413 1846.5 307 c 128,-1,90
 1782 201 1782 201 1692.5 116.5 c 128,-1,91
 1603 32 1603 32 1495.5 -27 c 128,-1,92
 1388 -86 1388 -86 1266 -117 c 128,-1,93
 1144 -148 1144 -148 1016 -148 c 0,66,67
EndSplineSet
Validated: 1
EndChar

StartChar: ordfeminine
Encoding: 170 170 110
Width: 1000
Flags: W
HStem: 446 129<166 850> 668 113<303.339 597.412> 1158 100<331.062 693.408> 1513 125<271.453 648.234>
VStem: 102 161<821.783 1093.22> 695 161<855.555 1147.53 1218 1465.58> 740 116<686 761.397>
LayerCount: 2
Fore
SplineSet
713 828 m 2,0,1
 712 828 712 828 697 803 c 128,-1,2
 682 778 682 778 648 748 c 128,-1,3
 614 718 614 718 558 693 c 128,-1,4
 502 668 502 668 419 668 c 0,5,6
 345 668 345 668 286.5 687.5 c 128,-1,7
 228 707 228 707 187 744 c 128,-1,8
 146 781 146 781 124 835.5 c 128,-1,9
 102 890 102 890 102 960 c 0,10,11
 102 1032 102 1032 128 1087.5 c 128,-1,12
 154 1143 154 1143 201.5 1181 c 128,-1,13
 249 1219 249 1219 315 1238.5 c 128,-1,14
 381 1258 381 1258 461 1258 c 0,15,16
 504 1258 504 1258 545.5 1253 c 128,-1,17
 587 1248 587 1248 619.5 1241 c 128,-1,18
 652 1234 652 1234 672.5 1227.5 c 128,-1,19
 693 1221 693 1221 695 1218 c 1,20,-1
 695 1276 l 2,21,22
 695 1334 695 1334 688.5 1378.5 c 128,-1,23
 682 1423 682 1423 661.5 1453 c 128,-1,24
 641 1483 641 1483 603.5 1498 c 128,-1,25
 566 1513 566 1513 503 1513 c 0,26,27
 444 1513 444 1513 391.5 1502 c 128,-1,28
 339 1491 339 1491 299.5 1478 c 128,-1,29
 260 1465 260 1465 236.5 1454 c 128,-1,30
 213 1443 213 1443 212 1443 c 2,31,-1
 159 1552 l 2,32,33
 160 1552 160 1552 186 1565.5 c 128,-1,34
 212 1579 212 1579 257 1595 c 128,-1,35
 302 1611 302 1611 363 1624.5 c 128,-1,36
 424 1638 424 1638 495 1638 c 0,37,38
 597 1638 597 1638 666 1616 c 128,-1,39
 735 1594 735 1594 777.5 1545.5 c 128,-1,40
 820 1497 820 1497 838 1420.5 c 128,-1,41
 856 1344 856 1344 856 1235 c 2,42,-1
 856 686 l 1,43,-1
 740 686 l 1,44,-1
 713 828 l 2,0,1
695 1141 m 1,45,46
 644 1149 644 1149 600 1153.5 c 128,-1,47
 556 1158 556 1158 519 1158 c 0,48,49
 263 1158 263 1158 263 971 c 0,50,51
 263 918 263 918 273 882 c 128,-1,52
 283 846 283 846 305.5 823.5 c 128,-1,53
 328 801 328 801 365 791 c 128,-1,54
 402 781 402 781 457 781 c 256,55,56
 512 781 512 781 556 799.5 c 128,-1,57
 600 818 600 818 631 840.5 c 128,-1,58
 662 863 662 863 678.5 882 c 128,-1,59
 695 901 695 901 695 903 c 2,60,-1
 695 1141 l 1,45,46
166 575 m 1,61,-1
 850 575 l 1,62,-1
 850 446 l 1,63,-1
 166 446 l 1,64,-1
 166 575 l 1,61,-1
EndSplineSet
Validated: 1
EndChar

StartChar: guillemotleft
Encoding: 171 171 111
Width: 1870
Flags: W
LayerCount: 2
Fore
SplineSet
1265 598 m 1,0,-1
 1756 293 l 1,1,-1
 1756 -68 l 1,2,-1
 904 466 l 1,3,-1
 904 722 l 1,4,-1
 1756 1255 l 1,5,-1
 1756 893 l 1,6,-1
 1265 598 l 1,0,-1
415 598 m 1,7,-1
 906 293 l 1,8,-1
 906 -68 l 1,9,-1
 54 466 l 1,10,-1
 54 722 l 1,11,-1
 906 1255 l 1,12,-1
 906 893 l 1,13,-1
 415 598 l 1,7,-1
EndSplineSet
Validated: 1
EndChar

StartChar: logicalnot
Encoding: 172 172 112
Width: 1278
Flags: W
HStem: 560 281<132 925>
VStem: 925 200<226 560>
LayerCount: 2
Fore
SplineSet
132 560 m 1,0,-1
 132 841 l 1,1,-1
 1125 841 l 1,2,-1
 1125 226 l 1,3,-1
 925 226 l 1,4,-1
 925 560 l 1,5,-1
 132 560 l 1,0,-1
EndSplineSet
Validated: 1
EndChar

StartChar: uni00AD
Encoding: 173 173 113
Width: 1096
Flags: W
HStem: 599 284<122 974>
LayerCount: 2
Fore
SplineSet
122 599 m 1,0,-1
 122 883 l 1,1,-1
 974 883 l 1,2,-1
 974 599 l 1,3,-1
 122 599 l 1,0,-1
EndSplineSet
Validated: 1
EndChar

StartChar: registered
Encoding: 174 174 114
Width: 1590
Flags: W
HStem: 598 144<565.226 1020.49> 1210 118<720 755> 1510 116<720 909.058> 1799 146<567.776 1020.3>
VStem: 90 164<1047.72 1487.44> 575 139<928 1210 1328 1510> 918 139<1339.3 1495.15> 1334 166<1053.73 1487.67>
LayerCount: 2
Fore
SplineSet
90 1272 m 0,0,1
 90 1361 90 1361 113.5 1446 c 128,-1,2
 137 1531 137 1531 181 1605.5 c 128,-1,3
 225 1680 225 1680 287.5 1742.5 c 128,-1,4
 350 1805 350 1805 428.5 1850 c 128,-1,5
 507 1895 507 1895 599 1920 c 128,-1,6
 691 1945 691 1945 795 1945 c 0,7,8
 891 1945 891 1945 981 1922 c 128,-1,9
 1071 1899 1071 1899 1149.5 1856 c 128,-1,10
 1228 1813 1228 1813 1292.5 1752.5 c 128,-1,11
 1357 1692 1357 1692 1403 1617.5 c 128,-1,12
 1449 1543 1449 1543 1474.5 1455.5 c 128,-1,13
 1500 1368 1500 1368 1500 1272 c 0,14,15
 1500 1181 1500 1181 1476 1095.5 c 128,-1,16
 1452 1010 1452 1010 1408 935 c 128,-1,17
 1364 860 1364 860 1300.5 798 c 128,-1,18
 1237 736 1237 736 1159 691.5 c 128,-1,19
 1081 647 1081 647 989 622.5 c 128,-1,20
 897 598 897 598 795 598 c 0,21,22
 648 598 648 598 519.5 649.5 c 128,-1,23
 391 701 391 701 295.5 791.5 c 128,-1,24
 200 882 200 882 145 1005 c 128,-1,25
 90 1128 90 1128 90 1272 c 0,0,1
794 742 m 0,26,27
 912 742 912 742 1011.5 783 c 128,-1,28
 1111 824 1111 824 1182.5 895.5 c 128,-1,29
 1254 967 1254 967 1294 1063 c 128,-1,30
 1334 1159 1334 1159 1334 1270 c 0,31,32
 1334 1382 1334 1382 1294 1478.5 c 128,-1,33
 1254 1575 1254 1575 1182.5 1646.5 c 128,-1,34
 1111 1718 1111 1718 1011.5 1758.5 c 128,-1,35
 912 1799 912 1799 794 1799 c 256,36,37
 676 1799 676 1799 577 1758.5 c 128,-1,38
 478 1718 478 1718 406 1646.5 c 128,-1,39
 334 1575 334 1575 294 1478 c 128,-1,40
 254 1381 254 1381 254 1269 c 0,41,42
 254 1156 254 1156 293.5 1059.5 c 128,-1,43
 333 963 333 963 404.5 892.5 c 128,-1,44
 476 822 476 822 575.5 782 c 128,-1,45
 675 742 675 742 794 742 c 0,26,27
756 1319 m 1,46,47
 837 1319 837 1319 877.5 1340 c 128,-1,48
 918 1361 918 1361 918 1423 c 0,49,50
 918 1448 918 1448 910.5 1465 c 128,-1,51
 903 1482 903 1482 881.5 1492 c 128,-1,52
 860 1502 860 1502 821.5 1506 c 128,-1,53
 783 1510 783 1510 720 1510 c 1,54,-1
 720 1328 l 1,55,-1
 767 1328 l 2,56,57
 756 1328 756 1328 756 1319 c 1,46,47
946 899 m 1,58,-1
 755 1210 l 1,59,-1
 714 1210 l 1,60,-1
 714 928 l 1,61,-1
 575 928 l 1,62,-1
 575 1626 l 1,63,-1
 715 1626 l 2,64,65
 790 1626 790 1626 852.5 1617 c 128,-1,66
 915 1608 915 1608 960.5 1586 c 128,-1,67
 1006 1564 1006 1564 1031.5 1527 c 128,-1,68
 1057 1490 1057 1490 1057 1433 c 0,69,70
 1057 1392 1057 1392 1048.5 1362 c 128,-1,71
 1040 1332 1040 1332 1020 1309 c 128,-1,72
 1000 1286 1000 1286 967 1269 c 128,-1,73
 934 1252 934 1252 886 1237 c 1,74,-1
 1082 966 l 1,75,-1
 946 899 l 1,58,-1
EndSplineSet
Validated: 1
EndChar

StartChar: macron
Encoding: 65539 -1 115
Width: 1003
Flags: W
HStem: 98 229<65 947>
LayerCount: 2
Fore
SplineSet
65 327 m 1,0,-1
 947 327 l 1,1,-1
 947 98 l 1,2,-1
 65 98 l 1,3,-1
 65 327 l 1,0,-1
EndSplineSet
Validated: 2097153
EndChar

StartChar: degree
Encoding: 176 176 116
Width: 961
Flags: W
HStem: 695 194<361.121 599.701> 1241 194<361.246 599.396>
VStem: 81 220<948.469 1179.9> 661 219<948.653 1179.85>
LayerCount: 2
Fore
SplineSet
301 1065 m 0,0,1
 301 1027 301 1027 315.5 995 c 128,-1,2
 330 963 330 963 354.5 939.5 c 128,-1,3
 379 916 379 916 411.5 902.5 c 128,-1,4
 444 889 444 889 480 889 c 256,5,6
 516 889 516 889 549 902.5 c 128,-1,7
 582 916 582 916 607 939.5 c 128,-1,8
 632 963 632 963 646.5 995 c 128,-1,9
 661 1027 661 1027 661 1065 c 256,10,11
 661 1103 661 1103 646 1135 c 128,-1,12
 631 1167 631 1167 606 1190.5 c 128,-1,13
 581 1214 581 1214 548.5 1227.5 c 128,-1,14
 516 1241 516 1241 480 1241 c 0,15,16
 443 1241 443 1241 410.5 1227 c 128,-1,17
 378 1213 378 1213 353.5 1189 c 128,-1,18
 329 1165 329 1165 315 1133 c 128,-1,19
 301 1101 301 1101 301 1065 c 0,0,1
482 1435 m 0,20,21
 561 1435 561 1435 633.5 1407 c 128,-1,22
 706 1379 706 1379 760.5 1329 c 128,-1,23
 815 1279 815 1279 847.5 1210.5 c 128,-1,24
 880 1142 880 1142 880 1060 c 0,25,26
 880 977 880 977 845.5 909.5 c 128,-1,27
 811 842 811 842 753.5 794.5 c 128,-1,28
 696 747 696 747 622 721 c 128,-1,29
 548 695 548 695 470 695 c 256,30,31
 392 695 392 695 321 724.5 c 128,-1,32
 250 754 250 754 197 805 c 128,-1,33
 144 856 144 856 112.5 924.5 c 128,-1,34
 81 993 81 993 81 1071 c 0,35,36
 81 1151 81 1151 115 1218 c 128,-1,37
 149 1285 149 1285 205.5 1333 c 128,-1,38
 262 1381 262 1381 334 1408 c 128,-1,39
 406 1435 406 1435 482 1435 c 0,20,21
EndSplineSet
Validated: 1
EndChar

StartChar: plusminus
Encoding: 177 177 117
Width: 1124
Flags: W
HStem: 6 245<147 977> 815 291<122 405 717 1002>
VStem: 405 312<450 815 1106 1469>
LayerCount: 2
Fore
SplineSet
147 6 m 1,0,-1
 147 251 l 1,1,-1
 977 251 l 1,2,-1
 977 6 l 1,3,-1
 147 6 l 1,0,-1
717 815 m 1,4,-1
 717 450 l 1,5,-1
 405 450 l 1,6,-1
 405 815 l 1,7,-1
 122 815 l 1,8,-1
 122 1106 l 1,9,-1
 405 1106 l 1,10,-1
 405 1469 l 1,11,-1
 717 1469 l 1,12,-1
 717 1106 l 1,13,-1
 1002 1106 l 1,14,-1
 1002 815 l 1,15,-1
 717 815 l 1,4,-1
EndSplineSet
Validated: 1
EndChar

StartChar: uni00B2
Encoding: 178 178 118
Width: 930
Flags: W
HStem: 668 179<413 799> 1465 186<189.147 544.455>
VStem: 587 239<1181.07 1422.05>
LayerCount: 2
Fore
SplineSet
109 855 m 1,0,-1
 392 1045 l 1,1,2
 431 1075 431 1075 466.5 1104 c 128,-1,3
 502 1133 502 1133 529 1164.5 c 128,-1,4
 556 1196 556 1196 571.5 1230.5 c 128,-1,5
 587 1265 587 1265 587 1305 c 0,6,7
 587 1351 587 1351 572 1382 c 128,-1,8
 557 1413 557 1413 532 1431.5 c 128,-1,9
 507 1450 507 1450 474 1457.5 c 128,-1,10
 441 1465 441 1465 405 1465 c 256,11,12
 369 1465 369 1465 331.5 1459.5 c 128,-1,13
 294 1454 294 1454 258.5 1445.5 c 128,-1,14
 223 1437 223 1437 192 1428 c 128,-1,15
 161 1419 161 1419 138 1412 c 1,16,-1
 138 1586 l 1,17,18
 208 1617 208 1617 288.5 1634 c 128,-1,19
 369 1651 369 1651 448 1651 c 0,20,21
 523 1651 523 1651 591.5 1634 c 128,-1,22
 660 1617 660 1617 712 1579 c 128,-1,23
 764 1541 764 1541 795 1481 c 128,-1,24
 826 1421 826 1421 826 1335 c 0,25,26
 826 1261 826 1261 801 1201 c 128,-1,27
 776 1141 776 1141 737 1091.5 c 128,-1,28
 698 1042 698 1042 649.5 1003 c 128,-1,29
 601 964 601 964 555 932 c 1,30,-1
 413 847 l 1,31,-1
 799 847 l 1,32,-1
 799 668 l 1,33,-1
 109 668 l 1,34,-1
 109 855 l 1,0,-1
EndSplineSet
Validated: 1
EndChar

StartChar: uni00B3
Encoding: 179 179 119
Width: 910
Flags: W
HStem: 529 205<185.902 518.408> 1486 191<172.288 502.423>
VStem: 536 246<1269.86 1450.16> 553 260<770.014 963.474>
LayerCount: 2
Fore
SplineSet
144 798 m 1,0,1
 180 780 180 780 220 766 c 0,2,3
 254 754 254 754 296 744 c 128,-1,4
 338 734 338 734 380 734 c 0,5,6
 423 734 423 734 455.5 744 c 128,-1,7
 488 754 488 754 510 771 c 128,-1,8
 532 788 532 788 542.5 810.5 c 128,-1,9
 553 833 553 833 553 859 c 0,10,11
 553 886 553 886 540.5 914.5 c 128,-1,12
 528 943 528 943 503 969 c 128,-1,13
 478 995 478 995 441 1016.5 c 128,-1,14
 404 1038 404 1038 355 1052 c 1,15,-1
 355 1207 l 1,16,17
 409 1220 409 1220 444 1238 c 128,-1,18
 479 1256 479 1256 499.5 1277.5 c 128,-1,19
 520 1299 520 1299 528 1322 c 128,-1,20
 536 1345 536 1345 536 1367 c 0,21,22
 536 1391 536 1391 525 1412.5 c 128,-1,23
 514 1434 514 1434 491.5 1450.5 c 128,-1,24
 469 1467 469 1467 435 1476.5 c 128,-1,25
 401 1486 401 1486 356 1486 c 0,26,27
 309 1486 309 1486 251.5 1474 c 128,-1,28
 194 1462 194 1462 123 1436 c 1,29,-1
 123 1611 l 1,30,31
 125 1612 125 1612 148.5 1622.5 c 128,-1,32
 172 1633 172 1633 211 1645 c 128,-1,33
 250 1657 250 1657 301 1667 c 128,-1,34
 352 1677 352 1677 409 1677 c 0,35,36
 446 1677 446 1677 488 1671.5 c 128,-1,37
 530 1666 530 1666 571.5 1653.5 c 128,-1,38
 613 1641 613 1641 651 1620 c 128,-1,39
 689 1599 689 1599 718 1567.5 c 128,-1,40
 747 1536 747 1536 764.5 1493 c 128,-1,41
 782 1450 782 1450 782 1394 c 0,42,43
 782 1347 782 1347 767 1310.5 c 128,-1,44
 752 1274 752 1274 727.5 1246 c 128,-1,45
 703 1218 703 1218 673 1198 c 128,-1,46
 643 1178 643 1178 612.5 1165.5 c 128,-1,47
 582 1153 582 1153 554 1147.5 c 128,-1,48
 526 1142 526 1142 507 1142 c 1,49,50
 545 1134 545 1134 597.5 1116.5 c 128,-1,51
 650 1099 650 1099 698 1063.5 c 128,-1,52
 746 1028 746 1028 779.5 972.5 c 128,-1,53
 813 917 813 917 813 835 c 256,54,55
 813 753 813 753 780.5 695 c 128,-1,56
 748 637 748 637 694 600 c 128,-1,57
 640 563 640 563 570.5 546 c 128,-1,58
 501 529 501 529 427 529 c 0,59,60
 336 529 336 529 248.5 552.5 c 128,-1,61
 161 576 161 576 96 618 c 1,62,-1
 144 798 l 1,0,1
EndSplineSet
Validated: 1
EndChar

StartChar: acute
Encoding: 180 180 120
Width: 1133
Flags: W
VStem: 416 545
LayerCount: 2
Fore
SplineSet
416 295 m 1,0,-1
 630 929 l 1,1,-1
 961 773 l 1,2,-1
 589 214 l 1,3,-1
 416 295 l 1,0,-1
EndSplineSet
Validated: 1
EndChar

StartChar: uni00B5
Encoding: 181 181 121
Width: 1415
Flags: W
HStem: -27 251<578.984 779.324> 0 21G<962.82 1239> 1178 20G<165 538 860 1239>
VStem: 165 373<389 1198> 165 304<-291 96.5> 860 379<270.281 1198>
LayerCount: 2
Fore
SplineSet
469 -291 m 1,0,-1
 165 -291 l 1,1,-1
 165 512 l 1,2,-1
 469 512 l 1,3,-1
 469 -291 l 1,0,-1
538 435 m 2,4,5
 538 389 538 389 544.5 350 c 128,-1,6
 551 311 551 311 568 283 c 128,-1,7
 585 255 585 255 614 239.5 c 128,-1,8
 643 224 643 224 688 224 c 0,9,10
 745 224 745 224 785.5 249 c 128,-1,11
 826 274 826 274 860 317 c 1,12,-1
 860 1198 l 1,13,-1
 1239 1198 l 1,14,-1
 1239 0 l 1,15,-1
 972 0 l 1,16,-1
 888 183 l 1,17,18
 875 127 875 127 849 87.5 c 128,-1,19
 823 48 823 48 786.5 22.5 c 128,-1,20
 750 -3 750 -3 704.5 -15 c 128,-1,21
 659 -27 659 -27 608 -27 c 0,22,23
 381 -27 381 -27 273 96.5 c 128,-1,24
 165 220 165 220 165 464 c 2,25,-1
 165 1198 l 1,26,-1
 538 1198 l 1,27,-1
 538 435 l 2,4,5
EndSplineSet
Validated: 5
EndChar

StartChar: paragraph
Encoding: 182 182 122
Width: 1519
Flags: W
HStem: 0 21G<652 927 1066 1338> 1474 155<927 1066>
VStem: 67 860<963.354 1389.5> 652 275<0 715> 1066 272<0 1474>
LayerCount: 2
Fore
SplineSet
1338 0 m 1,0,-1
 1066 0 l 1,1,-1
 1066 1474 l 1,2,-1
 927 1474 l 1,3,-1
 927 0 l 1,4,-1
 652 0 l 1,5,-1
 652 715 l 1,6,7
 575 715 575 715 501.5 724.5 c 128,-1,8
 428 734 428 734 363 755.5 c 128,-1,9
 298 777 298 777 243.5 812 c 128,-1,10
 189 847 189 847 150 899 c 128,-1,11
 111 951 111 951 89 1021.5 c 128,-1,12
 67 1092 67 1092 67 1184 c 0,13,14
 67 1281 67 1281 94.5 1351.5 c 128,-1,15
 122 1422 122 1422 168.5 1471.5 c 128,-1,16
 215 1521 215 1521 277.5 1552 c 128,-1,17
 340 1583 340 1583 410 1600 c 128,-1,18
 480 1617 480 1617 553.5 1623 c 128,-1,19
 627 1629 627 1629 697 1629 c 2,20,-1
 1338 1629 l 1,21,-1
 1338 0 l 1,0,-1
EndSplineSet
Validated: 1
EndChar

StartChar: periodcentered
Encoding: 183 183 123
Width: 712
Flags: W
HStem: 523 440<132 579>
VStem: 132 447<523 963>
LayerCount: 2
Fore
SplineSet
132 963 m 1,0,-1
 579 963 l 1,1,-1
 579 523 l 1,2,-1
 132 523 l 1,3,-1
 132 963 l 1,0,-1
EndSplineSet
Validated: 1
EndChar

StartChar: cedilla
Encoding: 184 184 124
Width: 689
Flags: W
HStem: -696 156<95.95 380.172> -287 120<260 344.32>
VStem: 396 206<-523.898 -336.072>
LayerCount: 2
Fore
SplineSet
74 -495 m 1,0,1
 104 -508 104 -508 137 -518 c 0,2,3
 165 -526 165 -526 199.5 -533 c 128,-1,4
 234 -540 234 -540 269 -540 c 0,5,6
 294 -540 294 -540 317 -536 c 128,-1,7
 340 -532 340 -532 357.5 -520 c 128,-1,8
 375 -508 375 -508 385.5 -487.5 c 128,-1,9
 396 -467 396 -467 396 -434 c 0,10,11
 396 -356 396 -356 328.5 -321.5 c 128,-1,12
 261 -287 261 -287 127 -287 c 1,13,-1
 149 19 l 1,14,-1
 273 19 l 1,15,-1
 260 -167 l 1,16,17
 289 -167 289 -167 325.5 -172.5 c 128,-1,18
 362 -178 362 -178 400 -191 c 128,-1,19
 438 -204 438 -204 474 -224 c 128,-1,20
 510 -244 510 -244 538.5 -274 c 128,-1,21
 567 -304 567 -304 584.5 -343.5 c 128,-1,22
 602 -383 602 -383 602 -434 c 0,23,24
 602 -494 602 -494 580.5 -542.5 c 128,-1,25
 559 -591 559 -591 519.5 -625 c 128,-1,26
 480 -659 480 -659 424 -677.5 c 128,-1,27
 368 -696 368 -696 299 -696 c 0,28,29
 245 -696 245 -696 203 -687 c 128,-1,30
 161 -678 161 -678 132 -667 c 128,-1,31
 103 -656 103 -656 88 -647 c 128,-1,32
 73 -638 73 -638 74 -638 c 1,33,-1
 74 -495 l 1,0,1
EndSplineSet
Validated: 1
EndChar

StartChar: uni00B9
Encoding: 185 185 125
Width: 661
Flags: W
VStem: 292 222<478 1235>
LayerCount: 2
Fore
SplineSet
292 1235 m 1,0,-1
 112 1163 l 1,1,-1
 45 1334 l 1,2,-1
 312 1440 l 1,3,-1
 514 1414 l 1,4,-1
 514 478 l 1,5,-1
 292 478 l 1,6,-1
 292 1235 l 1,0,-1
EndSplineSet
Validated: 1
EndChar

StartChar: ordmasculine
Encoding: 186 186 126
Width: 1059
Flags: W
HStem: 446 129<190 874> 670 127<378.239 678.38> 1512 126<377.766 677.675>
VStem: 104 157<928.244 1379.51> 795 158<927.281 1379.01>
LayerCount: 2
Fore
SplineSet
528 670 m 0,0,1
 420 670 420 670 340.5 707.5 c 128,-1,2
 261 745 261 745 208.5 810 c 128,-1,3
 156 875 156 875 130 963 c 128,-1,4
 104 1051 104 1051 104 1152 c 0,5,6
 104 1251 104 1251 129.5 1339 c 128,-1,7
 155 1427 155 1427 207.5 1493.5 c 128,-1,8
 260 1560 260 1560 339.5 1599 c 128,-1,9
 419 1638 419 1638 528 1638 c 256,10,11
 637 1638 637 1638 717 1599 c 128,-1,12
 797 1560 797 1560 849.5 1493.5 c 128,-1,13
 902 1427 902 1427 927.5 1339 c 128,-1,14
 953 1251 953 1251 953 1152 c 0,15,16
 953 1052 953 1052 927.5 964.5 c 128,-1,17
 902 877 902 877 849.5 811.5 c 128,-1,18
 797 746 797 746 717 708 c 128,-1,19
 637 670 637 670 528 670 c 0,0,1
528 797 m 256,20,21
 600 797 600 797 650.5 823.5 c 128,-1,22
 701 850 701 850 733 897.5 c 128,-1,23
 765 945 765 945 780 1010.5 c 128,-1,24
 795 1076 795 1076 795 1154 c 0,25,26
 795 1230 795 1230 780 1295.5 c 128,-1,27
 765 1361 765 1361 733 1409 c 128,-1,28
 701 1457 701 1457 650.5 1484.5 c 128,-1,29
 600 1512 600 1512 528 1512 c 256,30,31
 456 1512 456 1512 405.5 1485 c 128,-1,32
 355 1458 355 1458 323 1410 c 128,-1,33
 291 1362 291 1362 276 1296.5 c 128,-1,34
 261 1231 261 1231 261 1154 c 256,35,36
 261 1077 261 1077 276 1011.5 c 128,-1,37
 291 946 291 946 323 898.5 c 128,-1,38
 355 851 355 851 405.5 824 c 128,-1,39
 456 797 456 797 528 797 c 256,20,21
190 575 m 1,40,-1
 874 575 l 1,41,-1
 874 446 l 1,42,-1
 190 446 l 1,43,-1
 190 575 l 1,40,-1
EndSplineSet
Validated: 1
EndChar

StartChar: guillemotright
Encoding: 187 187 127
Width: 1872
Flags: W
LayerCount: 2
Fore
SplineSet
116 1255 m 1,0,-1
 968 722 l 1,1,-1
 968 466 l 1,2,-1
 116 -68 l 1,3,-1
 116 293 l 1,4,-1
 617 598 l 1,5,-1
 116 893 l 1,6,-1
 116 1255 l 1,0,-1
966 1255 m 1,7,-1
 1818 722 l 1,8,-1
 1818 466 l 1,9,-1
 966 -68 l 1,10,-1
 966 293 l 1,11,-1
 1467 598 l 1,12,-1
 966 893 l 1,13,-1
 966 1255 l 1,7,-1
EndSplineSet
Validated: 1
EndChar

StartChar: onequarter
Encoding: 188 188 128
Width: 2037
Flags: W
HStem: 105 222<1395 1556 1818 1961>
VStem: 266 283<408 1134> 1556 262<-117 105 329 607>
LayerCount: 2
Fore
SplineSet
1556 327 m 1,0,-1
 1556 607 l 1,1,-1
 1395 327 l 1,2,-1
 1556 327 l 1,0,-1
1818 1007 m 1,3,-1
 1818 329 l 1,4,-1
 1961 329 l 1,5,-1
 1961 105 l 1,6,-1
 1818 105 l 1,7,-1
 1818 -117 l 1,8,-1
 1557 -117 l 1,9,-1
 1557 105 l 1,10,-1
 1100 105 l 1,11,-1
 1065 277 l 1,12,-1
 1597 1065 l 1,13,-1
 1818 1007 l 1,3,-1
1188 1609 m 1,14,-1
 1431 1525 l 1,15,-1
 727 -109 l 1,16,-1
 491 -30 l 1,17,-1
 1188 1609 l 1,14,-1
266 1134 m 1,18,-1
 141 1079 l 1,19,-1
 60 1285 l 1,20,-1
 360 1402 l 1,21,-1
 549 1360 l 1,22,-1
 549 408 l 1,23,-1
 266 408 l 1,24,-1
 266 1134 l 1,18,-1
EndSplineSet
Validated: 1
EndChar

StartChar: onehalf
Encoding: 189 189 129
Width: 2189
Flags: W
HStem: 126 227<1764 2061> 886 222<1506.42 1772.63>
VStem: 265 284<408 1134> 1801 284<664.655 863.507>
LayerCount: 2
Fore
SplineSet
1801 770 m 0,0,1
 1801 829 1801 829 1773.5 857.5 c 128,-1,2
 1746 886 1746 886 1679 886 c 0,3,4
 1657 886 1657 886 1626 879 c 128,-1,5
 1595 872 1595 872 1558.5 860 c 128,-1,6
 1522 848 1522 848 1481.5 831.5 c 128,-1,7
 1441 815 1441 815 1401 797 c 1,8,-1
 1320 998 l 1,9,10
 1368 1017 1368 1017 1414.5 1037 c 128,-1,11
 1461 1057 1461 1057 1507.5 1072.5 c 128,-1,12
 1554 1088 1554 1088 1601.5 1098 c 128,-1,13
 1649 1108 1649 1108 1698 1108 c 0,14,15
 1767 1108 1767 1108 1836 1093.5 c 128,-1,16
 1905 1079 1905 1079 1960.5 1045 c 128,-1,17
 2016 1011 2016 1011 2050.5 954.5 c 128,-1,18
 2085 898 2085 898 2085 813 c 0,19,20
 2085 763 2085 763 2074.5 720.5 c 128,-1,21
 2064 678 2064 678 2039 636 c 128,-1,22
 2014 594 2014 594 1974 550 c 128,-1,23
 1934 506 1934 506 1875 453 c 2,24,-1
 1764 353 l 1,25,-1
 2061 353 l 1,26,-1
 2061 126 l 1,27,-1
 1346 126 l 1,28,-1
 1346 309 l 1,29,30
 1417 369 1417 369 1486.5 428 c 128,-1,31
 1556 487 1556 487 1627 547 c 0,32,33
 1643 560 1643 560 1672 582.5 c 128,-1,34
 1701 605 1701 605 1729.5 634 c 128,-1,35
 1758 663 1758 663 1779.5 697.5 c 128,-1,36
 1801 732 1801 732 1801 770 c 0,0,1
265 1134 m 1,37,-1
 141 1079 l 1,38,-1
 60 1285 l 1,39,-1
 359 1402 l 1,40,-1
 549 1360 l 1,41,-1
 549 408 l 1,42,-1
 265 408 l 1,43,-1
 265 1134 l 1,37,-1
1190 1609 m 1,44,-1
 1433 1525 l 1,45,-1
 729 -109 l 1,46,-1
 493 -30 l 1,47,-1
 1190 1609 l 1,44,-1
EndSplineSet
Validated: 1
EndChar

StartChar: threequarters
Encoding: 190 190 130
Width: 2184
Flags: W
HStem: 105 222<1541 1734 1975 2117> 409 220<181.424 518.224> 900 210<316 496.289> 1321 223<213.715 504.385>
VStem: 541 266<1152.79 1302.66> 560 276<655.132 840.694> 1734 241<-117 105 327 618>
LayerCount: 2
Fore
SplineSet
1734 327 m 1,0,-1
 1734 618 l 1,1,-1
 1541 327 l 1,2,-1
 1734 327 l 1,0,-1
1975 1007 m 1,3,-1
 1975 326 l 1,4,-1
 2117 326 l 1,5,-1
 2117 105 l 1,6,-1
 1975 105 l 1,7,-1
 1975 -117 l 1,8,-1
 1735 -117 l 1,9,-1
 1735 105 l 1,10,-1
 1256 105 l 1,11,-1
 1221 277 l 1,12,-1
 1753 1065 l 1,13,-1
 1975 1007 l 1,3,-1
1343 1609 m 1,14,-1
 1587 1525 l 1,15,-1
 884 -109 l 1,16,-1
 647 -30 l 1,17,-1
 1343 1609 l 1,14,-1
541 1236 m 1,18,19
 541 1280 541 1280 505.5 1300.5 c 128,-1,20
 470 1321 470 1321 413 1321 c 0,21,22
 392 1321 392 1321 364.5 1316.5 c 128,-1,23
 337 1312 337 1312 306 1304 c 128,-1,24
 275 1296 275 1296 242 1285.5 c 128,-1,25
 209 1275 209 1275 178 1263 c 1,26,-1
 80 1458 l 1,27,28
 103 1471 103 1471 135.5 1486.5 c 128,-1,29
 168 1502 168 1502 207.5 1514.5 c 128,-1,30
 247 1527 247 1527 293.5 1535.5 c 128,-1,31
 340 1544 340 1544 390 1544 c 0,32,33
 484 1544 484 1544 561 1528 c 128,-1,34
 638 1512 638 1512 692.5 1475 c 128,-1,35
 747 1438 747 1438 777 1377.5 c 128,-1,36
 807 1317 807 1317 807 1229 c 0,37,38
 807 1194 807 1194 797 1158.5 c 128,-1,39
 787 1123 787 1123 767 1092.5 c 128,-1,40
 747 1062 747 1062 717.5 1038.5 c 128,-1,41
 688 1015 688 1015 649 1004 c 1,42,43
 691 993 691 993 725.5 967.5 c 128,-1,44
 760 942 760 942 784.5 908 c 128,-1,45
 809 874 809 874 822.5 834.5 c 128,-1,46
 836 795 836 795 836 756 c 0,47,48
 836 661 836 661 802.5 595 c 128,-1,49
 769 529 769 529 709 487.5 c 128,-1,50
 649 446 649 446 566.5 427.5 c 128,-1,51
 484 409 484 409 387 409 c 0,52,53
 359 409 359 409 318.5 412.5 c 128,-1,54
 278 416 278 416 236.5 423 c 128,-1,55
 195 430 195 430 158 440 c 128,-1,56
 121 450 121 450 100 463 c 1,57,-1
 170 679 l 2,58,59
 169 679 169 679 188.5 671 c 128,-1,60
 208 663 208 663 240.5 654 c 128,-1,61
 273 645 273 645 314 637 c 128,-1,62
 355 629 355 629 397 629 c 0,63,64
 479 629 479 629 519.5 656 c 128,-1,65
 560 683 560 683 560 751 c 0,66,67
 560 787 560 787 539.5 815 c 128,-1,68
 519 843 519 843 485 862 c 128,-1,69
 451 881 451 881 407 890.5 c 128,-1,70
 363 900 363 900 316 900 c 1,71,-1
 316 1110 l 1,72,73
 360 1110 360 1110 400 1116.5 c 128,-1,74
 440 1123 440 1123 471 1137.5 c 128,-1,75
 502 1152 502 1152 520.5 1176 c 128,-1,76
 539 1200 539 1200 541 1236 c 1,18,19
EndSplineSet
Validated: 1
EndChar

StartChar: questiondown
Encoding: 191 191 131
Width: 1183
Flags: W
HStem: -119 293<474.761 947.817> 1144 420<583.173 847.021>
VStem: 73 363<213.94 428.885> 510 410<1215.56 1490.91> 562 345<775.291 1039>
LayerCount: 2
Fore
SplineSet
920 1350 m 2,0,1
 920 1303 920 1303 904.5 1265 c 128,-1,2
 889 1227 889 1227 861 1200 c 128,-1,3
 833 1173 833 1173 794.5 1158.5 c 128,-1,4
 756 1144 756 1144 711 1144 c 0,5,6
 664 1144 664 1144 626.5 1160 c 128,-1,7
 589 1176 589 1176 563 1204.5 c 128,-1,8
 537 1233 537 1233 523.5 1272 c 128,-1,9
 510 1311 510 1311 510 1358 c 256,10,11
 510 1405 510 1405 526 1443 c 128,-1,12
 542 1481 542 1481 570 1508 c 128,-1,13
 598 1535 598 1535 636 1549.5 c 128,-1,14
 674 1564 674 1564 718 1564 c 256,15,16
 762 1564 762 1564 799 1548 c 128,-1,17
 836 1532 836 1532 863 1505 c 128,-1,18
 890 1478 890 1478 905 1441.5 c 128,-1,19
 920 1405 920 1405 920 1365 c 2,20,-1
 920 1350 l 2,0,1
436 322 m 0,21,22
 436 268 436 268 457.5 238 c 128,-1,23
 479 208 479 208 514.5 193.5 c 128,-1,24
 550 179 550 179 596 176.5 c 128,-1,25
 642 174 642 174 691 174 c 0,26,27
 724 174 724 174 763 179 c 128,-1,28
 802 184 802 184 840.5 192 c 128,-1,29
 879 200 879 200 914.5 209.5 c 128,-1,30
 950 219 950 219 977.5 227 c 128,-1,31
 1005 235 1005 235 1021.5 240.5 c 128,-1,32
 1038 246 1038 246 1038 247 c 2,33,-1
 1123 -25 l 1,34,35
 1067 -53 1067 -53 1013 -71.5 c 128,-1,36
 959 -90 959 -90 902 -100.5 c 128,-1,37
 845 -111 845 -111 784.5 -115 c 128,-1,38
 724 -119 724 -119 657 -119 c 0,39,40
 530 -119 530 -119 423 -96.5 c 128,-1,41
 316 -74 316 -74 238 -23.5 c 128,-1,42
 160 27 160 27 116.5 108.5 c 128,-1,43
 73 190 73 190 73 307 c 0,44,45
 73 330 73 330 76.5 365.5 c 128,-1,46
 80 401 80 401 95.5 443 c 128,-1,47
 111 485 111 485 141.5 532 c 128,-1,48
 172 579 172 579 226.5 624.5 c 128,-1,49
 281 670 281 670 363 712.5 c 128,-1,50
 445 755 445 755 562 788 c 1,51,-1
 562 1039 l 1,52,-1
 907 1039 l 1,53,-1
 907 624 l 1,54,55
 868 610 868 610 818 595 c 128,-1,56
 768 580 768 580 716 561 c 128,-1,57
 664 542 664 542 613.5 519.5 c 128,-1,58
 563 497 563 497 523.5 468 c 128,-1,59
 484 439 484 439 460 403 c 128,-1,60
 436 367 436 367 436 322 c 0,21,22
EndSplineSet
Validated: 1
EndChar

StartChar: AE
Encoding: 198 198 138
Width: 1995
Flags: W
HStem: 0 245<1199 1901> 359 181<523 807> 764 211<1199 1795> 1384 246<1199 1892>
VStem: 807 392<245 359 540 764 975 1375>
LayerCount: 2
Fore
SplineSet
807 1375 m 1,0,-1
 523 540 l 1,1,-1
 807 540 l 1,2,-1
 807 1375 l 1,0,-1
1892 1384 m 1,3,-1
 1199 1384 l 1,4,-1
 1199 975 l 1,5,-1
 1795 975 l 1,6,-1
 1795 764 l 1,7,-1
 1199 764 l 1,8,-1
 1199 245 l 1,9,-1
 1901 245 l 1,10,-1
 1901 0 l 1,11,-1
 807 0 l 1,12,-1
 807 359 l 1,13,-1
 475 359 l 1,14,-1
 357 0 l 1,15,-1
 -29 0 l 1,16,-1
 590 1630 l 1,17,-1
 1892 1630 l 1,18,-1
 1892 1384 l 1,3,-1
EndSplineSet
Validated: 1
EndChar

StartChar: Eth
Encoding: 208 208 148
Width: 1641
Flags: W
HStem: 0 245<591 930.898> 699 249<29 193 591 866> 1395 235<591 924.882>
VStem: 193 398<245 699 948 1395> 1154 399<478.192 1141.65>
LayerCount: 2
Fore
SplineSet
1154 810 m 256,0,1
 1154 891 1154 891 1149 966 c 128,-1,2
 1144 1041 1144 1041 1127 1106 c 128,-1,3
 1110 1171 1110 1171 1078 1224 c 128,-1,4
 1046 1277 1046 1277 992.5 1315 c 128,-1,5
 939 1353 939 1353 860.5 1374 c 128,-1,6
 782 1395 782 1395 672 1395 c 2,7,-1
 591 1395 l 1,8,-1
 591 948 l 1,9,-1
 866 948 l 1,10,-1
 866 699 l 1,11,-1
 591 699 l 1,12,-1
 591 245 l 1,13,-1
 672 245 l 2,14,15
 779 245 779 245 856.5 264.5 c 128,-1,16
 934 284 934 284 987.5 319.5 c 128,-1,17
 1041 355 1041 355 1074 406 c 128,-1,18
 1107 457 1107 457 1124.5 519.5 c 128,-1,19
 1142 582 1142 582 1148 655.5 c 128,-1,20
 1154 729 1154 729 1154 810 c 256,0,1
1553 807 m 0,21,22
 1553 610 1553 610 1502 459.5 c 128,-1,23
 1451 309 1451 309 1346.5 207 c 128,-1,24
 1242 105 1242 105 1082 52.5 c 128,-1,25
 922 0 922 0 704 0 c 2,26,-1
 193 0 l 1,27,-1
 193 699 l 1,28,-1
 29 699 l 1,29,-1
 29 948 l 1,30,-1
 193 948 l 1,31,-1
 193 1630 l 1,32,-1
 704 1630 l 2,33,34
 1126 1630 1126 1630 1339.5 1426 c 128,-1,35
 1553 1222 1553 1222 1553 807 c 0,21,22
EndSplineSet
Validated: 1
EndChar

StartChar: multiply
Encoding: 215 215 155
Width: 1192
Flags: W
LayerCount: 2
Fore
SplineSet
299 1050 m 1,0,-1
 595 771 l 1,1,-1
 892 1050 l 1,2,-1
 1089 834 l 1,3,-1
 807 572 l 1,4,-1
 1089 308 l 1,5,-1
 892 93 l 1,6,-1
 595 371 l 1,7,-1
 299 93 l 1,8,-1
 103 308 l 1,9,-1
 384 572 l 1,10,-1
 103 834 l 1,11,-1
 299 1050 l 1,0,-1
EndSplineSet
Validated: 1
EndChar

StartChar: Oslash
Encoding: 216 216 156
Width: 1663
Flags: W
HStem: -28 286<736.103 999.453> 1371 286<663.07 995.441>
VStem: 93 398<461.028 1152.05> 1174 397<478.26 1152.62>
LayerCount: 2
Fore
SplineSet
480 40 m 1,0,1
 379 86 379 86 306 160.5 c 128,-1,2
 233 235 233 235 185.5 334.5 c 128,-1,3
 138 434 138 434 115.5 555.5 c 128,-1,4
 93 677 93 677 93 816 c 0,5,6
 93 1006 93 1006 136 1161 c 128,-1,7
 179 1316 179 1316 269.5 1426.5 c 128,-1,8
 360 1537 360 1537 500 1597 c 128,-1,9
 640 1657 640 1657 833 1657 c 0,10,11
 981 1657 981 1657 1115 1618 c 1,12,-1
 1187 1799 l 1,13,-1
 1326 1753 l 1,14,-1
 1247 1557 l 1,15,16
 1409 1457 1409 1457 1490 1269 c 128,-1,17
 1571 1081 1571 1081 1571 816 c 0,18,19
 1571 621 1571 621 1526.5 464.5 c 128,-1,20
 1482 308 1482 308 1391 198.5 c 128,-1,21
 1300 89 1300 89 1161 30.5 c 128,-1,22
 1022 -28 1022 -28 832 -28 c 0,23,24
 705 -28 705 -28 623 -7 c 1,25,-1
 557 -174 l 1,26,-1
 413 -128 l 1,27,-1
 480 40 l 1,0,1
735 271 m 1,28,29
 766 263 766 263 789.5 260.5 c 128,-1,30
 813 258 813 258 832 258 c 0,31,32
 934 258 934 258 1000 302 c 128,-1,33
 1066 346 1066 346 1105 422 c 128,-1,34
 1144 498 1144 498 1159 599.5 c 128,-1,35
 1174 701 1174 701 1174 816 c 256,36,37
 1174 931 1174 931 1161 1026 c 128,-1,38
 1148 1121 1148 1121 1108 1206 c 1,39,-1
 735 271 l 1,28,29
609 311 m 1,40,41
 613 321 613 321 613 333 c 0,42,43
 613 346 613 346 606 352 c 1,44,-1
 997 1328 l 1,45,46
 959 1348 959 1348 920.5 1359.5 c 128,-1,47
 882 1371 882 1371 831 1371 c 0,48,49
 732 1371 732 1371 666.5 1329 c 128,-1,50
 601 1287 601 1287 562 1212.5 c 128,-1,51
 523 1138 523 1138 507 1036.5 c 128,-1,52
 491 935 491 935 491 816 c 0,53,54
 491 739 491 739 497 666.5 c 128,-1,55
 503 594 503 594 516.5 529.5 c 128,-1,56
 530 465 530 465 552.5 409.5 c 128,-1,57
 575 354 575 354 609 311 c 1,40,41
EndSplineSet
Validated: 1
EndChar

StartChar: Thorn
Encoding: 222 222 162
Width: 1383
Flags: W
HStem: 137 246<645.695 859.851> 1144 253<646.287 844.258> 1610 20G<162 519>
VStem: 162 378<-249 280 445.324 1108.37> 162 357<1216 1630> 930 383<465.953 1039.58>
LayerCount: 2
Fore
SplineSet
930 776 m 0,0,1
 930 959 930 959 880 1051.5 c 128,-1,2
 830 1144 830 1144 734 1144 c 0,3,4
 681 1144 681 1144 647 1135.5 c 128,-1,5
 613 1127 613 1127 592 1113.5 c 128,-1,6
 571 1100 571 1100 560 1084.5 c 128,-1,7
 549 1069 549 1069 540 1055 c 1,8,-1
 540 496 l 1,9,10
 577 441 577 441 630.5 413.5 c 128,-1,11
 684 386 684 386 755 383 c 1,12,13
 799 383 799 383 828.5 401.5 c 128,-1,14
 858 420 858 420 877.5 450.5 c 128,-1,15
 897 481 897 481 907.5 521 c 128,-1,16
 918 561 918 561 923 604.5 c 128,-1,17
 928 648 928 648 929 692.5 c 128,-1,18
 930 737 930 737 930 776 c 0,0,1
833 137 m 0,19,20
 635 137 635 137 540 280 c 1,21,-1
 540 -249 l 1,22,-1
 162 -249 l 1,23,-1
 162 1630 l 1,24,-1
 519 1630 l 1,25,-1
 519 1216 l 1,26,27
 537 1259 537 1259 568.5 1292 c 128,-1,28
 600 1325 600 1325 640 1348.5 c 128,-1,29
 680 1372 680 1372 726 1384 c 128,-1,30
 772 1396 772 1396 819 1397 c 1,31,32
 941 1397 941 1397 1032.5 1350.5 c 128,-1,33
 1124 1304 1124 1304 1186 1220 c 128,-1,34
 1248 1136 1248 1136 1279.5 1019 c 128,-1,35
 1311 902 1311 902 1313 761 c 1,36,37
 1313 611 1313 611 1278.5 494.5 c 128,-1,38
 1244 378 1244 378 1181 298.5 c 128,-1,39
 1118 219 1118 219 1029.5 178 c 128,-1,40
 941 137 941 137 833 137 c 0,19,20
EndSplineSet
Validated: 1
EndChar

StartChar: germandbls
Encoding: 223 223 163
Width: 1616
Flags: W
HStem: -210 303<655 946.681> 0 21G<136 537> 704 233<690 948.05> 1372 259<626.367 992.362>
VStem: 136 401<0 1275.11> 1056 349<1030.96 1311.54> 1171 397<233.191 543.084>
LayerCount: 2
Fore
SplineSet
692 704 m 1,0,1
 691 708 691 708 690.5 716 c 128,-1,2
 690 724 690 724 690 747 c 128,-1,3
 690 770 690 770 690 814.5 c 128,-1,4
 690 859 690 859 690 937 c 1,5,6
 881 937 881 937 968.5 992.5 c 128,-1,7
 1056 1048 1056 1048 1056 1166 c 0,8,9
 1056 1209 1056 1209 1047.5 1246.5 c 128,-1,10
 1039 1284 1039 1284 1011.5 1312 c 128,-1,11
 984 1340 984 1340 933 1356 c 128,-1,12
 882 1372 882 1372 797 1372 c 0,13,14
 721 1372 721 1372 671 1352.5 c 128,-1,15
 621 1333 621 1333 591 1290.5 c 128,-1,16
 561 1248 561 1248 549 1179 c 128,-1,17
 537 1110 537 1110 537 1011 c 2,18,-1
 537 0 l 1,19,-1
 136 0 l 1,20,-1
 136 1011 l 2,21,22
 136 1163 136 1163 174.5 1279 c 128,-1,23
 213 1395 213 1395 293.5 1473 c 128,-1,24
 374 1551 374 1551 499 1591 c 128,-1,25
 624 1631 624 1631 797 1631 c 0,26,27
 929 1631 929 1631 1026 1610 c 128,-1,28
 1123 1589 1123 1589 1190.5 1554 c 128,-1,29
 1258 1519 1258 1519 1300 1473.5 c 128,-1,30
 1342 1428 1342 1428 1365.5 1379.5 c 128,-1,31
 1389 1331 1389 1331 1397 1283 c 128,-1,32
 1405 1235 1405 1235 1405 1194 c 0,33,34
 1405 1132 1405 1132 1386 1074 c 128,-1,35
 1367 1016 1367 1016 1325 968.5 c 128,-1,36
 1283 921 1283 921 1215.5 888 c 128,-1,37
 1148 855 1148 855 1051 844 c 1,38,39
 1312 818 1312 818 1440 697 c 128,-1,40
 1568 576 1568 576 1568 363 c 0,41,42
 1568 265 1568 265 1533.5 184 c 128,-1,43
 1499 103 1499 103 1437 39.5 c 128,-1,44
 1375 -24 1375 -24 1289.5 -71 c 128,-1,45
 1204 -118 1204 -118 1102.5 -149 c 128,-1,46
 1001 -180 1001 -180 887 -195 c 128,-1,47
 773 -210 773 -210 655 -210 c 1,48,-1
 655 93 l 1,49,50
 820 105 820 105 921 130.5 c 128,-1,51
 1022 156 1022 156 1077.5 192 c 128,-1,52
 1133 228 1133 228 1152 273 c 128,-1,53
 1171 318 1171 318 1171 369 c 0,54,55
 1171 539 1171 539 1050 621.5 c 128,-1,56
 929 704 929 704 692 704 c 1,0,1
EndSplineSet
Validated: 1
EndChar

StartChar: ae
Encoding: 230 230 170
Width: 1879
Flags: W
HStem: -15 254<458.706 713.296 1216.64 1593.36> 512 185<1118 1499> 560 195<463.831 766> 876 268<192 355.812> 956 269<332.501 729.119 1183.67 1443.64>
VStem: 64 352<278.146 513.659> 1499 306<697 895.675>
LayerCount: 2
Fore
SplineSet
1499 697 m 1,0,1
 1499 757 1499 757 1489 807 c 128,-1,2
 1479 857 1479 857 1457 893 c 128,-1,3
 1435 929 1435 929 1399 949.5 c 128,-1,4
 1363 970 1363 970 1311 970 c 0,5,6
 1260 970 1260 970 1224.5 947.5 c 128,-1,7
 1189 925 1189 925 1166.5 887.5 c 128,-1,8
 1144 850 1144 850 1132.5 800.5 c 128,-1,9
 1121 751 1121 751 1118 697 c 1,10,-1
 1499 697 l 1,0,1
1744 80 m 2,11,12
 1743 80 1743 80 1727.5 73 c 128,-1,13
 1712 66 1712 66 1685 55.5 c 128,-1,14
 1658 45 1658 45 1621 32.5 c 128,-1,15
 1584 20 1584 20 1540 9.5 c 128,-1,16
 1496 -1 1496 -1 1447.5 -8 c 128,-1,17
 1399 -15 1399 -15 1348 -15 c 0,18,19
 1274 -15 1274 -15 1213 -5.5 c 128,-1,20
 1152 4 1152 4 1100.5 27.5 c 128,-1,21
 1049 51 1049 51 1005.5 91 c 128,-1,22
 962 131 962 131 925 192 c 1,23,24
 887 126 887 126 835.5 85 c 128,-1,25
 784 44 784 44 724.5 21 c 128,-1,26
 665 -2 665 -2 601.5 -10.5 c 128,-1,27
 538 -19 538 -19 477 -19 c 0,28,29
 273 -19 273 -19 168.5 82.5 c 128,-1,30
 64 184 64 184 64 388 c 0,31,32
 64 467 64 467 86.5 524.5 c 128,-1,33
 109 582 109 582 148 622.5 c 128,-1,34
 187 663 187 663 241 689 c 128,-1,35
 295 715 295 715 358.5 729.5 c 128,-1,36
 422 744 422 744 492 749.5 c 128,-1,37
 562 755 562 755 634 755 c 256,38,39
 706 755 706 755 766 746 c 1,40,41
 766 785 766 785 763.5 822.5 c 128,-1,42
 761 860 761 860 746 889.5 c 128,-1,43
 731 919 731 919 699.5 937.5 c 128,-1,44
 668 956 668 956 610 956 c 0,45,46
 564 956 564 956 516 950 c 128,-1,47
 468 944 468 944 422 935 c 128,-1,48
 376 926 376 926 335 916 c 128,-1,49
 294 906 294 906 262.5 897 c 128,-1,50
 231 888 231 888 212 882 c 128,-1,51
 193 876 193 876 192 876 c 2,52,-1
 144 1118 l 2,53,54
 144 1117 144 1117 163.5 1124.5 c 128,-1,55
 183 1132 183 1132 217 1144 c 128,-1,56
 251 1156 251 1156 297 1170 c 128,-1,57
 343 1184 343 1184 396.5 1196.5 c 128,-1,58
 450 1209 450 1209 508.5 1217 c 128,-1,59
 567 1225 567 1225 625 1225 c 0,60,61
 875 1225 875 1225 974 1079 c 1,62,63
 1000 1116 1000 1116 1036 1143.5 c 128,-1,64
 1072 1171 1072 1171 1116.5 1189 c 128,-1,65
 1161 1207 1161 1207 1212 1216 c 128,-1,66
 1263 1225 1263 1225 1318 1225 c 0,67,68
 1433 1225 1433 1225 1524 1185.5 c 128,-1,69
 1615 1146 1615 1146 1677 1075 c 128,-1,70
 1739 1004 1739 1004 1772 905 c 128,-1,71
 1805 806 1805 806 1805 687 c 0,72,73
 1805 643 1805 643 1805 599 c 128,-1,74
 1805 555 1805 555 1806 512 c 1,75,-1
 1118 512 l 1,76,77
 1120 451 1120 451 1136.5 401 c 128,-1,78
 1153 351 1153 351 1183.5 315 c 128,-1,79
 1214 279 1214 279 1259 259 c 128,-1,80
 1304 239 1304 239 1364 239 c 0,81,82
 1423 239 1423 239 1478.5 251.5 c 128,-1,83
 1534 264 1534 264 1577.5 278.5 c 128,-1,84
 1621 293 1621 293 1647.5 305.5 c 128,-1,85
 1674 318 1674 318 1676 318 c 1,86,-1
 1744 80 l 2,11,12
416 401 m 0,87,88
 416 323 416 323 458 279 c 128,-1,89
 500 235 500 235 569 235 c 0,90,91
 626 235 626 235 672.5 259 c 128,-1,92
 719 283 719 283 766 324 c 1,93,-1
 766 554 l 1,94,95
 738 556 738 556 714 558 c 128,-1,96
 690 560 690 560 669 560 c 0,97,98
 606 560 606 560 558.5 552.5 c 128,-1,99
 511 545 511 545 479.5 527 c 128,-1,100
 448 509 448 509 432 478 c 128,-1,101
 416 447 416 447 416 401 c 0,87,88
EndSplineSet
Validated: 1
EndChar

StartChar: igrave
Encoding: 236 236 176
Width: 651
Flags: W
HStem: 0 21G<136 515> 1178 20G<136 515>
VStem: 136 379<0 1198>
LayerCount: 2
Fore
SplineSet
-65 1892 m 1,0,-1
 265 2048 l 1,1,-1
 479 1415 l 1,2,-1
 308 1334 l 1,3,-1
 -65 1892 l 1,0,-1
136 0 m 1,4,-1
 136 1198 l 1,5,-1
 515 1198 l 1,6,-1
 515 0 l 1,7,-1
 136 0 l 1,4,-1
EndSplineSet
Validated: 1
EndChar

StartChar: iacute
Encoding: 237 237 177
Width: 651
Flags: W
HStem: 0 21G<136 515> 1178 20G<136 515>
VStem: 136 379<0 1198>
LayerCount: 2
Fore
SplineSet
139 1372 m 1,0,-1
 353 2005 l 1,1,-1
 684 1850 l 1,2,-1
 311 1291 l 1,3,-1
 139 1372 l 1,0,-1
136 0 m 1,4,-1
 136 1198 l 1,5,-1
 515 1198 l 1,6,-1
 515 0 l 1,7,-1
 136 0 l 1,4,-1
EndSplineSet
Validated: 1
EndChar

StartChar: icircumflex
Encoding: 238 238 178
Width: 651
Flags: W
HStem: 0 21G<136 515> 1178 20G<136 515>
VStem: 136 379<0 1198>
LayerCount: 2
Fore
SplineSet
437 1931 m 1,0,-1
 699 1289 l 1,1,-1
 401 1289 l 1,2,-1
 296 1685 l 1,3,-1
 191 1281 l 1,4,-1
 -105 1281 l 1,5,-1
 158 1931 l 1,6,-1
 437 1931 l 1,0,-1
136 0 m 1,7,-1
 136 1198 l 1,8,-1
 515 1198 l 1,9,-1
 515 0 l 1,10,-1
 136 0 l 1,7,-1
EndSplineSet
Validated: 1
EndChar

StartChar: idieresis
Encoding: 239 239 179
Width: 651
Flags: W
HStem: 0 21G<136 515> 1178 20G<136 515> 1275 417<-185.785 74.6968 524.215 784.697>
VStem: -264 419<1354.48 1612.55> 136 379<0 1198> 446 419<1354.48 1612.55>
LayerCount: 2
Fore
SplineSet
-264 1483 m 0,0,1
 -264 1528 -264 1528 -248 1566 c 128,-1,2
 -232 1604 -232 1604 -203.5 1632 c 128,-1,3
 -175 1660 -175 1660 -137.5 1676 c 128,-1,4
 -100 1692 -100 1692 -56 1692 c 0,5,6
 -13 1692 -13 1692 25.5 1676 c 128,-1,7
 64 1660 64 1660 92.5 1632 c 128,-1,8
 121 1604 121 1604 138 1566 c 128,-1,9
 155 1528 155 1528 155 1483 c 0,10,11
 155 1439 155 1439 138 1401 c 128,-1,12
 121 1363 121 1363 92.5 1335 c 128,-1,13
 64 1307 64 1307 25.5 1291 c 128,-1,14
 -13 1275 -13 1275 -56 1275 c 0,15,16
 -101 1275 -101 1275 -139.5 1291.5 c 128,-1,17
 -178 1308 -178 1308 -205.5 1336 c 128,-1,18
 -233 1364 -233 1364 -248.5 1402 c 128,-1,19
 -264 1440 -264 1440 -264 1483 c 0,0,1
446 1483 m 0,20,21
 446 1528 446 1528 462 1566 c 128,-1,22
 478 1604 478 1604 506.5 1632 c 128,-1,23
 535 1660 535 1660 572.5 1676 c 128,-1,24
 610 1692 610 1692 654 1692 c 0,25,26
 697 1692 697 1692 735.5 1676 c 128,-1,27
 774 1660 774 1660 802.5 1632 c 128,-1,28
 831 1604 831 1604 848 1566 c 128,-1,29
 865 1528 865 1528 865 1483 c 0,30,31
 865 1439 865 1439 848 1401 c 128,-1,32
 831 1363 831 1363 802.5 1335 c 128,-1,33
 774 1307 774 1307 735.5 1291 c 128,-1,34
 697 1275 697 1275 654 1275 c 0,35,36
 609 1275 609 1275 571 1291.5 c 128,-1,37
 533 1308 533 1308 505 1336 c 128,-1,38
 477 1364 477 1364 461.5 1402 c 128,-1,39
 446 1440 446 1440 446 1483 c 0,20,21
136 0 m 1,40,-1
 136 1198 l 1,41,-1
 515 1198 l 1,42,-1
 515 0 l 1,43,-1
 136 0 l 1,40,-1
EndSplineSet
Validated: 1
EndChar

StartChar: eth
Encoding: 240 240 180
Width: 1334
Flags: W
HStem: -16 253<548.436 767.992> 974 251<517.642 745.202>
VStem: 80 379<344.086 904.947> 855 377<340.61 924.868>
LayerCount: 2
Fore
SplineSet
1232 624 m 0,0,1
 1232 454 1232 454 1193 333 c 128,-1,2
 1154 212 1154 212 1079 134.5 c 128,-1,3
 1004 57 1004 57 893.5 20.5 c 128,-1,4
 783 -16 783 -16 640 -16 c 256,5,6
 497 -16 497 -16 392 34.5 c 128,-1,7
 287 85 287 85 217.5 171 c 128,-1,8
 148 257 148 257 114 372.5 c 128,-1,9
 80 488 80 488 80 619 c 0,10,11
 80 753 80 753 112 864.5 c 128,-1,12
 144 976 144 976 204 1056 c 128,-1,13
 264 1136 264 1136 349.5 1180.5 c 128,-1,14
 435 1225 435 1225 541 1225 c 256,15,16
 647 1225 647 1225 724 1190.5 c 128,-1,17
 801 1156 801 1156 855 1082 c 1,18,19
 850 1108 850 1108 836 1142.5 c 128,-1,20
 822 1177 822 1177 799 1216 c 128,-1,21
 776 1255 776 1255 745 1296.5 c 128,-1,22
 714 1338 714 1338 677 1378 c 1,23,-1
 436 1300 l 1,24,-1
 392 1460 l 1,25,-1
 544 1510 l 1,26,27
 504 1545 504 1545 466.5 1572 c 128,-1,28
 429 1599 429 1599 391 1620 c 1,29,-1
 553 1811 l 1,30,31
 594 1785 594 1785 626.5 1765 c 128,-1,32
 659 1745 659 1745 690.5 1722.5 c 128,-1,33
 722 1700 722 1700 756.5 1672 c 128,-1,34
 791 1644 791 1644 836 1604 c 1,35,-1
 1141 1703 l 1,36,-1
 1184 1543 l 1,37,-1
 966 1471 l 1,38,39
 1023 1397 1023 1397 1071.5 1312 c 128,-1,40
 1120 1227 1120 1227 1155.5 1124.5 c 128,-1,41
 1191 1022 1191 1022 1211.5 898 c 128,-1,42
 1232 774 1232 774 1232 624 c 0,0,1
459 606 m 0,43,44
 459 538 459 538 468 471.5 c 128,-1,45
 477 405 477 405 499.5 353 c 128,-1,46
 522 301 522 301 560.5 269 c 128,-1,47
 599 237 599 237 658 237 c 0,48,49
 713 237 713 237 751 266 c 128,-1,50
 789 295 789 295 812 342 c 128,-1,51
 835 389 835 389 845 448 c 128,-1,52
 855 507 855 507 855 566 c 0,53,54
 855 651 855 651 854.5 735 c 128,-1,55
 854 819 854 819 854 904 c 1,56,57
 798 936 798 936 743.5 955 c 128,-1,58
 689 974 689 974 620 974 c 0,59,60
 579 974 579 974 551 957.5 c 128,-1,61
 523 941 523 941 505 913 c 128,-1,62
 487 885 487 885 478 848 c 128,-1,63
 469 811 469 811 464.5 770 c 128,-1,64
 460 729 460 729 459.5 686.5 c 128,-1,65
 459 644 459 644 459 606 c 0,43,44
EndSplineSet
Validated: 1
EndChar

StartChar: divide
Encoding: 247 247 187
Width: 1236
Flags: W
HStem: 108 417<495.957 752.148> 621 284<84 1153> 1004 417<492.137 750.043>
VStem: 421 407<183.354 448.384 1081.54 1340.77>
LayerCount: 2
Fore
SplineSet
418 1212 m 0,0,1
 418 1256 418 1256 433 1294.5 c 128,-1,2
 448 1333 448 1333 475 1361 c 128,-1,3
 502 1389 502 1389 539.5 1405 c 128,-1,4
 577 1421 577 1421 621 1421 c 256,5,6
 665 1421 665 1421 702.5 1405 c 128,-1,7
 740 1389 740 1389 767 1360.5 c 128,-1,8
 794 1332 794 1332 809.5 1294 c 128,-1,9
 825 1256 825 1256 825 1212 c 256,10,11
 825 1168 825 1168 810 1130 c 128,-1,12
 795 1092 795 1092 768 1064 c 128,-1,13
 741 1036 741 1036 703.5 1020 c 128,-1,14
 666 1004 666 1004 621 1004 c 256,15,16
 576 1004 576 1004 538.5 1020.5 c 128,-1,17
 501 1037 501 1037 474.5 1065 c 128,-1,18
 448 1093 448 1093 433 1131 c 128,-1,19
 418 1169 418 1169 418 1212 c 0,0,1
421 316 m 0,20,21
 421 360 421 360 436.5 398.5 c 128,-1,22
 452 437 452 437 479 465 c 128,-1,23
 506 493 506 493 543.5 509 c 128,-1,24
 581 525 581 525 625 525 c 256,25,26
 669 525 669 525 706 508.5 c 128,-1,27
 743 492 743 492 770 464 c 128,-1,28
 797 436 797 436 812.5 397.5 c 128,-1,29
 828 359 828 359 828 316 c 0,30,31
 828 272 828 272 813 234.5 c 128,-1,32
 798 197 798 197 771 168.5 c 128,-1,33
 744 140 744 140 707 124 c 128,-1,34
 670 108 670 108 625 108 c 256,35,36
 580 108 580 108 542.5 124.5 c 128,-1,37
 505 141 505 141 478 169.5 c 128,-1,38
 451 198 451 198 436 235.5 c 128,-1,39
 421 273 421 273 421 316 c 0,20,21
84 621 m 1,40,-1
 84 905 l 1,41,-1
 1153 905 l 1,42,-1
 1153 621 l 1,43,-1
 84 621 l 1,40,-1
EndSplineSet
Validated: 1
EndChar

StartChar: oslash
Encoding: 248 248 188
Width: 1338
Flags: W
HStem: -16 218<598 815.892> 1005 220<516.97 736.465>
VStem: 78 323<364.268 871.817> 951 310<363.319 849.541>
LayerCount: 2
Fore
SplineSet
737 999 m 1,0,1
 714 1005 714 1005 670 1005 c 0,2,3
 646 1005 646 1005 617 1001.5 c 128,-1,4
 588 998 588 998 558.5 985 c 128,-1,5
 529 972 529 972 500.5 947.5 c 128,-1,6
 472 923 472 923 450 881 c 128,-1,7
 428 839 428 839 414.5 777 c 128,-1,8
 401 715 401 715 401 627 c 0,9,10
 401 532 401 532 415.5 465.5 c 128,-1,11
 430 399 430 399 448 357 c 128,-1,12
 466 315 466 315 480 296 c 1,13,-1
 495 278 l 1,14,-1
 495 279 l 1,15,-1
 737 999 l 1,0,1
467 -180 m 1,16,-1
 356 -143 l 1,17,-1
 414 27 l 1,18,19
 246 91 246 91 162 236 c 128,-1,20
 78 381 78 381 78 601 c 0,21,22
 78 748 78 748 118 863.5 c 128,-1,23
 158 979 158 979 233.5 1059.5 c 128,-1,24
 309 1140 309 1140 419 1182.5 c 128,-1,25
 529 1225 529 1225 670 1225 c 0,26,27
 706 1225 706 1225 738.5 1222 c 128,-1,28
 771 1219 771 1219 804 1214 c 1,29,-1
 870 1409 l 1,30,-1
 979 1371 l 1,31,-1
 917 1184 l 1,32,33
 1001 1154 1001 1154 1065 1100.5 c 128,-1,34
 1129 1047 1129 1047 1172.5 972.5 c 128,-1,35
 1216 898 1216 898 1238.5 804.5 c 128,-1,36
 1261 711 1261 711 1261 601 c 0,37,38
 1261 457 1261 457 1222 343 c 128,-1,39
 1183 229 1183 229 1108 149 c 128,-1,40
 1033 69 1033 69 922.5 26.5 c 128,-1,41
 812 -16 812 -16 670 -16 c 0,42,43
 593 -16 593 -16 527 -4 c 1,44,-1
 467 -180 l 1,16,-1
670 202 m 0,45,46
 733 202 733 202 785 228 c 128,-1,47
 837 254 837 254 873.5 305 c 128,-1,48
 910 356 910 356 930.5 431 c 128,-1,49
 951 506 951 506 951 604 c 0,50,51
 951 708 951 708 933.5 772 c 128,-1,52
 916 836 916 836 895 871 c 128,-1,53
 874 906 874 906 856 918 c 128,-1,54
 838 930 838 930 837 930 c 2,55,-1
 598 208 l 1,56,57
 609 204 609 204 626.5 203 c 128,-1,58
 644 202 644 202 670 202 c 0,45,46
EndSplineSet
Validated: 1
EndChar

StartChar: thorn
Encoding: 254 254 194
Width: 1375
Flags: W
HStem: -411 21G<136 514> -16 251<606.531 846.189> 962 253<604.031 825.152> 1611 20G<136 510>
VStem: 136 378<-411 113 292.418 930.806 1079 1631> 910 383<306.298 863.59>
LayerCount: 2
Fore
SplineSet
910 613 m 0,0,1
 910 705 910 705 896.5 771 c 128,-1,2
 883 837 883 837 857.5 879.5 c 128,-1,3
 832 922 832 922 795 942 c 128,-1,4
 758 962 758 962 710 962 c 0,5,6
 660 962 660 962 628 955.5 c 128,-1,7
 596 949 596 949 574.5 939 c 128,-1,8
 553 929 553 929 539.5 916.5 c 128,-1,9
 526 904 526 904 514 891 c 1,10,-1
 514 331 l 1,11,12
 563 281 563 281 619 258 c 128,-1,13
 675 235 675 235 745 235 c 0,14,15
 787 235 787 235 815.5 253 c 128,-1,16
 844 271 844 271 862.5 300.5 c 128,-1,17
 881 330 881 330 890.5 369 c 128,-1,18
 900 408 900 408 904.5 450 c 128,-1,19
 909 492 909 492 909.5 534 c 128,-1,20
 910 576 910 576 910 613 c 0,0,1
787 -16 m 0,21,22
 607 -16 607 -16 514 113 c 1,23,-1
 514 -411 l 1,24,-1
 136 -411 l 1,25,-1
 136 1631 l 1,26,-1
 510 1631 l 1,27,-1
 510 1079 l 1,28,29
 529 1114 529 1114 559 1139.5 c 128,-1,30
 589 1165 589 1165 627 1182 c 128,-1,31
 665 1199 665 1199 709.5 1207 c 128,-1,32
 754 1215 754 1215 802 1215 c 0,33,34
 927 1215 927 1215 1019.5 1168.5 c 128,-1,35
 1112 1122 1112 1122 1172.5 1038.5 c 128,-1,36
 1233 955 1233 955 1263 838.5 c 128,-1,37
 1293 722 1293 722 1293 582 c 0,38,39
 1293 435 1293 435 1256 323.5 c 128,-1,40
 1219 212 1219 212 1152 136.5 c 128,-1,41
 1085 61 1085 61 992 22.5 c 128,-1,42
 899 -16 899 -16 787 -16 c 0,21,22
EndSplineSet
Validated: 1
EndChar

StartChar: dotlessi
Encoding: 305 305 196
Width: 649
Flags: W
HStem: 0 21G<136 513> 1178 20G<136 513>
VStem: 136 377<0 1198>
LayerCount: 2
Fore
SplineSet
136 0 m 1,0,-1
 136 1198 l 1,1,-1
 513 1198 l 1,2,-1
 513 0 l 1,3,-1
 136 0 l 1,0,-1
EndSplineSet
Validated: 1
EndChar

StartChar: OE
Encoding: 338 338 197
Width: 2392
Flags: W
HStem: -28 286<661.251 1001.7> 0 245<1569 2297> 719 245<1569 2195> 1371 286<661.426 1001.69> 1379 251<1569 2287>
VStem: 93 398<474.461 1153.52> 1174 395<461 964>
LayerCount: 2
Fore
SplineSet
1172 0 m 1,0,-1
 1172 1630 l 1,1,-1
 2287 1630 l 1,2,-1
 2287 1379 l 1,3,-1
 1569 1379 l 1,4,-1
 1569 964 l 1,5,-1
 2195 964 l 1,6,-1
 2195 719 l 1,7,-1
 1569 719 l 1,8,-1
 1569 245 l 1,9,-1
 2297 245 l 1,10,-1
 2297 0 l 1,11,-1
 1172 0 l 1,0,-1
1571 814 m 256,12,13
 1571 617 1571 617 1526 461 c 128,-1,14
 1481 305 1481 305 1389.5 196.5 c 128,-1,15
 1298 88 1298 88 1159 30 c 128,-1,16
 1020 -28 1020 -28 832 -28 c 256,17,18
 644 -28 644 -28 505.5 29.5 c 128,-1,19
 367 87 367 87 275 195.5 c 128,-1,20
 183 304 183 304 138 459.5 c 128,-1,21
 93 615 93 615 93 811 c 0,22,23
 93 1010 93 1010 138.5 1167.5 c 128,-1,24
 184 1325 184 1325 276 1433.5 c 128,-1,25
 368 1542 368 1542 507 1599.5 c 128,-1,26
 646 1657 646 1657 832 1657 c 0,27,28
 1019 1657 1019 1657 1158 1599 c 128,-1,29
 1297 1541 1297 1541 1388.5 1432.5 c 128,-1,30
 1480 1324 1480 1324 1525.5 1167.5 c 128,-1,31
 1571 1011 1571 1011 1571 814 c 256,12,13
491 817 m 0,32,33
 491 704 491 704 505 602.5 c 128,-1,34
 519 501 519 501 557 424.5 c 128,-1,35
 595 348 595 348 661 303 c 128,-1,36
 727 258 727 258 832 258 c 0,37,38
 938 258 938 258 1005 304.5 c 128,-1,39
 1072 351 1072 351 1109.5 428.5 c 128,-1,40
 1147 506 1147 506 1160.5 607 c 128,-1,41
 1174 708 1174 708 1174 817 c 0,42,43
 1174 929 1174 929 1159.5 1029.5 c 128,-1,44
 1145 1130 1145 1130 1106.5 1206 c 128,-1,45
 1068 1282 1068 1282 1001.5 1326.5 c 128,-1,46
 935 1371 935 1371 831 1371 c 0,47,48
 726 1371 726 1371 660 1326 c 128,-1,49
 594 1281 594 1281 556.5 1204.5 c 128,-1,50
 519 1128 519 1128 505 1028 c 128,-1,51
 491 928 491 928 491 817 c 0,32,33
EndSplineSet
Validated: 5
EndChar

StartChar: oe
Encoding: 339 339 198
Width: 2062
Flags: W
HStem: -25 254<540.558 791.973 1386.14 1770.53> 512 185<1271 1675> 986 252<540.215 790.241 1356.57 1602.04>
VStem: 72 379<331.868 879.709> 880 391<349.069 512 697 878.166> 1675 306<697 906.98>
LayerCount: 2
Fore
SplineSet
1675 697 m 1,0,1
 1675 846 1675 846 1626 914.5 c 128,-1,2
 1577 983 1577 983 1474 985 c 1,3,4
 1423 983 1423 983 1384.5 961 c 128,-1,5
 1346 939 1346 939 1320.5 901 c 128,-1,6
 1295 863 1295 863 1282.5 811 c 128,-1,7
 1270 759 1270 759 1270 697 c 1,8,-1
 1675 697 l 1,0,1
665 229 m 1,9,10
 718 229 718 229 758.5 249.5 c 128,-1,11
 799 270 799 270 826 315 c 128,-1,12
 853 360 853 360 866.5 431.5 c 128,-1,13
 880 503 880 503 880 605 c 0,14,15
 880 706 880 706 866.5 778 c 128,-1,16
 853 850 853 850 826 896.5 c 128,-1,17
 799 943 799 943 758.5 964.5 c 128,-1,18
 718 986 718 986 665 986 c 0,19,20
 611 986 611 986 571 964.5 c 128,-1,21
 531 943 531 943 504.5 896.5 c 128,-1,22
 478 850 478 850 464.5 778 c 128,-1,23
 451 706 451 706 451 605 c 0,24,25
 451 563 451 563 453 519 c 128,-1,26
 455 475 455 475 462.5 433.5 c 128,-1,27
 470 392 470 392 484 355.5 c 128,-1,28
 498 319 498 319 522 291 c 128,-1,29
 546 263 546 263 581 246.5 c 128,-1,30
 616 230 616 230 665 229 c 1,9,10
1920 69 m 1,31,32
 1823 21 1823 21 1724.5 -3 c 128,-1,33
 1626 -27 1626 -27 1517 -27 c 0,34,35
 1451 -27 1451 -27 1389.5 -20 c 128,-1,36
 1328 -13 1328 -13 1272 7 c 128,-1,37
 1216 27 1216 27 1166.5 62 c 128,-1,38
 1117 97 1117 97 1075 153 c 1,39,40
 1051 114 1051 114 1008.5 81.5 c 128,-1,41
 966 49 966 49 911.5 25 c 128,-1,42
 857 1 857 1 793.5 -12 c 128,-1,43
 730 -25 730 -25 665 -25 c 0,44,45
 522 -25 522 -25 412 16.5 c 128,-1,46
 302 58 302 58 226 138.5 c 128,-1,47
 150 219 150 219 111 335.5 c 128,-1,48
 72 452 72 452 72 602 c 0,49,50
 72 757 72 757 112.5 876 c 128,-1,51
 153 995 153 995 229.5 1075.5 c 128,-1,52
 306 1156 306 1156 416 1197 c 128,-1,53
 526 1238 526 1238 664 1238 c 0,54,55
 727 1238 727 1238 786.5 1229 c 128,-1,56
 846 1220 846 1220 899 1197 c 128,-1,57
 952 1174 952 1174 996 1135.5 c 128,-1,58
 1040 1097 1040 1097 1072 1038 c 1,59,60
 1116 1095 1116 1095 1160 1133 c 128,-1,61
 1204 1171 1204 1171 1253 1194 c 128,-1,62
 1302 1217 1302 1217 1358.5 1226.5 c 128,-1,63
 1415 1236 1415 1236 1484 1236 c 0,64,65
 1606 1236 1606 1236 1699 1195 c 128,-1,66
 1792 1154 1792 1154 1854.5 1081 c 128,-1,67
 1917 1008 1917 1008 1949 907 c 128,-1,68
 1981 806 1981 806 1981 686 c 2,69,-1
 1981 512 l 1,70,-1
 1271 512 l 1,71,72
 1273 450 1273 450 1292.5 397.5 c 128,-1,73
 1312 345 1312 345 1347.5 307 c 128,-1,74
 1383 269 1383 269 1433 248 c 128,-1,75
 1483 227 1483 227 1546 227 c 0,76,77
 1637 227 1637 227 1711.5 250.5 c 128,-1,78
 1786 274 1786 274 1851 321 c 1,79,-1
 1920 69 l 1,31,32
EndSplineSet
Validated: 1
EndChar

StartChar: florin
Encoding: 402 402 204
Width: 944
Flags: W
HStem: -412 280<-32.9399 203.847> 835 154<47 238 618 905> 1232 21G<886.5 903.496> 1255 280<658.153 894.94>
VStem: 239 378<-95.3591 835 989 1211.91>
LayerCount: 2
Fore
SplineSet
239 835 m 1,0,-1
 47 835 l 1,1,-1
 47 989 l 1,2,-1
 238 989 l 1,3,4
 238 1257 238 1257 341.5 1396 c 128,-1,5
 445 1535 445 1535 665 1535 c 0,6,7
 719 1535 719 1535 775 1531 c 128,-1,8
 831 1527 831 1527 897 1510 c 1,9,-1
 904 1232 l 1,10,11
 869 1247 869 1247 833 1251 c 128,-1,12
 797 1255 797 1255 754 1255 c 0,13,14
 722 1255 722 1255 696.5 1243.5 c 128,-1,15
 671 1232 671 1232 653.5 1203.5 c 128,-1,16
 636 1175 636 1175 627 1127 c 128,-1,17
 618 1079 618 1079 618 1006 c 2,18,-1
 618 989 l 1,19,-1
 905 989 l 1,20,-1
 905 835 l 1,21,-1
 617 835 l 1,22,-1
 617 134 l 1,23,24
 624 -134 624 -134 520.5 -273 c 128,-1,25
 417 -412 417 -412 197 -412 c 0,26,27
 143 -412 143 -412 87 -408 c 128,-1,28
 31 -404 31 -404 -35 -387 c 1,29,-1
 -42 -109 l 1,30,31
 -7 -124 -7 -124 29 -128 c 128,-1,32
 65 -132 65 -132 108 -132 c 0,33,34
 140 -132 140 -132 165.5 -120.5 c 128,-1,35
 191 -109 191 -109 208.5 -80.5 c 128,-1,36
 226 -52 226 -52 235 -4 c 128,-1,37
 244 44 244 44 239 117 c 1,38,-1
 239 835 l 1,0,-1
EndSplineSet
Validated: 33
EndChar

StartChar: circumflex
Encoding: 710 710 205
Width: 1250
Flags: W
HStem: 103 652
LayerCount: 2
Fore
SplineSet
808 755 m 1,0,-1
 1072 111 l 1,1,-1
 774 111 l 1,2,-1
 669 509 l 1,3,-1
 562 103 l 1,4,-1
 267 103 l 1,5,-1
 531 755 l 1,6,-1
 808 755 l 1,0,-1
EndSplineSet
Validated: 1
EndChar

StartChar: caron
Encoding: 711 711 206
Width: 1250
Flags: W
HStem: 152 652
LayerCount: 2
Fore
SplineSet
531 152 m 1,0,-1
 267 796 l 1,1,-1
 565 796 l 1,2,-1
 671 398 l 1,3,-1
 776 804 l 1,4,-1
 1072 804 l 1,5,-1
 808 152 l 1,6,-1
 531 152 l 1,0,-1
EndSplineSet
Validated: 1
EndChar

StartChar: ring
Encoding: 730 730 207
Width: 881
Flags: W
HStem: 111 176<316.605 563.646> 658 175<317.924 561.259>
VStem: 51 200<351.89 591.463> 629 201<351.634 590.761>
LayerCount: 2
Fore
SplineSet
251 471 m 256,0,1
 251 432 251 432 266 398 c 128,-1,2
 281 364 281 364 307 339.5 c 128,-1,3
 333 315 333 315 367.5 301 c 128,-1,4
 402 287 402 287 440 287 c 0,5,6
 479 287 479 287 513 301 c 128,-1,7
 547 315 547 315 573 339.5 c 128,-1,8
 599 364 599 364 614 398 c 128,-1,9
 629 432 629 432 629 471 c 0,10,11
 629 511 629 511 613.5 545 c 128,-1,12
 598 579 598 579 572 604 c 128,-1,13
 546 629 546 629 512 643.5 c 128,-1,14
 478 658 478 658 440 658 c 0,15,16
 401 658 401 658 366.5 643.5 c 128,-1,17
 332 629 332 629 306.5 603.5 c 128,-1,18
 281 578 281 578 266 544 c 128,-1,19
 251 510 251 510 251 471 c 256,0,1
441 833 m 0,20,21
 519 833 519 833 589.5 806 c 128,-1,22
 660 779 660 779 713.5 730 c 128,-1,23
 767 681 767 681 798.5 614 c 128,-1,24
 830 547 830 547 830 467 c 0,25,26
 830 386 830 386 796 320 c 128,-1,27
 762 254 762 254 705.5 207.5 c 128,-1,28
 649 161 649 161 577 136 c 128,-1,29
 505 111 505 111 429 111 c 256,30,31
 353 111 353 111 284.5 140 c 128,-1,32
 216 169 216 169 164 219 c 128,-1,33
 112 269 112 269 81.5 335.5 c 128,-1,34
 51 402 51 402 51 478 c 0,35,36
 51 555 51 555 84 620 c 128,-1,37
 117 685 117 685 171.5 732.5 c 128,-1,38
 226 780 226 780 296.5 806.5 c 128,-1,39
 367 833 367 833 441 833 c 0,20,21
EndSplineSet
Validated: 1
EndChar

StartChar: tilde
Encoding: 732 732 208
Width: 1214
Flags: W
HStem: 136 247<704.314 918> 285 237<398.929 571.496>
VStem: 167 220<165 277.173>
LayerCount: 2
Fore
SplineSet
861 136 m 0,0,1
 812 136 812 136 754 154.5 c 128,-1,2
 696 173 696 173 636 205 c 0,3,4
 607 221 607 221 580 235.5 c 128,-1,5
 553 250 553 250 529.5 261 c 128,-1,6
 506 272 506 272 486.5 278.5 c 128,-1,7
 467 285 467 285 452 285 c 0,8,9
 440 285 440 285 428 279.5 c 128,-1,10
 416 274 416 274 407 260.5 c 128,-1,11
 398 247 398 247 392.5 224 c 128,-1,12
 387 201 387 201 387 165 c 1,13,-1
 167 165 l 1,14,15
 167 522 167 522 408 522 c 0,16,17
 443 522 443 522 473.5 516.5 c 128,-1,18
 504 511 504 511 531.5 502.5 c 128,-1,19
 559 494 559 494 584 483 c 128,-1,20
 609 472 609 472 634 461 c 0,21,22
 663 447 663 447 692 433.5 c 128,-1,23
 721 420 721 420 746.5 408.5 c 128,-1,24
 772 397 772 397 793 390 c 128,-1,25
 814 383 814 383 828 383 c 0,26,27
 836 383 836 383 842 386 c 128,-1,28
 848 389 848 389 851.5 398.5 c 128,-1,29
 855 408 855 408 857 427 c 128,-1,30
 859 446 859 446 859 479 c 1,31,-1
 1092 479 l 1,32,33
 1092 310 1092 310 1033.5 223 c 128,-1,34
 975 136 975 136 861 136 c 0,0,1
EndSplineSet
Validated: 1
EndChar

StartChar: acutecomb
Encoding: 769 769 209
Width: 1133
Flags: W
VStem: 416 545
LayerCount: 2
Fore
SplineSet
416 295 m 1,0,-1
 630 929 l 1,1,-1
 961 773 l 1,2,-1
 589 214 l 1,3,-1
 416 295 l 1,0,-1
EndSplineSet
Validated: 1
EndChar

StartChar: breve
Encoding: 728 728 210
Width: 1373
Flags: W
HStem: 98 162<579.69 794.479>
VStem: 325 226<285.499 451> 822 224<285.499 451>
LayerCount: 2
Fore
SplineSet
1046 451 m 1,0,1
 1046 270 1046 270 956.5 184 c 128,-1,2
 867 98 867 98 685 98 c 0,3,4
 506 98 506 98 415.5 184 c 128,-1,5
 325 270 325 270 325 451 c 1,6,-1
 551 451 l 1,7,8
 551 398 551 398 557.5 361.5 c 128,-1,9
 564 325 564 325 579 302.5 c 128,-1,10
 594 280 594 280 620 270 c 128,-1,11
 646 260 646 260 685 260 c 0,12,13
 725 260 725 260 751 270 c 128,-1,14
 777 280 777 280 793 302.5 c 128,-1,15
 809 325 809 325 815.5 361.5 c 128,-1,16
 822 398 822 398 822 451 c 1,17,-1
 1046 451 l 1,0,1
EndSplineSet
Validated: 1
EndChar

StartChar: afii10051
Encoding: 1026 1026 213
Width: 1685
Flags: W
HStem: -296 248<976.344 1185> 0 21G<443 842> 985 251<955.363 1219.5> 1379 251<26 443 842 1251>
VStem: 443 399<0 948.296 1098 1379> 1208 378<6.21875 931.038>
LayerCount: 2
Fore
SplineSet
976 -38 m 1,0,1
 987 -40 987 -40 999 -42.5 c 128,-1,2
 1011 -45 1011 -45 1028 -48 c 1,3,4
 1122 -48 1122 -48 1166 8.5 c 128,-1,5
 1210 65 1210 65 1210 170 c 0,6,7
 1210 209 1210 209 1209 247.5 c 128,-1,8
 1208 286 1208 286 1208 324 c 2,9,-1
 1208 773 l 2,10,11
 1208 870 1208 870 1166 927.5 c 128,-1,12
 1124 985 1124 985 1035 985 c 0,13,14
 1002 985 1002 985 978 982.5 c 128,-1,15
 954 980 954 980 933 972.5 c 128,-1,16
 912 965 912 965 891 951 c 128,-1,17
 870 937 870 937 842 914 c 1,18,-1
 842 0 l 1,19,-1
 443 0 l 1,20,-1
 443 1379 l 1,21,-1
 26 1379 l 1,22,-1
 26 1630 l 1,23,-1
 1251 1630 l 1,24,-1
 1251 1379 l 1,25,-1
 842 1379 l 1,26,-1
 842 1098 l 1,27,28
 850 1118 850 1118 877 1142 c 128,-1,29
 904 1166 904 1166 946.5 1187 c 128,-1,30
 989 1208 989 1208 1046.5 1222 c 128,-1,31
 1104 1236 1104 1236 1172 1236 c 0,32,33
 1267 1236 1267 1236 1343.5 1205.5 c 128,-1,34
 1420 1175 1420 1175 1474 1114 c 128,-1,35
 1528 1053 1528 1053 1557 961 c 128,-1,36
 1586 869 1586 869 1586 747 c 2,37,-1
 1586 191 l 2,38,39
 1586 68 1586 68 1558 -23 c 128,-1,40
 1530 -114 1530 -114 1478 -175 c 128,-1,41
 1426 -236 1426 -236 1352 -266 c 128,-1,42
 1278 -296 1278 -296 1185 -296 c 0,43,44
 1113 -296 1113 -296 1056 -284 c 128,-1,45
 999 -272 999 -272 953 -246 c 1,46,-1
 976 -38 l 1,0,1
EndSplineSet
Validated: 1
EndChar

StartChar: afii10053
Encoding: 1028 1028 215
Width: 1353
Flags: W
HStem: -28 286<674.047 1075.58> 714 245<495 1049> 1370 287<666.229 1066.59>
VStem: 93 399<483.439 714 959 1155.38>
LayerCount: 2
Fore
SplineSet
93 821 m 0,0,1
 93 1015 93 1015 138.5 1170 c 128,-1,2
 184 1325 184 1325 274 1433 c 128,-1,3
 364 1541 364 1541 498.5 1599 c 128,-1,4
 633 1657 633 1657 811 1657 c 0,5,6
 894 1657 894 1657 972 1645.5 c 128,-1,7
 1050 1634 1050 1634 1115.5 1615.5 c 128,-1,8
 1181 1597 1181 1597 1230.5 1575 c 128,-1,9
 1280 1553 1280 1553 1307 1532 c 1,10,-1
 1198 1252 l 1,11,12
 1106 1316 1106 1316 1020.5 1343 c 128,-1,13
 935 1370 935 1370 841 1370 c 0,14,15
 752 1370 752 1370 690 1339.5 c 128,-1,16
 628 1309 628 1309 587.5 1254.5 c 128,-1,17
 547 1200 547 1200 525.5 1124.5 c 128,-1,18
 504 1049 504 1049 495 959 c 1,19,-1
 1049 959 l 1,20,-1
 1049 714 l 1,21,-1
 492 714 l 1,22,23
 520 258 520 258 852 258 c 0,24,25
 1041 258 1041 258 1197 371 c 1,26,-1
 1304 92 l 1,27,28
 1277 67 1277 67 1225.5 45.5 c 128,-1,29
 1174 24 1174 24 1107.5 7.5 c 128,-1,30
 1041 -9 1041 -9 965 -18.5 c 128,-1,31
 889 -28 889 -28 812 -28 c 0,32,33
 633 -28 633 -28 498.5 33 c 128,-1,34
 364 94 364 94 274 205 c 128,-1,35
 184 316 184 316 138.5 472.5 c 128,-1,36
 93 629 93 629 93 821 c 0,0,1
EndSplineSet
Validated: 1
EndChar

StartChar: afii10058
Encoding: 1033 1033 220
Width: 2534
Flags: W
HStem: 0 251<1633 1960.18> 833 236<1633 1944.07> 1380 249<701 1235>
VStem: 307 397<495.177 1380> 1235 398<251 833 1069 1380> 2088 399<368.335 707.681>
LayerCount: 2
Fore
SplineSet
2088 551 m 0,0,1
 2088 636 2088 636 2054.5 691 c 128,-1,2
 2021 746 2021 746 1965.5 777.5 c 128,-1,3
 1910 809 1910 809 1837 821 c 128,-1,4
 1764 833 1764 833 1686 833 c 2,5,-1
 1633 833 l 1,6,-1
 1633 251 l 1,7,-1
 1715 251 l 2,8,9
 1804 251 1804 251 1873.5 265 c 128,-1,10
 1943 279 1943 279 1990.5 313 c 128,-1,11
 2038 347 2038 347 2063 405 c 128,-1,12
 2088 463 2088 463 2088 551 c 0,0,1
1235 0 m 1,13,-1
 1235 1380 l 1,14,-1
 701 1380 l 1,15,-1
 704 847 l 2,16,17
 704 733 704 733 693.5 626.5 c 128,-1,18
 683 520 683 520 656 426 c 128,-1,19
 629 332 629 332 581.5 254 c 128,-1,20
 534 176 534 176 459.5 120 c 128,-1,21
 385 64 385 64 280.5 33 c 128,-1,22
 176 2 176 2 35 2 c 1,23,-1
 35 372 l 1,24,25
 129 372 129 372 183 406 c 128,-1,26
 237 440 237 440 264.5 497.5 c 128,-1,27
 292 555 292 555 299.5 630 c 128,-1,28
 307 705 307 705 307 788 c 2,29,-1
 307 827 l 1,30,-1
 302 1629 l 1,31,-1
 1633 1629 l 1,32,-1
 1633 1069 l 1,33,-1
 1688 1069 l 2,34,35
 1868 1069 1868 1069 2015.5 1046.5 c 128,-1,36
 2163 1024 2163 1024 2268 965.5 c 128,-1,37
 2373 907 2373 907 2430 806.5 c 128,-1,38
 2487 706 2487 706 2487 549 c 0,39,40
 2487 439 2487 439 2461 355.5 c 128,-1,41
 2435 272 2435 272 2387 211 c 128,-1,42
 2339 150 2339 150 2270 109.5 c 128,-1,43
 2201 69 2201 69 2115.5 44.5 c 128,-1,44
 2030 20 2030 20 1929 10 c 128,-1,45
 1828 0 1828 0 1716 0 c 2,46,-1
 1614 0 l 1,47,-1
 1235 0 l 1,13,-1
EndSplineSet
Validated: 1
EndChar

StartChar: afii10059
Encoding: 1034 1034 221
Width: 2405
Flags: W
HStem: 0 251<1507 1835.04> 721 245<560 1107> 833 236<1507 1816.09> 1610 20G<161 560 1107 1507>
VStem: 161 399<0 721 966 1630> 1107 400<251 721 1069 1630> 1960 399<368.795 707.681>
LayerCount: 2
Fore
SplineSet
1960 551 m 0,0,1
 1960 636 1960 636 1926.5 691 c 128,-1,2
 1893 746 1893 746 1837.5 777.5 c 128,-1,3
 1782 809 1782 809 1709.5 821 c 128,-1,4
 1637 833 1637 833 1558 833 c 2,5,-1
 1507 833 l 1,6,-1
 1507 251 l 1,7,-1
 1588 251 l 2,8,9
 1677 251 1677 251 1746.5 265 c 128,-1,10
 1816 279 1816 279 1863.5 313 c 128,-1,11
 1911 347 1911 347 1935.5 405 c 128,-1,12
 1960 463 1960 463 1960 551 c 0,0,1
1107 721 m 1,13,-1
 560 721 l 1,14,-1
 560 0 l 1,15,-1
 161 0 l 1,16,-1
 161 1630 l 1,17,-1
 560 1630 l 1,18,-1
 560 966 l 1,19,-1
 1107 966 l 1,20,-1
 1107 1630 l 1,21,-1
 1507 1630 l 1,22,-1
 1507 1069 l 1,23,-1
 1560 1069 l 2,24,25
 1741 1069 1741 1069 1888.5 1046.5 c 128,-1,26
 2036 1024 2036 1024 2140.5 965.5 c 128,-1,27
 2245 907 2245 907 2302 806.5 c 128,-1,28
 2359 706 2359 706 2359 549 c 0,29,30
 2359 384 2359 384 2301.5 277.5 c 128,-1,31
 2244 171 2244 171 2142 109.5 c 128,-1,32
 2040 48 2040 48 1898.5 24 c 128,-1,33
 1757 0 1757 0 1589 0 c 2,34,-1
 1107 0 l 1,35,-1
 1107 721 l 1,13,-1
EndSplineSet
Validated: 1
EndChar

StartChar: afii10060
Encoding: 1035 1035 222
Width: 1639
Flags: W
HStem: 0 21G<410 812 1175 1553> 813 252<812 1120.95> 1380 250<26 410 809 1253>
VStem: 410 402<0 813 1065 1380> 1175 378<0 755.175>
LayerCount: 2
Fore
SplineSet
812 0 m 1,0,-1
 410 0 l 1,1,-1
 410 1380 l 1,2,-1
 26 1380 l 1,3,-1
 26 1630 l 1,4,-1
 1253 1630 l 1,5,-1
 1253 1380 l 1,6,-1
 809 1380 l 1,7,-1
 809 1065 l 1,8,-1
 1143 1065 l 2,9,10
 1237 1065 1237 1065 1312.5 1033.5 c 128,-1,11
 1388 1002 1388 1002 1441.5 940.5 c 128,-1,12
 1495 879 1495 879 1524 787.5 c 128,-1,13
 1553 696 1553 696 1553 575 c 2,14,-1
 1553 0 l 1,15,-1
 1175 0 l 1,16,-1
 1175 440 l 2,17,18
 1175 476 1175 476 1176.5 515 c 128,-1,19
 1178 554 1178 554 1178 594 c 0,20,21
 1178 646 1178 646 1165.5 687 c 128,-1,22
 1153 728 1153 728 1131.5 756 c 128,-1,23
 1110 784 1110 784 1080 798.5 c 128,-1,24
 1050 813 1050 813 1016 813 c 2,25,-1
 812 813 l 1,26,-1
 812 0 l 1,0,-1
EndSplineSet
Validated: 1
EndChar

StartChar: afii10145
Encoding: 1039 1039 226
Width: 1715
Flags: W
HStem: -366 617<659 1058> 0 251<560 659 1058 1154> 1610 20G<161 560 1154 1553>
VStem: 161 399<251 1630> 659 399<-366 0> 1154 399<251 1630>
LayerCount: 2
Fore
SplineSet
161 1630 m 1,0,-1
 560 1630 l 1,1,-1
 560 251 l 1,2,-1
 1154 251 l 1,3,-1
 1154 1630 l 1,4,-1
 1553 1630 l 1,5,-1
 1553 0 l 1,6,-1
 1058 0 l 1,7,-1
 1058 -366 l 1,8,-1
 659 -366 l 1,9,-1
 659 0 l 1,10,-1
 161 0 l 1,11,-1
 161 1630 l 1,0,-1
EndSplineSet
Validated: 1
EndChar

StartChar: afii10018
Encoding: 1041 1041 228
Width: 1551
Flags: W
HStem: 0 251<640 960.031> 833 236<640 949.64> 1385 245<46 241 640 1310>
VStem: 241 399<251 833 1069 1380> 1093 399<373.077 709.798>
LayerCount: 2
Fore
SplineSet
640 251 m 1,0,-1
 721 251 l 2,1,2
 808 251 808 251 877 265.5 c 128,-1,3
 946 280 946 280 994 314.5 c 128,-1,4
 1042 349 1042 349 1067.5 407 c 128,-1,5
 1093 465 1093 465 1093 552 c 0,6,7
 1093 632 1093 632 1064 686 c 128,-1,8
 1035 740 1035 740 982 772.5 c 128,-1,9
 929 805 929 805 855 819 c 128,-1,10
 781 833 781 833 691 833 c 2,11,-1
 640 833 l 1,12,-1
 640 251 l 1,0,-1
1492 550 m 1,13,14
 1492 385 1492 385 1435 278.5 c 128,-1,15
 1378 172 1378 172 1276 110 c 128,-1,16
 1174 48 1174 48 1032.5 24 c 128,-1,17
 891 0 891 0 722 0 c 2,18,-1
 548 0 l 1,19,-1
 241 0 l 1,20,-1
 241 1385 l 1,21,-1
 46 1385 l 1,22,-1
 46 1630 l 1,23,-1
 1310 1630 l 1,24,-1
 1310 1380 l 1,25,-1
 640 1380 l 1,26,-1
 640 1069 l 1,27,-1
 693 1069 l 2,28,29
 874 1069 874 1069 1020 1046.5 c 128,-1,30
 1166 1024 1166 1024 1270 965.5 c 128,-1,31
 1374 907 1374 907 1431.5 806.5 c 128,-1,32
 1489 706 1489 706 1492 550 c 1,13,14
EndSplineSet
Validated: 1
EndChar

StartChar: afii10020
Encoding: 1043 1043 230
Width: 1129
Flags: W
HStem: 0 21G<161 560> 1380 250<560 1108>
VStem: 161 399<0 1380>
LayerCount: 2
Fore
SplineSet
560 1380 m 1,0,-1
 560 0 l 1,1,-1
 161 0 l 1,2,-1
 161 1630 l 1,3,-1
 1108 1630 l 1,4,-1
 1108 1380 l 1,5,-1
 560 1380 l 1,0,-1
EndSplineSet
Validated: 1
EndChar

StartChar: afii10021
Encoding: 1044 1044 231
Width: 1891
Flags: W
HStem: 2 249<616 1296> 1380 251<733 1296>
VStem: 50 428<-486 2> 334 399<581.249 1380> 1296 400<251 1380> 1461 346<-488 2>
LayerCount: 2
Fore
SplineSet
1296 251 m 1,0,-1
 1296 1380 l 1,1,-1
 733 1380 l 1,2,-1
 733 964 l 2,3,4
 733 875 733 875 731 772.5 c 128,-1,5
 729 670 729 670 718 572 c 128,-1,6
 707 474 707 474 683.5 389.5 c 128,-1,7
 660 305 660 305 616 251 c 1,8,-1
 1296 251 l 1,0,-1
150 251 m 1,9,10
 148 247 148 247 148 248 c 1,11,-1
 149 248 l 2,12,13
 151 248 151 248 165.5 265 c 128,-1,14
 180 282 180 282 200.5 320.5 c 128,-1,15
 221 359 221 359 244.5 421.5 c 128,-1,16
 268 484 268 484 288 575.5 c 128,-1,17
 308 667 308 667 321 789.5 c 128,-1,18
 334 912 334 912 334 1071 c 2,19,-1
 334 1631 l 1,20,-1
 1696 1631 l 1,21,-1
 1696 141 l 1,22,-1
 1807 141 l 1,23,-1
 1807 -488 l 1,24,-1
 1461 -488 l 1,25,-1
 1461 2 l 1,26,-1
 478 2 l 1,27,-1
 478 -486 l 1,28,-1
 50 -486 l 1,29,-1
 50 251 l 1,30,-1
 150 251 l 1,9,10
EndSplineSet
Validated: 5
EndChar

StartChar: afii10024
Encoding: 1046 1046 233
Width: 2327
Flags: W
HStem: 0 21G<-36 394.022 965 1363 1931.98 2364> 691 244<898 965 1363 1428> 1610 20G<19 439.353 965 1363 1888.59 2306>
VStem: 965 398<0 691 935 1630>
LayerCount: 2
Fore
SplineSet
965 691 m 1,0,-1
 898 691 l 1,1,-1
 379 0 l 1,2,-1
 -36 0 l 1,3,-1
 414 606 l 2,4,5
 456 662 456 662 490.5 700.5 c 128,-1,6
 525 739 525 739 558 763.5 c 128,-1,7
 591 788 591 788 626 802 c 128,-1,8
 661 816 661 816 704 823 c 1,9,10
 661 833 661 833 626 848.5 c 128,-1,11
 591 864 591 864 557 892 c 128,-1,12
 523 920 523 920 487 963 c 128,-1,13
 451 1006 451 1006 406 1071 c 2,14,-1
 19 1630 l 1,15,-1
 426 1630 l 1,16,-1
 890 935 l 1,17,-1
 965 935 l 1,18,-1
 965 1630 l 1,19,-1
 1363 1630 l 1,20,-1
 1363 935 l 1,21,-1
 1436 935 l 1,22,-1
 1902 1630 l 1,23,-1
 2306 1630 l 1,24,-1
 1922 1071 l 2,25,26
 1877 1006 1877 1006 1841 962.5 c 128,-1,27
 1805 919 1805 919 1770.5 890.5 c 128,-1,28
 1736 862 1736 862 1700.5 846.5 c 128,-1,29
 1665 831 1665 831 1623 823 c 1,30,31
 1665 816 1665 816 1700 802 c 128,-1,32
 1735 788 1735 788 1768 763 c 128,-1,33
 1801 738 1801 738 1836 699.5 c 128,-1,34
 1871 661 1871 661 1913 606 c 2,35,-1
 2364 0 l 1,36,-1
 1947 0 l 1,37,-1
 1428 691 l 1,38,-1
 1363 691 l 1,39,-1
 1363 0 l 1,40,-1
 965 0 l 1,41,-1
 965 691 l 1,0,-1
EndSplineSet
Validated: 1
EndChar

StartChar: afii10025
Encoding: 1047 1047 234
Width: 1407
Flags: W
HStem: -28 286<318.206 803.635> 689 266<304 823.931> 1370 287<281.741 839.887>
VStem: 906 389<349.545 627.297 1026.73 1307.45>
LayerCount: 2
Fore
SplineSet
1013 833 m 1,0,1
 1053 829 1053 829 1102 804.5 c 128,-1,2
 1151 780 1151 780 1194 733 c 128,-1,3
 1237 686 1237 686 1266 616 c 128,-1,4
 1295 546 1295 546 1295 452 c 0,5,6
 1295 306 1295 306 1240.5 212.5 c 128,-1,7
 1186 119 1186 119 1089.5 65.5 c 128,-1,8
 993 12 993 12 862 -8 c 128,-1,9
 731 -28 731 -28 578 -28 c 0,10,11
 521 -28 521 -28 458.5 -18.5 c 128,-1,12
 396 -9 396 -9 330.5 7 c 128,-1,13
 265 23 265 23 198 44 c 128,-1,14
 131 65 131 65 67 88 c 1,15,-1
 147 363 l 1,16,17
 181 349 181 349 231 331 c 128,-1,18
 281 313 281 313 339.5 296.5 c 128,-1,19
 398 280 398 280 461.5 269 c 128,-1,20
 525 258 525 258 586 258 c 0,21,22
 742 258 742 258 824 314.5 c 128,-1,23
 906 371 906 371 906 494 c 0,24,25
 906 546 906 546 890.5 583.5 c 128,-1,26
 875 621 875 621 840.5 645 c 128,-1,27
 806 669 806 669 750.5 680 c 128,-1,28
 695 691 695 691 614 691 c 0,29,30
 573 691 573 691 533.5 690 c 128,-1,31
 494 689 494 689 454 689 c 2,32,-1
 304 689 l 1,33,-1
 304 955 l 1,34,-1
 574 955 l 2,35,36
 745 955 745 955 826.5 1000.5 c 128,-1,37
 908 1046 908 1046 908 1148 c 0,38,39
 908 1211 908 1211 894 1253.5 c 128,-1,40
 880 1296 880 1296 845.5 1322 c 128,-1,41
 811 1348 811 1348 752 1359 c 128,-1,42
 693 1370 693 1370 602 1370 c 0,43,44
 506 1370 506 1370 424.5 1356.5 c 128,-1,45
 343 1343 343 1343 281.5 1325 c 128,-1,46
 220 1307 220 1307 180 1290 c 128,-1,47
 140 1273 140 1273 127 1266 c 1,48,-1
 41 1526 l 1,49,50
 105 1565 105 1565 175 1590.5 c 128,-1,51
 245 1616 245 1616 318.5 1631 c 128,-1,52
 392 1646 392 1646 466.5 1651.5 c 128,-1,53
 541 1657 541 1657 614 1657 c 0,54,55
 761 1657 761 1657 886.5 1637 c 128,-1,56
 1012 1617 1012 1617 1103.5 1565.5 c 128,-1,57
 1195 1514 1195 1514 1246.5 1424 c 128,-1,58
 1298 1334 1298 1334 1298 1194 c 0,59,60
 1298 1101 1298 1101 1267.5 1033 c 128,-1,61
 1237 965 1237 965 1193 920.5 c 128,-1,62
 1149 876 1149 876 1100 854.5 c 128,-1,63
 1051 833 1051 833 1013 833 c 1,0,1
EndSplineSet
Validated: 1
EndChar

StartChar: afii10026
Encoding: 1048 1048 235
Width: 1706
Flags: W
HStem: 0 21G<161 516 1189 1545> 1610 20G<161 515 1112.16 1545>
VStem: 161 354<0 136 680 1630> 1189 356<0 1107>
LayerCount: 2
Fore
SplineSet
515 1630 m 1,0,-1
 515 680 l 1,1,-1
 1125 1630 l 1,2,-1
 1545 1630 l 1,3,-1
 1545 0 l 1,4,-1
 1189 0 l 1,5,-1
 1189 1107 l 1,6,-1
 516 136 l 1,7,-1
 516 0 l 1,8,-1
 161 0 l 1,9,-1
 161 1630 l 1,10,-1
 515 1630 l 1,0,-1
EndSplineSet
Validated: 1
EndChar

StartChar: afii10028
Encoding: 1050 1050 237
Width: 1617
Flags: W
HStem: 0 21G<161 560 1193.91 1621> 691 244<560 822> 1610 20G<161 560 1149.53 1566>
VStem: 161 399<0 691 935 1630>
LayerCount: 2
Fore
SplineSet
560 0 m 1,0,-1
 161 0 l 1,1,-1
 161 1630 l 1,2,-1
 560 1630 l 1,3,-1
 560 935 l 1,4,-1
 830 935 l 1,5,-1
 1159 1630 l 1,6,-1
 1566 1630 l 1,7,-1
 1283 1071 l 2,8,9
 1248 1002 1248 1002 1217.5 957.5 c 128,-1,10
 1187 913 1187 913 1156 886 c 128,-1,11
 1125 859 1125 859 1091 845 c 128,-1,12
 1057 831 1057 831 1014 823 c 1,13,14
 1056 815 1056 815 1088.5 803 c 128,-1,15
 1121 791 1121 791 1151 768 c 128,-1,16
 1181 745 1181 745 1210 707 c 128,-1,17
 1239 669 1239 669 1273 609 c 2,18,-1
 1621 0 l 1,19,-1
 1205 0 l 1,20,-1
 822 691 l 1,21,-1
 560 691 l 1,22,-1
 560 0 l 1,0,-1
EndSplineSet
Validated: 1
EndChar

StartChar: afii10029
Encoding: 1051 1051 238
Width: 1793
Flags: W
HStem: 0 21G<35 105.5 1232 1631> 1380 250<701 1232>
VStem: 307 398<474.903 1380> 1232 399<0 1380>
LayerCount: 2
Fore
SplineSet
1631 0 m 1,0,-1
 1232 0 l 1,1,-1
 1232 1380 l 1,2,-1
 701 1380 l 1,3,-1
 705 861 l 2,4,5
 705 745 705 745 694.5 636.5 c 128,-1,6
 684 528 684 528 656.5 432.5 c 128,-1,7
 629 337 629 337 581.5 257.5 c 128,-1,8
 534 178 534 178 459.5 121 c 128,-1,9
 385 64 385 64 280.5 32.5 c 128,-1,10
 176 1 176 1 35 1 c 1,11,-1
 35 370 l 1,12,13
 108 370 108 370 159.5 387.5 c 128,-1,14
 211 405 211 405 244 447 c 128,-1,15
 277 489 277 489 292 558 c 128,-1,16
 307 627 307 627 307 731 c 2,17,-1
 302 1630 l 1,18,-1
 1631 1630 l 1,19,-1
 1631 0 l 1,0,-1
EndSplineSet
Validated: 1
EndChar

StartChar: afii10033
Encoding: 1055 1055 242
Width: 1715
Flags: W
HStem: 0 21G<161 560 1154 1553> 1380 250<560 1154>
VStem: 161 399<0 1380> 1154 399<0 1380>
LayerCount: 2
Fore
SplineSet
1553 0 m 1,0,-1
 1154 0 l 1,1,-1
 1154 1380 l 1,2,-1
 560 1380 l 1,3,-1
 560 0 l 1,4,-1
 161 0 l 1,5,-1
 161 1630 l 1,6,-1
 1553 1630 l 1,7,-1
 1553 0 l 1,0,-1
EndSplineSet
Validated: 1
EndChar

StartChar: afii10037
Encoding: 1059 1059 246
Width: 1403
Flags: W
HStem: 0 21G<508 888> 1610 20G<-17 390.52 1009.36 1423>
VStem: 508 380<0 544>
LayerCount: 2
Fore
SplineSet
1019 1630 m 1,0,-1
 1423 1630 l 1,1,-1
 888 544 l 1,2,-1
 888 0 l 1,3,-1
 508 0 l 1,4,-1
 509 544 l 1,5,-1
 -17 1630 l 1,6,-1
 381 1630 l 1,7,-1
 698 964 l 1,8,-1
 1019 1630 l 1,0,-1
EndSplineSet
Validated: 1
EndChar

StartChar: afii10038
Encoding: 1060 1060 247
Width: 1969
Flags: W
HStem: 77 286<614.609 787 1185 1352.65> 1266 287<595.574 787 1185 1377.16>
VStem: 54 399<550.891 1093.5> 787 398<-90 77 364 1266 1553 1721> 1519 398<551.481 1092.41>
LayerCount: 2
Fore
SplineSet
1185 -90 m 1,0,-1
 787 -90 l 1,1,-1
 787 77 l 1,2,3
 652 77 652 77 545 107 c 128,-1,4
 438 137 438 137 356.5 190 c 128,-1,5
 275 243 275 243 217.5 314 c 128,-1,6
 160 385 160 385 123.5 467 c 128,-1,7
 87 549 87 549 70.5 638 c 128,-1,8
 54 727 54 727 54 816 c 0,9,10
 54 996 54 996 115 1133.5 c 128,-1,11
 176 1271 176 1271 278 1364.5 c 128,-1,12
 380 1458 380 1458 512 1505.5 c 128,-1,13
 644 1553 644 1553 787 1553 c 1,14,-1
 787 1721 l 1,15,-1
 1185 1721 l 1,16,-1
 1185 1553 l 1,17,18
 1278 1553 1278 1553 1369 1532 c 128,-1,19
 1460 1511 1460 1511 1541 1469.5 c 128,-1,20
 1622 1428 1622 1428 1691 1366.5 c 128,-1,21
 1760 1305 1760 1305 1810.5 1223 c 128,-1,22
 1861 1141 1861 1141 1889 1039 c 128,-1,23
 1917 937 1917 937 1917 815 c 0,24,25
 1917 726 1917 726 1900 636.5 c 128,-1,26
 1883 547 1883 547 1846.5 465 c 128,-1,27
 1810 383 1810 383 1752.5 312 c 128,-1,28
 1695 241 1695 241 1613.5 189 c 128,-1,29
 1532 137 1532 137 1425.5 107 c 128,-1,30
 1319 77 1319 77 1185 77 c 1,31,-1
 1185 -90 l 1,0,-1
787 1266 m 1,32,33
 711 1264 711 1264 649.5 1246.5 c 128,-1,34
 588 1229 588 1229 544.5 1180.5 c 128,-1,35
 501 1132 501 1132 477 1044.5 c 128,-1,36
 453 957 453 957 453 815 c 0,37,38
 453 680 453 680 482 592.5 c 128,-1,39
 511 505 511 505 558.5 454 c 128,-1,40
 606 403 606 403 665.5 383 c 128,-1,41
 725 363 725 363 787 363 c 1,42,-1
 787 1266 l 1,32,33
1185 364 m 1,43,44
 1226 364 1226 364 1266 372.5 c 128,-1,45
 1306 381 1306 381 1343.5 401 c 128,-1,46
 1381 421 1381 421 1413 454.5 c 128,-1,47
 1445 488 1445 488 1468.5 538.5 c 128,-1,48
 1492 589 1492 589 1505.5 657.5 c 128,-1,49
 1519 726 1519 726 1519 816 c 0,50,51
 1519 912 1519 912 1508 982.5 c 128,-1,52
 1497 1053 1497 1053 1476 1102.5 c 128,-1,53
 1455 1152 1455 1152 1425 1183 c 128,-1,54
 1395 1214 1395 1214 1358 1232 c 128,-1,55
 1321 1250 1321 1250 1277.5 1257 c 128,-1,56
 1234 1264 1234 1264 1185 1266 c 1,57,-1
 1185 364 l 1,43,44
EndSplineSet
Validated: 1
EndChar

StartChar: afii10040
Encoding: 1062 1062 249
Width: 1761
Flags: W
HStem: 0 251<560 1131> 1610 20G<161 560 1131 1530>
VStem: 161 399<251 1630> 1131 399<251 1630> 1294 400<-366 0>
LayerCount: 2
Fore
SplineSet
161 1630 m 1,0,-1
 560 1630 l 1,1,-1
 560 251 l 1,2,-1
 1131 251 l 1,3,-1
 1131 1630 l 1,4,-1
 1530 1630 l 1,5,-1
 1530 194 l 1,6,-1
 1694 194 l 1,7,-1
 1694 -366 l 1,8,-1
 1294 -366 l 1,9,-1
 1294 0 l 1,10,-1
 161 0 l 1,11,-1
 161 1630 l 1,0,-1
EndSplineSet
Validated: 1
EndChar

StartChar: afii10041
Encoding: 1063 1063 250
Width: 1384
Flags: W
HStem: 0 21G<844 1222> 393 251<478 731.896> 1610 20G<99 477 844 1222>
VStem: 99 378<706.52 1630> 844 378<0 532 675.875 1630>
LayerCount: 2
Fore
SplineSet
844 532 m 1,0,1
 799 469 799 469 719 431 c 128,-1,2
 639 393 639 393 529 393 c 0,3,4
 427 393 427 393 347 424.5 c 128,-1,5
 267 456 267 456 212 517.5 c 128,-1,6
 157 579 157 579 128 671 c 128,-1,7
 99 763 99 763 99 884 c 2,8,-1
 99 1630 l 1,9,-1
 477 1630 l 1,10,-1
 477 856 l 2,11,12
 477 803 477 803 491 763.5 c 128,-1,13
 505 724 505 724 527.5 697.5 c 128,-1,14
 550 671 550 671 579.5 657.5 c 128,-1,15
 609 644 609 644 639 644 c 0,16,17
 695 644 695 644 727.5 649.5 c 128,-1,18
 760 655 760 655 780.5 665 c 128,-1,19
 801 675 801 675 814 688.5 c 128,-1,20
 827 702 827 702 844 717 c 1,21,-1
 844 1630 l 1,22,-1
 1222 1630 l 1,23,-1
 1222 0 l 1,24,-1
 844 0 l 1,25,-1
 844 532 l 1,0,1
EndSplineSet
Validated: 1
EndChar

StartChar: afii10042
Encoding: 1064 1064 251
Width: 2503
Flags: W
HStem: 0 251<559 1052 1452 1945> 1610 20G<161 559 1052 1452 1945 2342>
VStem: 161 398<251 1630> 1052 400<251 1630> 1945 397<251 1630>
LayerCount: 2
Fore
SplineSet
1452 251 m 1,0,-1
 1945 251 l 1,1,-1
 1945 1630 l 1,2,-1
 2342 1630 l 1,3,-1
 2342 0 l 1,4,-1
 161 0 l 1,5,-1
 161 1630 l 1,6,-1
 559 1630 l 1,7,-1
 559 251 l 1,8,-1
 1052 251 l 1,9,-1
 1052 1630 l 1,10,-1
 1452 1630 l 1,11,-1
 1452 251 l 1,0,-1
EndSplineSet
Validated: 1
EndChar

StartChar: afii10043
Encoding: 1065 1065 252
Width: 2511
Flags: W
HStem: 0 249<559 1052 1452 1946> 1610 20G<161 559 1052 1452 1946 2325>
VStem: 161 398<249 1630> 1052 400<249 1630> 1946 379<249 1630> 2089 342<-465 0>
LayerCount: 2
Fore
SplineSet
1452 249 m 1,0,-1
 1946 249 l 1,1,-1
 1946 1630 l 1,2,-1
 2325 1630 l 1,3,-1
 2325 87 l 1,4,-1
 2431 87 l 1,5,-1
 2431 -465 l 1,6,-1
 2089 -465 l 1,7,-1
 2089 0 l 1,8,-1
 161 0 l 1,9,-1
 161 1630 l 1,10,-1
 559 1630 l 1,11,-1
 559 249 l 1,12,-1
 1052 249 l 1,13,-1
 1052 1630 l 1,14,-1
 1452 1630 l 1,15,-1
 1452 249 l 1,0,-1
EndSplineSet
Validated: 1
EndChar

StartChar: afii10044
Encoding: 1066 1066 253
Width: 1625
Flags: W
HStem: 0 251<726 1050.66> 833 236<726 1037.52> 1385 245<31 328>
VStem: 328 398<251 833 1069 1385> 1180 399<370.266 709.035>
LayerCount: 2
Fore
SplineSet
726 251 m 1,0,-1
 807 251 l 2,1,2
 896 251 896 251 965.5 265.5 c 128,-1,3
 1035 280 1035 280 1082.5 314.5 c 128,-1,4
 1130 349 1130 349 1155 407 c 128,-1,5
 1180 465 1180 465 1180 552 c 0,6,7
 1180 632 1180 632 1150.5 686 c 128,-1,8
 1121 740 1121 740 1068 772.5 c 128,-1,9
 1015 805 1015 805 941 819 c 128,-1,10
 867 833 867 833 778 833 c 2,11,-1
 726 833 l 1,12,-1
 726 251 l 1,0,-1
726 1069 m 1,13,-1
 780 1069 l 2,14,15
 961 1069 961 1069 1108.5 1046.5 c 128,-1,16
 1256 1024 1256 1024 1360.5 965.5 c 128,-1,17
 1465 907 1465 907 1522 806.5 c 128,-1,18
 1579 706 1579 706 1579 550 c 0,19,20
 1579 385 1579 385 1522 278.5 c 128,-1,21
 1465 172 1465 172 1362.5 110 c 128,-1,22
 1260 48 1260 48 1118.5 24 c 128,-1,23
 977 0 977 0 808 0 c 2,24,-1
 328 0 l 1,25,-1
 328 1385 l 1,26,-1
 31 1385 l 1,27,-1
 31 1630 l 1,28,-1
 726 1630 l 1,29,-1
 726 1069 l 1,13,-1
EndSplineSet
Validated: 1
EndChar

StartChar: afii10045
Encoding: 1067 1067 254
Width: 2179
Flags: W
HStem: 0 251<559 883.661> 833 236<559 869.64> 1610 20G<161 559>
VStem: 161 398<251 833 1069 1630> 1013 399<370.266 709.035> 1621 396<0 1626>
LayerCount: 2
Fore
SplineSet
2017 0 m 1,0,-1
 1621 0 l 1,1,-1
 1621 1626 l 1,2,-1
 2017 1626 l 1,3,-1
 2017 0 l 1,0,-1
1412 550 m 1,4,5
 1412 385 1412 385 1355 278.5 c 128,-1,6
 1298 172 1298 172 1195.5 110 c 128,-1,7
 1093 48 1093 48 951.5 24 c 128,-1,8
 810 0 810 0 641 0 c 2,9,-1
 161 0 l 1,10,-1
 161 1630 l 1,11,-1
 559 1630 l 1,12,-1
 559 1069 l 1,13,-1
 613 1069 l 2,14,15
 794 1069 794 1069 940 1046.5 c 128,-1,16
 1086 1024 1086 1024 1190 965.5 c 128,-1,17
 1294 907 1294 907 1351.5 806.5 c 128,-1,18
 1409 706 1409 706 1412 550 c 1,4,5
559 251 m 1,19,-1
 640 251 l 2,20,21
 729 251 729 251 798.5 265.5 c 128,-1,22
 868 280 868 280 915.5 314.5 c 128,-1,23
 963 349 963 349 988 407 c 128,-1,24
 1013 465 1013 465 1013 552 c 0,25,26
 1013 632 1013 632 983.5 686 c 128,-1,27
 954 740 954 740 901 772.5 c 128,-1,28
 848 805 848 805 774 819 c 128,-1,29
 700 833 700 833 610 833 c 2,30,-1
 559 833 l 1,31,-1
 559 251 l 1,19,-1
EndSplineSet
Validated: 1
EndChar

StartChar: afii10046
Encoding: 1068 1068 255
Width: 1457
Flags: W
HStem: 0 251<559 883.661> 833 236<559 869.64> 1610 20G<161 559>
VStem: 161 398<251 833 1069 1630> 1013 399<370.266 709.035>
LayerCount: 2
Fore
SplineSet
1412 550 m 1,0,1
 1412 385 1412 385 1355 278.5 c 128,-1,2
 1298 172 1298 172 1195.5 110 c 128,-1,3
 1093 48 1093 48 951.5 24 c 128,-1,4
 810 0 810 0 641 0 c 2,5,-1
 161 0 l 1,6,-1
 161 1630 l 1,7,-1
 559 1630 l 1,8,-1
 559 1069 l 1,9,-1
 613 1069 l 2,10,11
 794 1069 794 1069 940 1046.5 c 128,-1,12
 1086 1024 1086 1024 1190 965.5 c 128,-1,13
 1294 907 1294 907 1351.5 806.5 c 128,-1,14
 1409 706 1409 706 1412 550 c 1,0,1
559 251 m 1,15,-1
 640 251 l 2,16,17
 729 251 729 251 798.5 265.5 c 128,-1,18
 868 280 868 280 915.5 314.5 c 128,-1,19
 963 349 963 349 988 407 c 128,-1,20
 1013 465 1013 465 1013 552 c 0,21,22
 1013 632 1013 632 983.5 686 c 128,-1,23
 954 740 954 740 901 772.5 c 128,-1,24
 848 805 848 805 774 819 c 128,-1,25
 700 833 700 833 610 833 c 2,26,-1
 559 833 l 1,27,-1
 559 251 l 1,15,-1
EndSplineSet
Validated: 1
EndChar

StartChar: afii10047
Encoding: 1069 1069 256
Width: 1353
Flags: W
HStem: -28 286<277.64 677.596> 715 243<292 858> 1370 287<290.294 685.356>
VStem: 862 398<482.316 715 958 1155.38>
LayerCount: 2
Fore
SplineSet
1260 821 m 0,0,1
 1260 629 1260 629 1215 472.5 c 128,-1,2
 1170 316 1170 316 1080 205 c 128,-1,3
 990 94 990 94 855 33 c 128,-1,4
 720 -28 720 -28 541 -28 c 0,5,6
 467 -28 467 -28 393 -19 c 128,-1,7
 319 -10 319 -10 253 5.5 c 128,-1,8
 187 21 187 21 133.5 43 c 128,-1,9
 80 65 80 65 49 92 c 1,10,-1
 157 371 l 1,11,12
 246 309 246 309 330.5 283.5 c 128,-1,13
 415 258 415 258 500 258 c 0,14,15
 663 258 663 258 755 368 c 128,-1,16
 847 478 847 478 862 715 c 1,17,-1
 292 715 l 1,18,-1
 292 958 l 1,19,-1
 858 958 l 1,20,21
 850 1049 850 1049 828 1125 c 128,-1,22
 806 1201 806 1201 765.5 1255.5 c 128,-1,23
 725 1310 725 1310 663 1340 c 128,-1,24
 601 1370 601 1370 513 1370 c 0,25,26
 470 1370 470 1370 428.5 1364.5 c 128,-1,27
 387 1359 387 1359 344 1345.5 c 128,-1,28
 301 1332 301 1332 254.5 1309 c 128,-1,29
 208 1286 208 1286 155 1252 c 1,30,-1
 46 1532 l 1,31,32
 81 1556 81 1556 133.5 1578.5 c 128,-1,33
 186 1601 186 1601 250.5 1618.5 c 128,-1,34
 315 1636 315 1636 389.5 1646.5 c 128,-1,35
 464 1657 464 1657 543 1657 c 0,36,37
 721 1657 721 1657 855 1599 c 128,-1,38
 989 1541 989 1541 1079 1433 c 128,-1,39
 1169 1325 1169 1325 1214.5 1170 c 128,-1,40
 1260 1015 1260 1015 1260 821 c 0,0,1
EndSplineSet
Validated: 1
EndChar

StartChar: afii10048
Encoding: 1070 1070 257
Width: 2323
Flags: W
HStem: -28 286<1326.62 1659.15> 0 21G<161 560> 704 244<560 759.629> 1371 286<1322.97 1658.72> 1610 20G<161 560>
VStem: 161 399<0 704 948 1630> 758 392<483.494 704 948 1148.31> 1832 398<477.551 1148.68>
LayerCount: 2
Fore
SplineSet
758 948 m 1,0,1
 765 1037 765 1037 785 1124 c 128,-1,2
 805 1211 805 1211 842 1290 c 128,-1,3
 879 1369 879 1369 935.5 1436 c 128,-1,4
 992 1503 992 1503 1071.5 1552 c 128,-1,5
 1151 1601 1151 1601 1255 1629 c 128,-1,6
 1359 1657 1359 1657 1493 1657 c 0,7,8
 1639 1657 1639 1657 1750 1623 c 128,-1,9
 1861 1589 1861 1589 1943 1529.5 c 128,-1,10
 2025 1470 2025 1470 2080 1389.5 c 128,-1,11
 2135 1309 2135 1309 2168.5 1215.5 c 128,-1,12
 2202 1122 2202 1122 2216 1019.5 c 128,-1,13
 2230 917 2230 917 2230 815 c 0,14,15
 2230 720 2230 720 2217.5 620 c 128,-1,16
 2205 520 2205 520 2173.5 426.5 c 128,-1,17
 2142 333 2142 333 2089 250 c 128,-1,18
 2036 167 2036 167 1954 105.5 c 128,-1,19
 1872 44 1872 44 1758 8 c 128,-1,20
 1644 -28 1644 -28 1492 -28 c 0,21,22
 1373 -28 1373 -28 1278.5 -6 c 128,-1,23
 1184 16 1184 16 1111 53.5 c 128,-1,24
 1038 91 1038 91 984.5 142 c 128,-1,25
 931 193 931 193 893 250.5 c 128,-1,26
 855 308 855 308 830.5 369.5 c 128,-1,27
 806 431 806 431 790.5 491 c 128,-1,28
 775 551 775 551 767 605.5 c 128,-1,29
 759 660 759 660 755 704 c 1,30,-1
 560 704 l 1,31,-1
 560 0 l 1,32,-1
 161 0 l 1,33,-1
 161 1630 l 1,34,-1
 560 1630 l 1,35,-1
 560 948 l 1,36,-1
 758 948 l 1,0,1
1832 813 m 0,37,38
 1832 882 1832 882 1826.5 950 c 128,-1,39
 1821 1018 1821 1018 1807 1080 c 128,-1,40
 1793 1142 1793 1142 1769 1195 c 128,-1,41
 1745 1248 1745 1248 1707 1287.5 c 128,-1,42
 1669 1327 1669 1327 1616 1349 c 128,-1,43
 1563 1371 1563 1371 1492 1371 c 0,44,45
 1389 1371 1389 1371 1323 1326 c 128,-1,46
 1257 1281 1257 1281 1218.5 1204.5 c 128,-1,47
 1180 1128 1180 1128 1165 1026.5 c 128,-1,48
 1150 925 1150 925 1150 812 c 0,49,50
 1150 745 1150 745 1155.5 678 c 128,-1,51
 1161 611 1161 611 1175.5 549.5 c 128,-1,52
 1190 488 1190 488 1214.5 435 c 128,-1,53
 1239 382 1239 382 1277 342.5 c 128,-1,54
 1315 303 1315 303 1368 280.5 c 128,-1,55
 1421 258 1421 258 1492 258 c 0,56,57
 1570 258 1570 258 1626 284.5 c 128,-1,58
 1682 311 1682 311 1719.5 355 c 128,-1,59
 1757 399 1757 399 1779.5 456 c 128,-1,60
 1802 513 1802 513 1813.5 575 c 128,-1,61
 1825 637 1825 637 1828.5 698.5 c 128,-1,62
 1832 760 1832 760 1832 813 c 0,37,38
EndSplineSet
Validated: 1
EndChar

StartChar: afii10049
Encoding: 1071 1071 258
Width: 1556
Flags: W
HStem: 0 21G<117 512 996 1394> 692 240<636.872 996> 1380 250<610.352 996>
VStem: 117 395<0 586.27> 130 400<1021.82 1308.09> 996 398<0 692 932 1380>
LayerCount: 2
Fore
SplineSet
617 811 m 1,0,1
 511 818 511 818 421.5 840.5 c 128,-1,2
 332 863 332 863 267.5 909 c 128,-1,3
 203 955 203 955 166.5 1029 c 128,-1,4
 130 1103 130 1103 130 1213 c 0,5,6
 130 1280 130 1280 145.5 1337 c 128,-1,7
 161 1394 161 1394 197.5 1440.5 c 128,-1,8
 234 1487 234 1487 295.5 1522.5 c 128,-1,9
 357 1558 357 1558 449 1582 c 128,-1,10
 541 1606 541 1606 666.5 1618 c 128,-1,11
 792 1630 792 1630 958 1630 c 2,12,-1
 1394 1630 l 1,13,-1
 1394 0 l 1,14,-1
 996 0 l 1,15,-1
 996 692 l 1,16,-1
 881 692 l 2,17,18
 794 692 794 692 725.5 679.5 c 128,-1,19
 657 667 657 667 609.5 636.5 c 128,-1,20
 562 606 562 606 537 553.5 c 128,-1,21
 512 501 512 501 512 420 c 2,22,-1
 512 0 l 1,23,-1
 117 0 l 1,24,-1
 117 393 l 2,25,26
 117 502 117 502 154 577 c 128,-1,27
 191 652 191 652 257.5 700 c 128,-1,28
 324 748 324 748 416 774 c 128,-1,29
 508 800 508 800 617 811 c 1,0,1
996 932 m 1,30,-1
 996 1380 l 1,31,-1
 918 1380 l 2,32,33
 810 1380 810 1380 736 1371 c 128,-1,34
 662 1362 662 1362 616 1338.5 c 128,-1,35
 570 1315 570 1315 550 1273 c 128,-1,36
 530 1231 530 1231 530 1165 c 0,37,38
 530 1094 530 1094 555 1049 c 128,-1,39
 580 1004 580 1004 633.5 978 c 128,-1,40
 687 952 687 952 769 942 c 128,-1,41
 851 932 851 932 965 932 c 2,42,-1
 996 932 l 1,30,-1
EndSplineSet
Validated: 1
EndChar

StartChar: afii10066
Encoding: 1073 1073 260
Width: 1344
Flags: W
HStem: -28 243<575.998 795.178> 1005 241<586.287 823.158> 1433 188<569.806 925.225> 1434.5 281.5<936 1138.19>
VStem: 109 379<364.933 928.422> 883 379<324.68 926.794>
LayerCount: 2
Fore
SplineSet
488 603 m 0,0,1
 488 400 488 400 540 307.5 c 128,-1,2
 592 215 592 215 686 215 c 0,3,4
 883 215 883 215 883 609 c 0,5,6
 883 726 883 726 873.5 802.5 c 128,-1,7
 864 879 864 879 844.5 924 c 128,-1,8
 825 969 825 969 794 987 c 128,-1,9
 763 1005 763 1005 720 1005 c 0,10,11
 608 1005 608 1005 483 889 c 1,12,13
 486 816 486 816 487 745.5 c 128,-1,14
 488 675 488 675 488 603 c 0,0,1
687 -28 m 0,15,16
 624 -28 624 -28 556.5 -17.5 c 128,-1,17
 489 -7 489 -7 425 22.5 c 128,-1,18
 361 52 361 52 303.5 104 c 128,-1,19
 246 156 246 156 203 238.5 c 128,-1,20
 160 321 160 321 134.5 438 c 128,-1,21
 109 555 109 555 109 715 c 0,22,23
 109 878 109 878 123.5 1004 c 128,-1,24
 138 1130 138 1130 164 1224.5 c 128,-1,25
 190 1319 190 1319 225.5 1385.5 c 128,-1,26
 261 1452 261 1452 303 1496.5 c 128,-1,27
 345 1541 345 1541 391 1566.5 c 128,-1,28
 437 1592 437 1592 484 1604.5 c 128,-1,29
 531 1617 531 1617 577 1620.5 c 128,-1,30
 623 1624 623 1624 665 1624 c 0,31,32
 675 1624 675 1624 693 1623.5 c 128,-1,33
 711 1623 711 1623 730 1622.5 c 128,-1,34
 749 1622 749 1622 765 1621.5 c 128,-1,35
 781 1621 781 1621 787 1621 c 0,36,37
 824 1621 824 1621 852 1625 c 128,-1,38
 880 1629 880 1629 899 1639.5 c 128,-1,39
 918 1650 918 1650 927 1669 c 128,-1,40
 936 1688 936 1688 936 1716 c 1,41,-1
 1234 1716 l 1,42,43
 1234 1646 1234 1646 1220 1598 c 128,-1,44
 1206 1550 1206 1550 1180.5 1518 c 128,-1,45
 1155 1486 1155 1486 1120.5 1469 c 128,-1,46
 1086 1452 1086 1452 1044.5 1444 c 128,-1,47
 1003 1436 1003 1436 956.5 1434.5 c 128,-1,48
 910 1433 910 1433 862 1433 c 2,49,-1
 827 1433 l 2,50,51
 782 1433 782 1433 736.5 1431 c 128,-1,52
 691 1429 691 1429 649.5 1419.5 c 128,-1,53
 608 1410 608 1410 572.5 1390 c 128,-1,54
 537 1370 537 1370 511 1334 c 128,-1,55
 485 1298 485 1298 470 1243.5 c 128,-1,56
 455 1189 455 1189 455 1111 c 1,57,58
 486 1144 486 1144 526.5 1169.5 c 128,-1,59
 567 1195 567 1195 613.5 1212 c 128,-1,60
 660 1229 660 1229 710.5 1237.5 c 128,-1,61
 761 1246 761 1246 812 1246 c 0,62,63
 854 1246 854 1246 904 1235.5 c 128,-1,64
 954 1225 954 1225 1004 1198.5 c 128,-1,65
 1054 1172 1054 1172 1100.5 1126.5 c 128,-1,66
 1147 1081 1147 1081 1183 1010 c 128,-1,67
 1219 939 1219 939 1240.5 840.5 c 128,-1,68
 1262 742 1262 742 1262 610 c 0,69,70
 1262 469 1262 469 1232 366.5 c 128,-1,71
 1202 264 1202 264 1153.5 193 c 128,-1,72
 1105 122 1105 122 1043 78.5 c 128,-1,73
 981 35 981 35 917 11.5 c 128,-1,74
 853 -12 853 -12 792.5 -20 c 128,-1,75
 732 -28 732 -28 687 -28 c 0,15,16
EndSplineSet
Validated: 1
EndChar

